<?xml version="1.0" encoding="iso-8859-1"?>
<!-- Generator: Adobe Illustrator 19.0.0, SVG Export Plug-In . SVG Version: 6.00 Build 0)  -->
<svg xmlns="http://www.w3.org/2000/svg" xmlns:xlink="http://www.w3.org/1999/xlink" version="1.1" id="Layer_1" x="0px" y="0px" viewBox="0 0 512.004 512.004" style="enable-background:new 0 0 512.004 512.004;" xml:space="preserve">
<g>
	<g>
		<g>
			<path d="M198.176,95.777c4.772,0,8.642-3.869,8.642-8.642V49.1c0-4.772-3.869-8.642-8.642-8.642     c-4.772,0-8.642,3.869-8.642,8.642v38.036C189.535,91.908,193.404,95.777,198.176,95.777z"/>
			<path d="M114.941,111.753c1.601,2.772,4.506,4.322,7.492,4.322c1.466,0,2.951-0.374,4.312-1.158     c4.133-2.387,5.55-7.672,3.164-11.806l-19.017-32.94c-2.387-4.132-7.671-5.549-11.806-3.164     c-4.133,2.387-5.55,7.673-3.164,11.806L114.941,111.753z"/>
			<path d="M29.715,151.35l32.938,19.017c1.361,0.786,2.846,1.159,4.312,1.159c2.987,0,5.892-1.55,7.492-4.322     c2.387-4.133,0.97-9.418-3.163-11.805l-32.938-19.017c-4.133-2.387-9.418-0.97-11.805,3.163     C24.165,143.679,25.582,148.964,29.715,151.35z"/>
			<path d="M55.319,238.632c0-4.772-3.869-8.642-8.642-8.642H8.642C3.869,229.99,0,233.86,0,238.632s3.869,8.642,8.642,8.642h38.036     C51.45,247.274,55.319,243.405,55.319,238.632z"/>
			<path d="M38.356,340.883l32.938-19.018c4.133-2.386,5.55-7.672,3.163-11.805c-2.385-4.132-7.67-5.551-11.805-3.163     l-32.938,19.017c-4.133,2.386-5.55,7.672-3.163,11.805c1.601,2.772,4.505,4.322,7.492,4.322     C35.509,342.042,36.995,341.668,38.356,340.883z"/>
			<path d="M329.383,171.527c1.465,0,2.951-0.374,4.312-1.158l32.94-19.017c4.133-2.387,5.55-7.673,3.164-11.806     c-2.387-4.132-7.671-5.548-11.806-3.164l-32.94,19.018c-4.133,2.387-5.55,7.672-3.164,11.806     C323.492,169.978,326.395,171.527,329.383,171.527z"/>
			<path d="M269.602,114.917c1.361,0.785,2.846,1.158,4.312,1.158c2.987,0,5.891-1.55,7.492-4.322l19.018-32.94     c2.386-4.133,0.969-9.418-3.164-11.806c-4.133-2.383-9.418-0.969-11.806,3.164l-19.017,32.94     C264.051,107.244,265.469,112.529,269.602,114.917z"/>
			<path d="M450.332,250.415c-3.303,0-6.597,0.264-9.846,0.788c-9.615-10.947-23.538-17.336-38.272-17.336     c-2.472,0-4.931,0.179-7.365,0.535c-4.822-13.886-13.518-26.335-25.041-35.664c-14.013-11.342-31.675-17.589-49.736-17.589     c-1.336,0-2.664,0.037-3.984,0.103c-21.897-45-67.497-73.748-117.912-73.748c-72.306,0-131.131,58.825-131.131,131.129     c0,38.764,16.963,75.011,46.054,99.788c-4.833,2.77-9.227,6.326-12.965,10.58c-3.25-0.522-6.546-0.786-9.847-0.786     c-34.003,0-61.666,27.662-61.666,61.665c0,34.003,27.662,61.668,61.666,61.668h216.386c33.665,0,61.054-27.388,61.054-61.053     c0-13.785-4.597-26.514-12.333-36.745h63.529c4.772,0,8.642-3.869,8.642-8.642c0-4.772-3.869-8.642-8.642-8.642h-83.825     c-0.26-0.137-0.529-0.254-0.792-0.387c-0.662-0.337-1.329-0.665-2.004-0.979c-0.342-0.159-0.685-0.314-1.029-0.467     c-0.808-0.358-1.626-0.696-2.452-1.018c-0.216-0.084-0.43-0.174-0.647-0.255c-2.207-0.833-4.473-1.543-6.794-2.118     c-0.077-0.019-0.153-0.035-0.23-0.053c-1.038-0.254-2.086-0.479-3.143-0.677c-0.232-0.044-0.464-0.083-0.697-0.125     c-0.903-0.16-1.813-0.298-2.729-0.418c-0.295-0.039-0.589-0.079-0.884-0.112c-0.879-0.102-1.766-0.18-2.656-0.243     c-0.294-0.022-0.587-0.051-0.88-0.067c-1.155-0.066-2.317-0.106-3.488-0.106c-2.486,0-4.958,0.15-7.408,0.447     c-4.115-39.799-37.847-70.94-78.716-70.94c-1.075,0-2.143,0.025-3.211,0.068c-0.009,0-0.017,0.002-0.026,0.002     c-0.176,0.008-0.351,0.019-0.526,0.028c-0.326,0.015-0.652,0.038-0.979,0.057c-0.565,0.034-1.13,0.066-1.691,0.112     c-0.017,0.001-0.034,0.005-0.051,0.006c-0.301,0.025-0.601,0.057-0.902,0.085c-0.063,0.004-0.125,0.002-0.189,0.008     c-0.093,0.009-0.186,0.021-0.279,0.03c-0.31,0.031-0.619,0.067-0.928,0.1c-0.289,0.032-0.581,0.06-0.87,0.095     c-0.059,0.008-0.117,0.021-0.175,0.029c-0.216,0.027-0.431,0.057-0.647,0.086c-0.099,0.01-0.198,0.012-0.297,0.025     c-0.367,0.05-0.732,0.112-1.099,0.167c-0.255,0.039-0.509,0.076-0.763,0.117c-0.203,0.032-0.407,0.059-0.609,0.093     c-0.097,0.016-0.19,0.042-0.286,0.062c-0.115,0.016-0.228,0.023-0.344,0.043c-0.724,0.126-1.44,0.278-2.156,0.426     c-0.098,0.021-0.199,0.034-0.297,0.054c0.117-0.108,0.233-0.215,0.351-0.322c0.272-0.246,0.548-0.489,0.825-0.729     c0.203-0.175,0.408-0.349,0.615-0.52c0.289-0.24,0.583-0.474,0.878-0.708c0.202-0.159,0.403-0.319,0.607-0.474     c0.329-0.25,0.663-0.491,0.999-0.732c0.177-0.126,0.351-0.257,0.529-0.381c0.511-0.354,1.028-0.7,1.553-1.033     c0.107-0.068,0.217-0.131,0.325-0.198c0.428-0.266,0.86-0.528,1.297-0.78c0.202-0.117,0.408-0.227,0.612-0.339     c0.35-0.194,0.701-0.387,1.057-0.571c0.227-0.118,0.456-0.231,0.684-0.345c0.342-0.171,0.686-0.337,1.033-0.498     c0.235-0.11,0.473-0.218,0.711-0.324c0.353-0.157,0.709-0.308,1.066-0.455c0.231-0.095,0.462-0.192,0.695-0.284     c0.395-0.156,0.794-0.301,1.194-0.445c0.199-0.071,0.395-0.147,0.596-0.216c0.598-0.205,1.201-0.401,1.809-0.58     c0.064-0.018,0.129-0.035,0.192-0.053c0.549-0.16,1.101-0.309,1.656-0.447c0.214-0.053,0.429-0.098,0.644-0.149     c0.412-0.096,0.825-0.189,1.24-0.272c0.244-0.05,0.49-0.094,0.737-0.138c0.392-0.072,0.786-0.14,1.182-0.201     c0.254-0.039,0.508-0.077,0.762-0.111c0.4-0.055,0.802-0.103,1.204-0.147c0.246-0.027,0.493-0.055,0.74-0.078     c0.44-0.04,0.88-0.07,1.323-0.096c0.211-0.013,0.421-0.03,0.633-0.04c0.654-0.03,1.309-0.048,1.968-0.048     c4.475,0,8.886,0.671,13.112,1.995c0.264,0.082,0.53,0.145,0.798,0.199c0.163,0.035,0.326,0.063,0.49,0.087     c0.035,0.005,0.069,0.009,0.104,0.013c0.313,0.043,0.625,0.072,0.94,0.081c0.099,0.004,0.2,0.013,0.298,0.015     c0.084,0,0.166-0.011,0.251-0.013c0.118-0.004,0.235-0.01,0.353-0.018c0.243-0.017,0.482-0.046,0.718-0.083     c0.065-0.011,0.129-0.018,0.192-0.03c4.037-0.727,7.102-4.25,7.102-8.497c0-0.251-0.019-0.495-0.04-0.74     c-0.021-0.549-0.042-1.098-0.042-1.651c0-0.959,0.029-1.911,0.072-2.859c0.004-0.107,0.01-0.213,0.015-0.32     c0.019-0.372,0.052-0.739,0.078-1.108c0.039-0.562,0.075-1.125,0.129-1.682c0.054-0.551,0.124-1.097,0.192-1.644     c0.051-0.41,0.098-0.822,0.157-1.23c0.092-0.634,0.199-1.265,0.31-1.894c0.053-0.3,0.104-0.602,0.161-0.901     c0.136-0.706,0.285-1.409,0.445-2.107c0.045-0.199,0.091-0.399,0.138-0.596c0.187-0.778,0.386-1.551,0.602-2.318     c0.026-0.092,0.052-0.185,0.079-0.277c3.045-10.63,8.879-20.163,16.705-27.681c0.05-0.048,0.099-0.095,0.149-0.143     c0.598-0.571,1.21-1.131,1.831-1.679c0.093-0.082,0.188-0.163,0.282-0.244c0.593-0.516,1.196-1.023,1.808-1.517     c0.129-0.104,0.26-0.204,0.39-0.307c0.593-0.47,1.191-0.933,1.802-1.382c0.151-0.111,0.307-0.217,0.46-0.327     c0.604-0.435,1.212-0.866,1.833-1.28c0.134-0.089,0.271-0.172,0.406-0.26c2.75-1.805,5.657-3.393,8.696-4.749     c0.244-0.109,0.485-0.225,0.731-0.331c0.606-0.26,1.222-0.503,1.839-0.745c0.274-0.108,0.546-0.22,0.821-0.324     c0.63-0.237,1.268-0.457,1.908-0.673c0.264-0.09,0.525-0.183,0.791-0.268c0.67-0.216,1.345-0.418,2.024-0.611     c0.234-0.067,0.468-0.136,0.703-0.2c0.719-0.197,1.444-0.378,2.173-0.549c0.192-0.045,0.385-0.091,0.578-0.134     c0.776-0.174,1.558-0.333,2.345-0.477c0.14-0.026,0.281-0.051,0.421-0.076c0.84-0.148,1.686-0.281,2.54-0.394     c2.698-0.361,5.445-0.565,8.241-0.565c29.104,0,53.905,19.804,60.312,48.16c0.538,2.382,2.059,4.425,4.186,5.624     c2.128,1.2,4.661,1.443,6.978,0.67c3.452-1.15,7.042-1.736,10.665-1.736c11.034,0,21.382,5.428,27.68,14.521     c2.063,2.978,5.766,4.351,9.27,3.446c3.635-0.942,7.393-1.418,11.168-1.418c24.474,0,44.384,19.91,44.384,44.382     c0,24.474-19.911,44.384-44.384,44.384c-4.772,0-8.642,3.869-8.642,8.642s3.869,8.642,8.642,8.642     c34.003,0,61.668-27.663,61.668-61.668C512,278.079,484.336,250.415,450.332,250.415z M205.483,298.095     c0.212-0.052,0.423-0.104,0.636-0.154c0.535-0.128,1.069-0.253,1.607-0.366c0.179-0.038,0.36-0.07,0.538-0.107     c0.973-0.197,1.952-0.367,2.935-0.517c0.295-0.045,0.588-0.095,0.885-0.136c0.405-0.056,0.812-0.1,1.22-0.148     c0.432-0.05,0.865-0.1,1.302-0.142c0.001,0,0.002,0,0.003,0c0.334-0.032,0.668-0.059,1.001-0.086     c0.544-0.043,1.091-0.077,1.638-0.107c0.001,0,0.003,0,0.004,0c0.275-0.015,0.551-0.031,0.827-0.043     c0.823-0.032,1.645-0.054,2.473-0.054c34.103-0.003,61.85,27.742,61.85,61.847c0,0.575-0.023,1.145-0.042,1.712l-0.014,0.382     c-0.097,2.802,1.171,5.476,3.401,7.175c2.23,1.697,5.143,2.21,7.82,1.371c4.227-1.325,8.636-1.997,13.106-1.997     c0.883,0,1.764,0.034,2.642,0.087c0.225,0.013,0.447,0.035,0.671,0.051c0.693,0.053,1.385,0.12,2.073,0.205     c0.198,0.025,0.394,0.049,0.591,0.076c1.794,0.247,3.572,0.601,5.319,1.067c0.042,0.011,0.082,0.024,0.124,0.036     c0.811,0.219,1.614,0.466,2.411,0.731c0.151,0.051,0.304,0.102,0.455,0.154c0.753,0.26,1.498,0.54,2.236,0.841     c0.095,0.039,0.192,0.073,0.286,0.113c0.799,0.333,1.588,0.692,2.367,1.073c0.213,0.104,0.42,0.216,0.631,0.323     c0.541,0.275,1.078,0.563,1.608,0.861c13.329,7.511,22.356,21.793,22.356,38.152c0,24.135-19.635,43.769-43.771,43.769H90.287     c-24.472,0-44.382-19.911-44.382-44.384c0-24.472,19.91-44.382,44.382-44.382c3.775,0,7.536,0.476,11.174,1.417     c3.51,0.906,7.205-0.47,9.266-3.445c5.142-7.421,12.981-12.399,21.689-13.978h0.001c0.691-0.125,1.383-0.227,2.074-0.308     c0.124-0.014,0.25-0.022,0.374-0.035c0.561-0.059,1.121-0.111,1.682-0.143c0.245-0.014,0.492-0.014,0.737-0.023     c0.429-0.015,0.858-0.029,1.285-0.028c0.82,0.004,1.637,0.036,2.451,0.098c0.16,0.012,0.319,0.036,0.479,0.05     c0.663,0.062,1.325,0.14,1.983,0.241c0.251,0.038,0.5,0.082,0.75,0.126c0.591,0.104,1.18,0.225,1.765,0.361     c0.234,0.054,0.47,0.105,0.703,0.164c0.796,0.203,1.589,0.426,2.372,0.687c0.4,0.134,0.807,0.226,1.216,0.299     c0.091,0.016,0.179,0.031,0.27,0.045c0.409,0.059,0.82,0.098,1.231,0.098c0.005,0,0.012,0.001,0.018,0.001     c0.037,0,0.073-0.007,0.11-0.008c0.296-0.003,0.591-0.023,0.885-0.056c0.102-0.012,0.202-0.029,0.302-0.045     c0.239-0.037,0.475-0.081,0.711-0.137c0.109-0.026,0.217-0.053,0.324-0.083c0.238-0.067,0.471-0.146,0.703-0.232     c0.092-0.035,0.184-0.065,0.274-0.102c0.318-0.132,0.631-0.278,0.934-0.449c1.346-0.758,2.446-1.856,3.21-3.161     c0.445-0.759,0.778-1.587,0.977-2.463c0.224-0.991,0.473-1.974,0.746-2.949c0.016-0.058,0.035-0.116,0.051-0.174     c1.601-5.658,4.025-11.041,7.137-15.994c0.159-0.253,0.312-0.51,0.474-0.762c0.416-0.643,0.851-1.272,1.291-1.899     c0.21-0.299,0.421-0.597,0.636-0.892c0.434-0.597,0.878-1.188,1.334-1.769c0.251-0.32,0.51-0.632,0.767-0.946     c0.449-0.551,0.898-1.103,1.365-1.639c0.362-0.414,0.741-0.812,1.114-1.215c0.662-0.718,1.341-1.42,2.035-2.107     c0.485-0.479,0.969-0.957,1.469-1.419c0.36-0.333,0.729-0.654,1.096-0.978c0.531-0.468,1.068-0.93,1.616-1.379     c0.352-0.289,0.706-0.577,1.065-0.859c0.62-0.487,1.251-0.959,1.889-1.423c0.306-0.223,0.607-0.449,0.917-0.667     c0.957-0.669,1.929-1.317,2.924-1.931c0.001-0.001,0.003-0.001,0.004-0.002c0.081-0.051,0.165-0.096,0.246-0.146     c0.003-0.002,0.005-0.003,0.009-0.004c0.126-0.077,0.255-0.151,0.382-0.227c0.736-0.442,1.48-0.866,2.232-1.276     c0.006-0.003,0.013-0.005,0.019-0.009l0.218-0.119c0.253-0.138,0.507-0.277,0.763-0.412c0.001,0,0.002-0.001,0.003-0.002     c0.406-0.212,0.817-0.415,1.228-0.617c0.275-0.135,0.551-0.271,0.829-0.401c0.004-0.002,0.009-0.005,0.013-0.008     c0.425-0.201,0.851-0.398,1.28-0.589c0.302-0.133,0.605-0.265,0.91-0.393c0.001,0,0.002-0.001,0.003-0.001     c0.439-0.187,0.876-0.375,1.318-0.552c0.111-0.044,0.225-0.085,0.336-0.13c1.765-0.692,3.561-1.303,5.383-1.83     c0.171-0.05,0.341-0.1,0.513-0.149C204.396,298.374,204.938,298.231,205.483,298.095z M296.002,184.91     c-0.269,0.086-0.54,0.166-0.808,0.256c-0.668,0.221-1.328,0.458-1.987,0.697c-0.377,0.136-0.754,0.273-1.129,0.416     c-0.622,0.237-1.24,0.479-1.855,0.73c-0.395,0.162-0.787,0.329-1.18,0.497c-0.604,0.258-1.208,0.517-1.803,0.79     c-0.352,0.161-0.699,0.333-1.048,0.499c-0.005,0.002-0.011,0.005-0.015,0.008c-6.191-10.895-14.417-20.667-24.142-28.6     c-3.698-3.015-9.142-2.465-12.159,1.235c-3.017,3.698-2.464,9.142,1.235,12.159c8.229,6.714,15.168,15.01,20.337,24.262     c-15.109,11.739-25.291,28.329-28.972,46.861c-0.011,0.052-0.018,0.105-0.028,0.157c-0.07,0.354-0.128,0.713-0.192,1.068     c-0.028,0.149-0.054,0.298-0.081,0.447c-0.149,0.844-0.292,1.688-0.414,2.539c-0.071,0.492-0.128,0.988-0.19,1.483     c-0.069,0.56-0.157,1.114-0.215,1.675c-1.168-0.142-2.341-0.244-3.518-0.319c-0.057-0.003-0.113-0.012-0.171-0.015     c-1.237-0.075-2.477-0.112-3.721-0.112c-0.828,0.002-1.652,0.021-2.473,0.054c-0.269,0.011-0.535,0.034-0.804,0.049     c-0.55,0.03-1.101,0.058-1.647,0.104c-0.321,0.026-0.639,0.065-0.959,0.096c-0.439,0.043-0.877,0.079-1.314,0.132     c-0.053,0.006-0.106,0.016-0.159,0.023c-0.338,0.041-0.673,0.094-1.009,0.142c-0.468,0.066-0.935,0.129-1.399,0.205     c-0.346,0.056-0.688,0.124-1.032,0.187c-0.452,0.082-0.903,0.162-1.35,0.255c-0.348,0.071-0.692,0.152-1.038,0.23     c-0.441,0.098-0.881,0.197-1.319,0.305c-0.347,0.085-0.69,0.18-1.035,0.272c-0.431,0.115-0.861,0.229-1.289,0.353     c-0.346,0.1-0.688,0.207-1.031,0.313c-0.422,0.131-0.845,0.263-1.263,0.402c-0.34,0.113-0.678,0.233-1.015,0.352     c-0.416,0.147-0.832,0.296-1.244,0.452c-0.334,0.126-0.665,0.257-0.996,0.389c-0.41,0.163-0.82,0.329-1.226,0.501     c-0.327,0.138-0.652,0.281-0.977,0.425c-0.405,0.18-0.809,0.363-1.21,0.551c-0.318,0.149-0.634,0.301-0.95,0.457     c-0.4,0.197-0.797,0.396-1.193,0.602c-0.31,0.161-0.619,0.323-0.926,0.489c-0.393,0.212-0.783,0.429-1.171,0.649     c-0.302,0.172-0.603,0.345-0.902,0.521c-0.387,0.229-0.77,0.462-1.151,0.7c-0.292,0.18-0.582,0.362-0.871,0.548     c-0.381,0.245-0.759,0.498-1.135,0.752c-0.281,0.19-0.562,0.379-0.839,0.574c-0.375,0.263-0.744,0.531-1.114,0.802     c-0.27,0.198-0.541,0.394-0.808,0.596c-0.37,0.281-0.733,0.568-1.097,0.858c-0.257,0.204-0.514,0.405-0.768,0.614     c-0.366,0.3-0.726,0.609-1.086,0.918c-0.242,0.207-0.485,0.413-0.724,0.623c-0.364,0.323-0.722,0.656-1.078,0.987     c-0.224,0.208-0.451,0.413-0.671,0.623c-0.366,0.351-0.724,0.712-1.081,1.072c-0.202,0.203-0.407,0.402-0.606,0.607     c-0.377,0.391-0.744,0.791-1.112,1.192c-0.17,0.185-0.344,0.365-0.51,0.552c-0.416,0.466-0.821,0.941-1.223,1.419     c-0.109,0.131-0.224,0.257-0.333,0.388c-1.022,1.236-1.996,2.514-2.921,3.832c-0.077,0.11-0.149,0.224-0.226,0.335     c-0.378,0.547-0.751,1.095-1.112,1.655c-0.135,0.21-0.261,0.425-0.394,0.635c-0.293,0.467-0.586,0.933-0.865,1.409     c-0.152,0.258-0.296,0.522-0.444,0.783c-0.248,0.436-0.499,0.873-0.737,1.317c-0.154,0.287-0.299,0.579-0.449,0.868     c-0.22,0.427-0.442,0.852-0.652,1.284c-0.149,0.308-0.291,0.62-0.435,0.93c-0.197,0.422-0.394,0.845-0.581,1.273     c-0.143,0.325-0.277,0.655-0.414,0.983c-0.176,0.422-0.352,0.844-0.519,1.271c-0.133,0.339-0.257,0.683-0.385,1.025     c-0.107,0.291-0.223,0.578-0.326,0.871c-0.013,0.009-0.025,0.017-0.037,0.026c-1.888,1.273-3.726,2.627-5.503,4.066     c-1.768,1.431-3.461,2.945-5.092,4.516c-0.04,0.039-0.081,0.078-0.121,0.117c-0.775,0.75-1.535,1.513-2.277,2.293     c-0.042,0.044-0.085,0.087-0.126,0.132c-1.509,1.592-2.952,3.242-4.322,4.948c-0.208,0.259-0.41,0.525-0.616,0.787     c-0.418,0.536-0.833,1.074-1.237,1.619c-0.131,0.176-0.27,0.346-0.4,0.523c-25.929-14.827-42.315-42.666-42.315-72.84     c0-46.245,37.623-83.867,83.869-83.867c9.911,0,19.605,1.711,28.816,5.085c4.482,1.643,9.445-0.66,11.087-5.142     c1.642-4.481-0.66-9.445-5.142-11.087c-11.121-4.074-22.816-6.14-34.762-6.14c-55.776,0-101.153,45.376-101.153,101.151     c0,36.382,19.762,69.936,51.01,87.819c-0.365,0.835-0.716,1.675-1.052,2.522c-0.04,0.102-0.083,0.201-0.123,0.301     c-0.379,0.967-0.745,1.94-1.086,2.922c-2.433-0.355-4.892-0.534-7.365-0.534c-1.828,0-3.644,0.099-5.439,0.293     c-30.52-21.348-48.639-55.993-48.639-93.325c0-62.774,51.072-113.846,113.848-113.846c42.036,0,80.228,23.011,100.03,59.439     C297.466,184.436,296.735,184.675,296.002,184.91z"/>
		</g>
	</g>
</g>
<g>
</g>
<g>
</g>
<g>
</g>
<g>
</g>
<g>
</g>
<g>
</g>
<g>
</g>
<g>
</g>
<g>
</g>
<g>
</g>
<g>
</g>
<g>
</g>
<g>
</g>
<g>
</g>
<g>
</g>
</svg>
