<?xml version="1.0" encoding="iso-8859-1"?>
<!-- Generator: Adobe Illustrator 19.0.0, SVG Export Plug-In . SVG Version: 6.00 Build 0)  -->
<svg xmlns="http://www.w3.org/2000/svg" xmlns:xlink="http://www.w3.org/1999/xlink" version="1.1" id="Layer_1" x="0px" y="0px" viewBox="0 0 512 512" style="enable-background:new 0 0 512 512;" xml:space="preserve">
<g>
	<g>
		<g>
			<path d="M183.569,79.163c4.749,0,8.6-3.851,8.6-8.6v-35.11c0-4.749-3.851-8.6-8.6-8.6s-8.6,3.851-8.6,8.6v35.11     C174.969,75.312,178.819,79.163,183.569,79.163z"/>
			<path d="M106.193,93.599c1.593,2.758,4.484,4.301,7.457,4.301c1.458,0,2.937-0.372,4.291-1.152     c4.113-2.376,5.523-7.636,3.149-11.749l-17.556-30.409c-2.376-4.113-7.634-5.523-11.749-3.149     c-4.113,2.376-5.523,7.636-3.149,11.749L106.193,93.599z"/>
			<path d="M27.743,130.381l30.407,17.557c1.354,0.783,2.833,1.154,4.291,1.154c2.972,0,5.863-1.543,7.456-4.301     c2.376-4.113,0.965-9.373-3.148-11.748l-30.407-17.557c-4.112-2.375-9.373-0.965-11.748,3.148     C22.219,122.747,23.629,128.006,27.743,130.381z"/>
			<path d="M8.6,219.019h35.112c4.749,0,8.6-3.851,8.6-8.6s-3.851-8.6-8.6-8.6H8.6c-4.749,0-8.6,3.851-8.6,8.6     S3.851,219.019,8.6,219.019z"/>
			<path d="M24.594,302.202c1.593,2.758,4.484,4.301,7.457,4.301c1.458,0,2.937-0.372,4.291-1.152l30.407-17.555     c4.113-2.376,5.523-7.636,3.149-11.749c-2.375-4.112-7.634-5.522-11.749-3.149l-30.407,17.555     C23.629,292.829,22.219,298.089,24.594,302.202z"/>
			<path d="M304.694,149.091c1.458,0,2.937-0.372,4.291-1.154l30.409-17.557c4.113-2.375,5.523-7.635,3.148-11.748     c-2.374-4.112-7.633-5.526-11.748-3.148l-30.409,17.557c-4.113,2.375-5.523,7.635-3.148,11.748     C298.83,147.55,301.721,149.091,304.694,149.091z"/>
			<path d="M249.195,96.747c1.355,0.783,2.833,1.153,4.291,1.153c2.972,0,5.863-1.543,7.456-4.301l17.557-30.409     c2.376-4.113,0.965-9.373-3.148-11.748c-4.112-2.375-9.373-0.965-11.748,3.148l-17.557,30.409     C243.671,89.113,245.081,94.372,249.195,96.747z"/>
			<path d="M384.995,467.947H90.123c-40.21,0-72.923-32.715-72.923-72.926c0-40.211,32.714-72.924,72.923-72.924     c6.198,0,12.371,0.784,18.348,2.33c3.492,0.904,7.171-0.467,9.222-3.428c2.634-3.801,5.69-7.22,9.082-10.211     c0.041-0.035,0.083-0.069,0.124-0.104c0.763-0.67,1.545-1.315,2.34-1.94c0.132-0.104,0.266-0.206,0.399-0.31     c0.79-0.609,1.593-1.202,2.412-1.768c0.046-0.031,0.091-0.065,0.137-0.096c1.835-1.259,3.74-2.408,5.706-3.441     c0.026-0.014,0.053-0.027,0.078-0.041c0.976-0.512,1.967-0.994,2.972-1.448c0.008-0.003,0.015-0.006,0.023-0.011     c2.018-0.908,4.09-1.696,6.207-2.364c0.09-0.028,0.182-0.055,0.272-0.083c0.936-0.29,1.881-0.554,2.834-0.796     c0.14-0.035,0.279-0.073,0.419-0.107c0.89-0.218,1.789-0.407,2.691-0.583c0.592-0.114,1.187-0.209,1.781-0.304     c0.545-0.088,1.089-0.18,1.638-0.252c0.773-0.1,1.548-0.173,2.324-0.241c0.328-0.029,0.655-0.068,0.985-0.09     c0.103-0.008,0.206-0.015,0.31-0.021c1.002-0.066,2.004-0.102,3.007-0.113c0.134-0.002,0.269-0.012,0.403-0.013     c1.18-0.005,2.36,0.028,3.537,0.097c0.078,0.004,0.157,0.01,0.235,0.015c2.373,0.147,4.734,0.444,7.069,0.888     c0.075,0.014,0.151,0.026,0.226,0.041c1.11,0.216,2.213,0.469,3.309,0.751c0.176,0.045,0.35,0.094,0.526,0.141     c1.089,0.291,2.173,0.607,3.243,0.964c0.393,0.131,0.795,0.223,1.2,0.296c0.098,0.017,0.195,0.034,0.292,0.048     c0.399,0.058,0.799,0.095,1.2,0.097c0.011,0,0.022,0.002,0.032,0.002c0.067,0,0.131-0.011,0.198-0.013     c0.258-0.005,0.515-0.02,0.771-0.049c0.119-0.014,0.237-0.034,0.356-0.053c0.218-0.034,0.435-0.075,0.65-0.126     c0.12-0.029,0.241-0.059,0.36-0.092c0.223-0.063,0.442-0.138,0.66-0.218c0.101-0.038,0.204-0.071,0.304-0.113     c0.314-0.131,0.622-0.275,0.921-0.444c0.794-0.447,1.503-1.013,2.108-1.669c1.007-1.095,1.724-2.446,2.06-3.927     c0.024-0.108,0.054-0.213,0.078-0.32c0.271-1.183,0.563-2.354,0.874-3.517c0.177-0.661,0.37-1.314,0.56-1.969     c0.16-0.556,0.319-1.11,0.489-1.661c0.279-0.904,0.572-1.804,0.876-2.697c0.068-0.202,0.137-0.403,0.206-0.605     c11.485-33.001,39.693-57.962,74.459-64.95c0.19-0.039,0.376-0.089,0.562-0.139c6.224-1.198,12.639-1.841,19.196-1.841     c1.013,0,2.021,0.029,3.029,0.059c0.835,0.029,1.712,0.069,2.674,0.122c0.04,0.002,0.078,0.001,0.118,0.003     c19.088,1.091,37.222,7.525,52.756,18.808c3.844,2.792,9.22,1.938,12.012-1.904c2.792-3.842,1.939-9.22-1.904-12.012     c-16.172-11.748-34.742-19.022-54.361-21.406c-0.683-7.526-2.051-14.95-4.098-22.153c-7.232-25.464-22.947-48.261-44.252-64.192     c-21.148-15.817-46.323-24.177-72.805-24.177c-26.481,0-51.656,8.36-72.805,24.176c-21.305,15.931-37.021,38.728-44.252,64.192     c-3.065,10.786-4.618,21.992-4.618,33.305c0,1.101,0.017,2.201,0.046,3.281c0.005,0.248,0.016,0.5,0.026,0.749l0.014,0.35     c0.026,0.733,0.053,1.464,0.094,2.208c0.02,0.368,0.044,0.735,0.068,1.102l0.023,0.331c0.04,0.605,0.078,1.212,0.127,1.801     c0.031,0.395,0.068,0.786,0.104,1.179l0.015,0.154c0.056,0.636,0.116,1.272,0.185,1.911l0.157,1.386     c0.072,0.61,0.148,1.218,0.232,1.85c0.062,0.456,0.126,0.908,0.191,1.361c0.088,0.601,0.181,1.201,0.282,1.834l0.226,1.364     c0.106,0.603,0.216,1.208,0.33,1.807l0.042,0.221c0.069,0.369,0.14,0.735,0.21,1.09c0.112,0.568,0.234,1.135,0.356,1.701     l0.107,0.502c0.068,0.314,0.135,0.629,0.207,0.947c0.151,0.653,0.309,1.306,0.463,1.929l0.277,1.14     c0.202,0.789,0.415,1.572,0.638,2.376l0.186,0.685c0.287,1.009,0.585,2.01,0.89,2.99c0.068,0.217,0.139,0.433,0.209,0.649     l0.068,0.207c0.233,0.729,0.467,1.453,0.699,2.132c0.095,0.279,0.194,0.557,0.291,0.833l0.164,0.463     c0.197,0.558,0.392,1.115,0.596,1.664c0.107,0.291,0.218,0.581,0.33,0.872l0.138,0.359c0.216,0.564,0.432,1.128,0.659,1.697     c0.17,0.424,0.343,0.842,0.507,1.235c0.231,0.561,0.467,1.129,0.685,1.631c0.157,0.366,0.316,0.729,0.475,1.092l0.084,0.189     c0.241,0.54,0.481,1.079,0.713,1.58c0.189,0.412,0.381,0.822,0.594,1.273c0.247,0.517,0.498,1.033,0.774,1.596l0.589,1.183     c0.27,0.532,0.545,1.061,0.826,1.594l0.145,0.275c0.155,0.295,0.309,0.59,0.458,0.864c0.297,0.552,0.602,1.099,0.913,1.657     l0.157,0.281c0.144,0.261,0.29,0.521,0.428,0.763c0.357,0.625,0.724,1.243,1.073,1.828l0.501,0.847     c0.532,0.874,1.073,1.747,1.625,2.607l0.227,0.343c0.478,0.744,0.965,1.484,1.477,2.239l0.694,1.003     c0.348,0.503,0.698,1.006,1.052,1.504c0.174,0.243,0.35,0.483,0.528,0.725l0.189,0.257c0.372,0.511,0.746,1.021,1.1,1.487     c0.266,0.355,0.536,0.706,0.798,1.043c0.36,0.467,0.72,0.932,1.107,1.421c0.241,0.302,0.482,0.601,0.726,0.901l0.083,0.102     c0.376,0.463,0.756,0.924,1.127,1.367c0.281,0.336,0.564,0.672,0.852,1.008c0.396,0.462,0.793,0.921,1.154,1.328     c0.296,0.338,0.593,0.675,0.846,0.955c0.418,0.468,0.844,0.929,1.24,1.357c0.296,0.322,0.592,0.643,0.855,0.917     c0.448,0.475,0.905,0.948,1.336,1.388l0.199,0.205c0.204,0.211,0.408,0.421,0.607,0.621c0.505,0.51,1.018,1.008,1.579,1.553     l0.61,0.593c0.702,0.672,1.411,1.336,2.13,1.992c0.038,0.035,0.075,0.07,0.114,0.106c0.741,0.673,1.49,1.336,2.248,1.992     c0.099,0.088,0.201,0.176,0.291,0.25c0.01,0.009,0.019,0.016,0.029,0.024c1.152,0.99,2.346,1.962,3.558,2.922     c-0.245,0.291-0.504,0.567-0.745,0.861c-5.585-1.064-11.271-1.603-16.975-1.603C40.429,304.896,0,345.325,0,395.02     c0,49.697,40.429,90.127,90.123,90.127h294.872c4.749,0,8.6-3.851,8.6-8.6S389.745,467.947,384.995,467.947z M225.097,218.335     c-0.117,0.078-0.235,0.157-0.353,0.237c-0.128,0.087-0.255,0.175-0.382,0.262c-1.155,0.791-2.297,1.599-3.422,2.43     c-0.051,0.038-0.102,0.073-0.153,0.111c-1.32,0.978-2.618,1.983-3.894,3.014c-0.004,0.003-0.009,0.006-0.012,0.01     c-0.013,0.01-0.025,0.021-0.037,0.031c-1.093,0.885-2.167,1.791-3.227,2.713c-0.055,0.047-0.109,0.096-0.162,0.143     c-16.129,14.093-28.359,32.552-34.841,53.609c-1.189-0.24-2.384-0.448-3.584-0.629c-3.604-0.541-7.252-0.813-10.92-0.813     c-1.004,0-2.007,0.021-3.006,0.062c-0.186,0.008-0.371,0.024-0.557,0.033c-0.05,0.002-0.1,0.006-0.149,0.009     c-0.327,0.017-0.651,0.038-0.977,0.059c-0.441,0.028-0.883,0.048-1.322,0.084c-0.231,0.019-0.46,0.048-0.691,0.069     c-0.363,0.033-0.727,0.07-1.089,0.109c-0.206,0.023-0.414,0.039-0.619,0.062c-0.191,0.023-0.384,0.042-0.575,0.066     c-0.314,0.039-0.627,0.089-0.94,0.132c-0.665,0.09-1.332,0.181-1.994,0.289c-0.062,0.01-0.126,0.017-0.188,0.027     c-0.617-0.281-1.236-0.573-1.881-0.885l-0.547-0.269c-0.725-0.358-1.443-0.728-2.178-1.121l-0.289-0.149     c-0.804-0.436-1.599-0.889-2.368-1.338l-0.557-0.334c-0.68-0.409-1.355-0.826-2.022-1.251c-0.118-0.077-0.237-0.152-0.344-0.217     c-0.761-0.496-1.513-1.006-2.239-1.515L139.056,273c-0.644-0.459-1.281-0.926-1.886-1.385l-0.367-0.275     c-0.716-0.552-1.42-1.116-2.086-1.665l-0.508-0.428c-0.598-0.501-1.187-1.009-1.771-1.532l-0.345-0.306     c-0.667-0.602-1.319-1.216-1.989-1.864l-0.406-0.4c-0.554-0.545-1.099-1.098-1.599-1.621l-0.376-0.389     c-0.613-0.649-1.216-1.311-1.852-2.035l-0.624-0.72c-0.06-0.068-0.119-0.137-0.18-0.204c-0.096-0.127-0.193-0.25-0.295-0.373     c-5.07-6.029-9.158-12.739-12.151-19.944c-0.042-0.102-0.088-0.205-0.138-0.311c-0.273-0.668-0.534-1.339-0.786-2.004     l-0.213-0.587c-0.256-0.695-0.502-1.398-0.74-2.105l-0.245-0.734c-0.286-0.883-0.562-1.771-0.819-2.674     c-0.865-3.044-1.548-6.181-2.029-9.316c-0.108-0.707-0.202-1.418-0.291-2.136c-0.07-0.563-0.136-1.132-0.196-1.714     c-0.263-2.589-0.397-5.233-0.397-7.86c0-0.891,0.023-1.776,0.048-2.6l0.026-0.697c0.038-0.874,0.083-1.744,0.151-2.622     c0.067-0.869,0.153-1.73,0.243-2.554l0.078-0.68c0.198-1.679,0.459-3.387,0.78-5.102c0.031-0.173,0.063-0.345,0.116-0.608     c0.317-1.622,0.701-3.292,1.131-4.912l0.174-0.638c0.448-1.629,0.952-3.248,1.518-4.874l0.184-0.521     c0.56-1.571,1.178-3.138,1.852-4.693l0.228-0.52c0.67-1.517,1.398-3.026,2.167-4.498l0.274-0.52     c0.777-1.457,1.61-2.908,2.442-4.255l0.35-0.557c0.924-1.47,1.904-2.915,2.913-4.301c3.044-4.183,6.524-8.073,10.346-11.564     c0.037-0.033,0.073-0.068,0.111-0.102l1.303-1.156l5.614-4.44c0.225-0.162,0.449-0.324,0.734-0.519l0.126-0.088     c0.186-0.13,0.372-0.261,0.584-0.405c0.246-0.168,0.495-0.335,0.793-0.533c0.243-0.162,0.487-0.324,0.707-0.469     c0.241-0.156,0.484-0.313,0.813-0.518c0.214-0.138,0.43-0.271,0.646-0.403c0.011-0.008,0.084-0.052,0.095-0.059     c0.245-0.153,0.488-0.302,0.733-0.45l1.558-0.913c0.249-0.142,0.5-0.282,0.833-0.464c0.257-0.144,0.514-0.287,0.715-0.396     l1.63-0.854c0.227-0.115,0.457-0.228,0.686-0.34l0.099-0.048c0.029-0.015,0.059-0.029,0.088-0.044l3.464-1.603     c0.263-0.114,0.526-0.229,0.79-0.339c0.484-0.202,0.969-0.403,1.433-0.587l0.976-0.372c0.245-0.095,0.489-0.19,0.723-0.276     l4.333-1.444c0.318-0.098,0.636-0.192,0.883-0.264l0.856-0.239c0.314-0.087,0.629-0.172,0.944-0.255     c0.261-0.068,0.522-0.135,0.877-0.223c0.305-0.077,0.611-0.152,0.89-0.217l0.873-0.2c0.321-0.072,0.644-0.143,0.972-0.212     c0.282-0.06,0.563-0.117,0.793-0.163l1.861-0.345c0.336-0.058,0.673-0.113,1.064-0.176c0.257-0.042,0.514-0.084,0.784-0.123     c0.34-0.049,0.683-0.098,1.019-0.143l0.875-0.115c0.324-0.04,0.645-0.074,1.066-0.119c0.272-0.03,0.544-0.062,0.768-0.085     l1.929-0.166c0.29-0.023,0.578-0.039,0.868-0.056l2.935-0.132c1.255-0.031,2.592-0.03,3.851-0.001l2.958,0.133     c0.288,0.017,0.575,0.033,0.857,0.055l1.887,0.161c0.273,0.028,0.545,0.06,0.913,0.101c0.324,0.033,0.646,0.069,1.021,0.115     l0.82,0.109c0.342,0.046,0.686,0.095,1.024,0.144c0.262,0.038,0.526,0.08,0.839,0.132c0.336,0.054,0.673,0.11,1.001,0.164     l1.829,0.34c0.283,0.056,0.56,0.113,0.837,0.171c0.324,0.069,0.647,0.14,0.957,0.209l0.864,0.198     c0.304,0.072,0.608,0.146,1.007,0.246c0.26,0.063,0.521,0.13,0.775,0.197c0.316,0.084,0.632,0.169,0.886,0.24l0.863,0.24     c0.313,0.091,0.625,0.184,0.962,0.288l4.302,1.433c0.239,0.087,0.474,0.18,0.712,0.271l0.981,0.374     c0.487,0.194,0.971,0.393,1.451,0.594c0.264,0.111,0.527,0.225,0.781,0.335l3.383,1.562c0.048,0.024,0.097,0.049,0.145,0.072     l0.131,0.066c0.229,0.112,0.459,0.225,0.662,0.329l1.595,0.834c0.262,0.142,0.521,0.287,0.855,0.472     c0.243,0.132,0.485,0.267,0.74,0.412l1.544,0.903c0.254,0.154,0.506,0.309,0.759,0.467c0.011,0.008,0.084,0.052,0.095,0.059     c0.215,0.132,0.431,0.266,0.731,0.457l0.705,0.45c0.243,0.159,0.487,0.32,0.78,0.516c0.248,0.164,0.497,0.332,0.766,0.515     c0.189,0.128,0.375,0.259,0.56,0.389l0.157,0.111c0.239,0.166,0.476,0.335,0.749,0.531c0.224,0.159,0.447,0.324,0.642,0.468     l4.614,3.674c0.023,0.019,0.094,0.08,0.116,0.098l1.525,1.349c0.027,0.025,0.055,0.051,0.082,0.075     c3.818,3.488,7.299,7.38,10.347,11.566c1.008,1.384,1.988,2.829,2.954,4.365l0.273,0.433c0.869,1.405,1.702,2.855,2.457,4.274     l0.298,0.563c0.772,1.476,1.5,2.987,2.163,4.488l0.244,0.561c0.659,1.52,1.277,3.087,1.845,4.678l0.198,0.558     c0.55,1.586,1.053,3.205,1.514,4.879l0.146,0.536c0.438,1.646,0.822,3.312,1.16,5.045c0.032,0.157,0.063,0.318,0.103,0.536     c0.317,1.693,0.578,3.402,0.783,5.13l0.068,0.589c0.019,0.174,0.038,0.349,0.057,0.523     C247.366,205.81,235.626,211.242,225.097,218.335z M107.623,282.155c-0.224-0.235-0.444-0.473-0.694-0.745     c-0.349-0.377-0.7-0.755-1.093-1.194c-0.23-0.254-0.456-0.51-0.724-0.817c-0.338-0.381-0.671-0.764-0.998-1.146     c-0.238-0.277-0.473-0.556-0.718-0.849c-0.329-0.391-0.654-0.79-0.977-1.187l-0.687-0.85c-0.328-0.414-0.649-0.829-0.99-1.272     c-0.211-0.272-0.424-0.546-0.659-0.861c-0.318-0.419-0.628-0.844-0.94-1.272l-0.607-0.831c-0.311-0.435-0.615-0.874-0.919-1.314     l-0.593-0.855c-0.425-0.629-0.842-1.263-1.244-1.887l-0.219-0.333c-0.478-0.745-0.946-1.499-1.391-2.231l-0.427-0.723     c-0.311-0.52-0.62-1.041-0.931-1.586l-0.49-0.877c-0.264-0.475-0.53-0.95-0.798-1.448l-0.513-0.97     c-0.242-0.46-0.481-0.921-0.708-1.367l-0.504-1.012c-0.231-0.471-0.46-0.943-0.665-1.374c-0.167-0.352-0.332-0.705-0.508-1.09     c-0.211-0.455-0.416-0.915-0.605-1.339l-0.07-0.159c-0.133-0.303-0.268-0.606-0.422-0.967c-0.197-0.45-0.385-0.908-0.585-1.393     c-0.145-0.348-0.289-0.694-0.426-1.036c-0.196-0.491-0.384-0.983-0.565-1.458l-0.401-1.052c-0.173-0.47-0.339-0.942-0.505-1.415     l-0.403-1.143c-0.206-0.6-0.4-1.202-0.602-1.834l-0.229-0.707c-0.268-0.858-0.523-1.718-0.771-2.585l-0.159-0.588     c-0.186-0.673-0.37-1.344-0.535-1.993l-0.246-1.018c-0.137-0.556-0.274-1.112-0.4-1.665l-0.267-1.229     c-0.102-0.472-0.203-0.946-0.3-1.43l-0.224-1.169c-0.098-0.515-0.193-1.035-0.281-1.539l-0.193-1.165     c-0.083-0.522-0.164-1.048-0.241-1.57l-0.167-1.187c-0.07-0.528-0.135-1.058-0.196-1.559l-0.138-1.205     c-0.057-0.529-0.107-1.061-0.157-1.631l-0.018-0.199c-0.029-0.317-0.06-0.633-0.086-0.963c-0.041-0.511-0.074-1.023-0.107-1.537     l-0.081-1.261c-0.033-0.625-0.056-1.25-0.077-1.866l-0.035-0.945c-0.025-0.942-0.04-1.888-0.04-2.836     c0-9.725,1.333-19.348,3.964-28.605c6.207-21.858,19.705-41.432,38.007-55.117c18.153-13.575,39.766-20.751,62.504-20.751     s44.353,7.176,62.504,20.752c18.302,13.685,31.8,33.259,38.007,55.117c1.538,5.415,2.633,10.978,3.274,16.623     c-0.339,0.009-0.676,0.035-1.015,0.047c-0.764,0.027-1.526,0.066-2.29,0.107c-0.868,0.047-1.733,0.101-2.598,0.168     c-0.764,0.059-1.528,0.129-2.291,0.202c-0.755,0.073-1.509,0.148-2.262,0.236c-0.243-2.046-0.56-4.125-0.935-6.124     c-0.055-0.305-0.112-0.606-0.157-0.814c-0.392-2.018-0.864-4.062-1.402-6.082c-0.071-0.269-0.143-0.534-0.2-0.734     c-0.543-1.975-1.16-3.961-1.828-5.883l-0.258-0.732c-0.688-1.926-1.446-3.851-2.24-5.682l-0.306-0.705     c-0.816-1.847-1.708-3.698-2.65-5.501l-0.346-0.655c-0.947-1.778-1.966-3.551-3.063-5.323l-0.353-0.56     c-1.131-1.797-2.331-3.568-3.564-5.263c-3.712-5.098-7.952-9.841-12.602-14.096c-0.001,0-0.003-0.002-0.003-0.002     c-0.053-0.051-0.106-0.1-0.16-0.149l-0.921-0.82c-0.226-0.202-0.453-0.404-0.63-0.558c-0.159-0.141-0.321-0.278-0.475-0.407     l-2.937-2.428c-0.289-0.228-0.578-0.452-0.876-0.682l-1.76-1.328c-0.296-0.218-0.592-0.435-0.852-0.62     c-0.316-0.228-0.634-0.454-0.92-0.651l-0.118-0.083c-0.264-0.186-0.528-0.371-0.774-0.536c-0.314-0.214-0.627-0.426-0.892-0.601     c-0.301-0.202-0.605-0.403-0.957-0.632l-0.141-0.091c-0.27-0.174-0.542-0.348-0.728-0.464c-0.301-0.195-0.605-0.381-0.935-0.585     c-0.32-0.2-0.64-0.397-1.034-0.634l-1.826-1.068c-0.338-0.195-0.679-0.383-0.949-0.53c-0.325-0.182-0.647-0.36-1.017-0.561     l-1.935-1.013c-0.299-0.153-0.602-0.3-0.903-0.448l-0.026-0.013c-0.04-0.022-0.081-0.041-0.122-0.061l-2.194-1.05     c-0.248-0.116-0.498-0.233-0.77-0.355l-1.277-0.559c-0.332-0.144-0.664-0.288-1.003-0.429c-0.582-0.243-1.162-0.483-1.752-0.716     c-0.226-0.09-0.455-0.176-0.683-0.261l-0.419-0.159c-0.33-0.128-0.659-0.255-1.003-0.381c-0.287-0.105-0.575-0.205-0.863-0.306     l-0.401-0.142c-0.273-0.099-0.547-0.197-0.795-0.282c-0.159-0.055-0.32-0.107-0.482-0.159l-0.439-0.145     c-0.042-0.014-0.084-0.028-0.127-0.042l-1.051-0.342c-0.048-0.016-0.098-0.03-0.148-0.046l-0.874-0.264     c-0.385-0.118-0.771-0.232-1.209-0.361l-1.002-0.278c-0.384-0.107-0.77-0.211-1.163-0.314c-0.362-0.096-0.725-0.188-0.991-0.252     c-0.404-0.104-0.81-0.202-1.226-0.3l-1.029-0.235c-0.388-0.088-0.779-0.173-1.174-0.256c-0.355-0.075-0.708-0.148-1.1-0.226     l-1.611-0.303c-0.043-0.008-0.086-0.016-0.129-0.023l-0.475-0.084c-0.4-0.068-0.799-0.134-1.148-0.19     c-0.372-0.061-0.742-0.119-1.113-0.174c-0.407-0.06-0.818-0.116-1.225-0.171l-1.015-0.133c-0.447-0.056-0.893-0.105-1.246-0.142     c-0.349-0.04-0.699-0.08-1.098-0.119l-2.268-0.196c-0.38-0.028-0.761-0.052-1.142-0.073l-1.215-0.073     c-0.277-0.013-0.558-0.023-0.837-0.031l-0.625-0.023c-0.042-0.002-0.083-0.003-0.125-0.004l-0.741-0.026     c-1.523-0.034-3.092-0.038-4.711,0.001l-0.72,0.025c-0.042,0.001-0.083,0.002-0.125,0.004l-0.625,0.023     c-0.279,0.01-0.558,0.019-0.876,0.033l-1.173,0.071c-0.381,0.023-0.762,0.045-1.149,0.074l-2.312,0.2     c-0.349,0.034-0.699,0.074-0.952,0.104c-0.448,0.046-0.893,0.096-1.295,0.146l-1.06,0.14c-0.41,0.055-0.819,0.112-1.215,0.169     c-0.379,0.056-0.754,0.114-1.075,0.168c-0.4,0.065-0.799,0.13-1.208,0.201l-2.254,0.418c-0.353,0.07-0.705,0.143-1.051,0.216     c-0.393,0.083-0.785,0.168-1.189,0.258l-1.031,0.237c-0.403,0.096-0.807,0.195-1.115,0.273c-0.361,0.088-0.723,0.181-1.088,0.276     c-0.386,0.102-0.771,0.205-1.229,0.332l-1,0.279c-0.38,0.112-0.758,0.224-1.117,0.334l-0.909,0.275     c-0.042,0.014-0.084,0.026-0.126,0.04l-1.051,0.342c-0.047,0.015-0.095,0.03-0.142,0.046l-0.905,0.299     c-0.267,0.091-0.534,0.187-0.802,0.283l-0.411,0.146c-0.288,0.101-0.576,0.202-0.874,0.311c-0.342,0.126-0.684,0.257-1.023,0.389     l-0.37,0.141c-0.23,0.086-0.461,0.173-0.712,0.272c-0.583,0.231-1.164,0.471-1.745,0.714c-0.333,0.14-0.665,0.284-1.008,0.431     l-1.277,0.56c-0.257,0.115-0.514,0.234-0.769,0.354l-1.178,0.55c-0.038,0.018-0.075,0.035-0.112,0.054l-0.846,0.419     c-0.046,0.023-0.09,0.044-0.135,0.067c-0.003,0.002-0.01,0.005-0.01,0.005l-0.052,0.025c-0.301,0.148-0.604,0.296-0.926,0.46     l-1.957,1.026c-0.33,0.18-0.657,0.36-0.901,0.498c-0.333,0.183-0.664,0.367-1.02,0.569l-1.815,1.061     c-0.031,0.019-0.063,0.038-0.095,0.057c-0.318,0.193-0.635,0.387-0.979,0.602c-0.302,0.187-0.605,0.374-0.822,0.514     c-0.318,0.2-0.637,0.405-1.002,0.642c-0.303,0.198-0.606,0.398-0.858,0.567c-0.316,0.209-0.629,0.42-0.919,0.618     c-0.269,0.182-0.532,0.367-0.797,0.553l-0.062,0.043c-0.333,0.23-0.662,0.464-0.943,0.667c-0.247,0.176-0.495,0.357-0.743,0.54     l-1.912,1.44c-0.289,0.224-0.578,0.447-0.892,0.694l-2.863,2.366c-0.166,0.14-0.332,0.281-0.473,0.404     c-0.229,0.199-0.456,0.4-0.682,0.603l-0.909,0.807c-0.066,0.06-0.13,0.119-0.195,0.181c-0.013,0.012-0.023,0.023-0.031,0.029     c-0.005,0.005-0.01,0.01-0.014,0.014c-4.629,4.242-8.846,8.964-12.538,14.035c-1.234,1.695-2.435,3.467-3.542,5.227l-0.412,0.654     c-1.06,1.716-2.08,3.487-3.048,5.305l-0.32,0.607c-0.938,1.795-1.832,3.65-2.65,5.5l-0.297,0.679     c-0.81,1.867-1.567,3.792-2.255,5.719c-0.091,0.255-0.182,0.51-0.248,0.705c-0.67,1.924-1.287,3.911-1.829,5.879l-0.212,0.776     c-0.539,2.035-1.008,4.076-1.379,5.977c-0.059,0.288-0.113,0.577-0.163,0.849c-0.388,2.074-0.708,4.17-0.946,6.182l-0.096,0.829     c-0.115,1.05-0.218,2.103-0.299,3.157c-0.082,1.062-0.138,2.125-0.186,3.231l-0.03,0.787c-0.034,1.069-0.059,2.136-0.059,3.214     c0,3.205,0.162,6.435,0.484,9.589c0.071,0.706,0.154,1.411,0.241,2.109c0.109,0.872,0.225,1.739,0.357,2.608     c0.589,3.846,1.425,7.69,2.485,11.418c0.312,1.101,0.649,2.191,1.012,3.307l0.291,0.876c0.29,0.865,0.592,1.725,0.914,2.598     l0.25,0.689c0.355,0.938,0.72,1.87,1.104,2.796c0.046,0.112,0.097,0.226,0.151,0.34c3.6,8.581,8.464,16.58,14.464,23.783     c0.108,0.146,0.219,0.289,0.336,0.427c0.212,0.253,0.429,0.502,0.646,0.749l0.316,0.364c0.139,0.16,0.276,0.321,0.371,0.426     c0.727,0.828,1.465,1.639,2.223,2.442l0.415,0.43c0.656,0.686,1.323,1.363,2.013,2.04l0.515,0.507     c0.789,0.765,1.592,1.52,2.419,2.265l0.405,0.36c0.716,0.64,1.444,1.268,2.158,1.866l0.596,0.501     c0.846,0.698,1.704,1.385,2.589,2.066l0.404,0.304c0.769,0.585,1.547,1.156,2.332,1.716l0.639,0.455     c0.146,0.102,0.298,0.204,0.445,0.306c-0.399,0.207-0.793,0.426-1.188,0.642c-0.025,0.013-0.048,0.026-0.073,0.04     c-2.311,1.261-4.559,2.648-6.734,4.159c-0.096,0.067-0.19,0.134-0.285,0.201c-0.44,0.309-0.884,0.61-1.317,0.929     c-1.797-1.354-3.527-2.749-5.178-4.173c-0.023-0.02-0.046-0.04-0.07-0.06c-0.001-0.001-0.001-0.001-0.002-0.002     c-0.644-0.556-1.28-1.117-1.91-1.688c-0.029-0.028-0.06-0.057-0.09-0.084c-0.649-0.592-1.291-1.19-1.953-1.824l-0.522-0.51     c-0.445-0.433-0.889-0.866-1.334-1.314l-0.691-0.711C108.41,282.977,108.033,282.589,107.623,282.155z"/>
			<path d="M422.816,306.781c-5.272,0-10.506,0.461-15.655,1.374c-1.511-24.244-10.588-47.627-25.938-66.512     c-2.996-3.686-8.413-4.243-12.098-1.249c-3.686,2.996-4.245,8.412-1.249,12.098c14.387,17.7,22.31,40.033,22.31,62.889     c0,0.886-0.032,1.765-0.063,2.64l-0.026,0.755c-0.09,2.785,1.173,5.442,3.391,7.128c2.219,1.686,5.117,2.193,7.774,1.361     c6.957-2.179,14.209-3.284,21.555-3.284c39.693,0,71.984,32.291,71.984,71.984c0,39.69-32.291,71.982-71.984,71.982h-6.186     c-4.749,0-8.6,3.851-8.6,8.6s3.851,8.6,8.6,8.6h6.186c49.176,0,89.184-40.006,89.184-89.182     C512,346.789,471.994,306.781,422.816,306.781z"/>
		</g>
	</g>
</g>
<g>
</g>
<g>
</g>
<g>
</g>
<g>
</g>
<g>
</g>
<g>
</g>
<g>
</g>
<g>
</g>
<g>
</g>
<g>
</g>
<g>
</g>
<g>
</g>
<g>
</g>
<g>
</g>
<g>
</g>
</svg>
