<?xml version="1.0" encoding="iso-8859-1"?>
<!-- Generator: Adobe Illustrator 19.0.0, SVG Export Plug-In . SVG Version: 6.00 Build 0)  -->
<svg xmlns="http://www.w3.org/2000/svg" xmlns:xlink="http://www.w3.org/1999/xlink" version="1.1" id="Layer_1" x="0px" y="0px" viewBox="0 0 512 512" style="enable-background:new 0 0 512 512;" xml:space="preserve">
<g>
	<g>
		<g>
			<path d="M384.995,293.462c4.749,0,8.6-3.851,8.6-8.6s-3.851-8.6-8.6-8.6H90.123c-40.21,0-72.923-32.714-72.923-72.926     c0-40.211,32.714-72.924,72.923-72.924c6.198,0,12.371,0.784,18.348,2.33c3.492,0.903,7.171-0.467,9.222-3.428     c10.561-15.244,27.913-24.345,46.416-24.345c6.088,0,12.101,0.977,17.874,2.906c2.303,0.769,4.828,0.529,6.946-0.664     c2.118-1.192,3.631-3.226,4.167-5.596c10.339-45.749,50.352-77.701,97.303-77.701c21.214,0,41.471,6.567,58.576,18.993     c3.844,2.792,9.22,1.938,12.012-1.904s1.939-9.22-1.904-12.012C339.021,14.415,315.271,6.712,290.4,6.712     c-26.697,0-52.806,9.234-73.518,26.001c-18.075,14.632-31.444,34.452-38.261,56.498c-4.768-0.959-9.621-1.443-14.512-1.443     c-22.175,0-43.078,10.012-57.011,27.046c-5.585-1.064-11.271-1.603-16.975-1.603C40.429,113.212,0,153.641,0,203.335     c0,49.697,40.429,90.127,90.123,90.127H384.995z"/>
			<path d="M422.816,115.096c-5.272,0-10.506,0.461-15.655,1.374c-1.511-24.244-10.588-47.627-25.938-66.512     c-2.996-3.686-8.413-4.243-12.098-1.249c-3.686,2.996-4.245,8.412-1.249,12.098c14.387,17.7,22.31,40.033,22.31,62.889     c0,0.886-0.032,1.765-0.063,2.64l-0.026,0.755c-0.09,2.785,1.173,5.442,3.391,7.128c2.218,1.686,5.116,2.193,7.774,1.361     c6.957-2.179,14.209-3.284,21.555-3.284c39.693,0,71.984,32.291,71.984,71.984c0,39.69-32.291,71.982-71.984,71.982h-6.186     c-4.749,0-8.6,3.851-8.6,8.6s3.851,8.6,8.6,8.6h6.186c49.176,0,89.184-40.006,89.184-89.182     C512,155.104,471.994,115.096,422.816,115.096z"/>
			<path d="M128.485,458.031h-9.298l6.575-6.575c3.358-3.359,3.358-8.804,0-12.163c-3.359-3.357-8.803-3.357-12.163,0l-6.573,6.573     v-9.294c0-4.749-3.851-8.6-8.6-8.6s-8.6,3.851-8.6,8.6v9.296l-6.574-6.574c-3.358-3.356-8.802-3.357-12.163,0     c-3.358,3.358-3.358,8.803,0,12.163l6.575,6.575h-9.297c-4.749,0-8.6,3.851-8.6,8.6s3.851,8.6,8.6,8.6h9.295l-6.573,6.573     c-3.358,3.359-3.358,8.804,0,12.163c1.68,1.679,3.88,2.519,6.081,2.519c2.202,0,4.402-0.84,6.081-2.519l6.574-6.574v9.296     c0,4.749,3.851,8.6,8.6,8.6s8.6-3.851,8.6-8.6v-9.295l6.573,6.573c1.68,1.679,3.88,2.519,6.081,2.519     c2.201,0,4.402-0.84,6.081-2.519c3.358-3.358,3.358-8.803,0-12.163l-6.573-6.573h9.296c4.749,0,8.6-3.851,8.6-8.6     S133.234,458.031,128.485,458.031z"/>
			<path d="M128.485,349.013h-9.298l6.575-6.575c3.358-3.359,3.358-8.804,0-12.163c-3.359-3.357-8.803-3.357-12.163,0l-6.573,6.573     v-9.295c0-4.749-3.851-8.6-8.6-8.6s-8.6,3.851-8.6,8.6v9.296l-6.574-6.574c-3.358-3.356-8.802-3.357-12.163,0     c-3.358,3.358-3.358,8.803,0,12.163l6.575,6.575h-9.297c-4.749,0-8.6,3.851-8.6,8.6s3.851,8.6,8.6,8.6h9.295l-6.573,6.573     c-3.358,3.359-3.358,8.804,0,12.163c1.68,1.679,3.88,2.519,6.081,2.519c2.202,0,4.402-0.84,6.081-2.519l6.574-6.574v9.296     c0,4.749,3.851,8.6,8.6,8.6s8.6-3.851,8.6-8.6v-9.294l6.573,6.573c1.68,1.679,3.88,2.519,6.081,2.519     c2.201,0,4.402-0.84,6.081-2.519c3.358-3.358,3.358-8.803,0-12.163l-6.573-6.573h9.296c4.749,0,8.6-3.851,8.6-8.6     S133.234,349.013,128.485,349.013z"/>
			<path d="M286.8,458.031h-9.3l6.576-6.576c3.358-3.358,3.358-8.803-0.001-12.162c-3.357-3.357-8.802-3.358-12.162,0.001     l-6.573,6.574v-9.297c0-4.749-3.851-8.6-8.6-8.6s-8.6,3.851-8.6,8.6v9.297l-6.573-6.574c-3.358-3.358-8.803-3.358-12.162-0.001     c-3.359,3.358-3.359,8.803-0.001,12.162l6.576,6.576h-9.298c-4.749,0-8.6,3.851-8.6,8.6s3.851,8.6,8.6,8.6h9.296l-6.574,6.574     c-3.358,3.358-3.358,8.803,0.001,12.162c1.679,1.679,3.879,2.519,6.08,2.519c2.202,0,4.402-0.84,6.081-2.52l6.573-6.574v9.297     c0,4.749,3.851,8.6,8.6,8.6s8.6-3.851,8.6-8.6v-9.297l6.573,6.574c1.68,1.68,3.88,2.52,6.081,2.52c2.201,0,4.402-0.84,6.08-2.519     c3.359-3.358,3.359-8.803,0.001-12.162l-6.574-6.574h9.298c4.749,0,8.6-3.851,8.6-8.6S291.549,458.031,286.8,458.031z"/>
			<path d="M286.8,349.013h-9.3l6.576-6.576c3.358-3.358,3.358-8.803-0.001-12.162c-3.357-3.357-8.802-3.358-12.162,0.001     l-6.573,6.574v-9.297c0-4.749-3.851-8.6-8.6-8.6s-8.6,3.851-8.6,8.6v9.297l-6.573-6.574c-3.358-3.358-8.803-3.358-12.162-0.001     c-3.359,3.358-3.359,8.803-0.001,12.162l6.576,6.576h-9.298c-4.749,0-8.6,3.851-8.6,8.6s3.851,8.6,8.6,8.6h9.296l-6.574,6.574     c-3.358,3.358-3.358,8.803,0.001,12.162c1.679,1.679,3.879,2.519,6.08,2.519c2.202,0,4.402-0.84,6.081-2.52l6.573-6.574v9.297     c0,4.749,3.851,8.6,8.6,8.6s8.6-3.851,8.6-8.6v-9.297l6.573,6.574c1.68,1.68,3.88,2.52,6.081,2.52c2.201,0,4.402-0.84,6.08-2.519     c3.359-3.358,3.359-8.803,0.001-12.162l-6.574-6.574h9.298c4.749,0,8.6-3.851,8.6-8.6S291.549,349.013,286.8,349.013z"/>
			<path d="M445.114,458.031h-9.298l6.575-6.575c3.358-3.359,3.358-8.804,0-12.163c-3.359-3.357-8.803-3.357-12.163,0l-6.573,6.573     v-9.294c0-4.749-3.851-8.6-8.6-8.6s-8.6,3.851-8.6,8.6v9.296l-6.574-6.574c-3.357-3.356-8.802-3.357-12.163,0     c-3.358,3.358-3.358,8.803,0,12.163l6.575,6.575h-9.297c-4.749,0-8.6,3.851-8.6,8.6s3.851,8.6,8.6,8.6h9.294l-6.573,6.573     c-3.358,3.359-3.358,8.804,0,12.163c1.68,1.679,3.88,2.519,6.081,2.519s4.402-0.84,6.081-2.519l6.574-6.574v9.296     c0,4.749,3.851,8.6,8.6,8.6s8.6-3.851,8.6-8.6v-9.295l6.573,6.573c1.68,1.679,3.88,2.519,6.081,2.519     c2.201,0,4.402-0.84,6.081-2.519c3.358-3.358,3.358-8.803,0-12.163l-6.573-6.573h9.296c4.749,0,8.6-3.851,8.6-8.6     S449.863,458.031,445.114,458.031z"/>
			<path d="M365.957,403.834h-9.298l6.575-6.575c3.358-3.359,3.358-8.804,0-12.163c-3.359-3.357-8.803-3.357-12.163,0l-6.573,6.573     v-9.294c0-4.749-3.851-8.6-8.6-8.6s-8.6,3.851-8.6,8.6v9.296l-6.574-6.574c-3.358-3.355-8.802-3.357-12.163,0     c-3.358,3.358-3.358,8.803,0,12.163l6.575,6.575h-9.297c-4.749,0-8.6,3.851-8.6,8.6s3.851,8.6,8.6,8.6h9.294l-6.573,6.573     c-3.358,3.359-3.358,8.804,0,12.163c1.68,1.679,3.88,2.519,6.081,2.519s4.402-0.84,6.081-2.519l6.574-6.575v9.297     c0,4.749,3.851,8.6,8.6,8.6s8.6-3.851,8.6-8.6v-9.295l6.573,6.573c1.68,1.679,3.88,2.519,6.081,2.519     c2.201,0,4.402-0.84,6.081-2.519c3.358-3.358,3.358-8.803,0-12.163l-6.573-6.573h9.296c4.749,0,8.6-3.851,8.6-8.6     S370.706,403.834,365.957,403.834z"/>
			<path d="M207.641,403.834h-9.298l6.575-6.575c3.358-3.359,3.358-8.804,0-12.163c-3.359-3.357-8.803-3.357-12.163,0l-6.573,6.573     v-9.294c0-4.749-3.851-8.6-8.6-8.6s-8.6,3.851-8.6,8.6v9.296l-6.574-6.574c-3.358-3.355-8.802-3.357-12.163,0     c-3.358,3.358-3.358,8.803,0,12.163l6.575,6.575h-9.297c-4.749,0-8.6,3.851-8.6,8.6s3.851,8.6,8.6,8.6h9.294l-6.573,6.573     c-3.358,3.359-3.358,8.804,0,12.163c1.68,1.679,3.88,2.519,6.081,2.519c2.202,0,4.402-0.84,6.081-2.519l6.574-6.574v9.296     c0,4.749,3.851,8.6,8.6,8.6s8.6-3.851,8.6-8.6v-9.295l6.573,6.573c1.68,1.679,3.88,2.519,6.081,2.519     c2.201,0,4.402-0.84,6.081-2.519c3.358-3.358,3.358-8.803,0-12.163l-6.573-6.573h9.296c4.749,0,8.6-3.851,8.6-8.6     S212.391,403.834,207.641,403.834z"/>
			<path d="M445.114,349.013h-9.298l6.575-6.575c3.358-3.359,3.358-8.804,0-12.163c-3.359-3.357-8.803-3.357-12.163,0l-6.573,6.573     v-9.295c0-4.749-3.851-8.6-8.6-8.6s-8.6,3.851-8.6,8.6v9.296l-6.574-6.574c-3.357-3.356-8.802-3.357-12.163,0     c-3.358,3.358-3.358,8.803,0,12.163l6.575,6.575h-9.297c-4.749,0-8.6,3.851-8.6,8.6s3.851,8.6,8.6,8.6h9.294l-6.573,6.573     c-3.358,3.359-3.358,8.804,0,12.163c1.68,1.679,3.88,2.519,6.081,2.519s4.402-0.84,6.081-2.519l6.574-6.574v9.296     c0,4.749,3.851,8.6,8.6,8.6s8.6-3.851,8.6-8.6v-9.294l6.573,6.573c1.68,1.679,3.88,2.519,6.081,2.519     c2.201,0,4.402-0.84,6.081-2.519c3.358-3.358,3.358-8.803,0-12.163l-6.573-6.573h9.296c4.749,0,8.6-3.851,8.6-8.6     S449.863,349.013,445.114,349.013z"/>
		</g>
	</g>
</g>
<g>
</g>
<g>
</g>
<g>
</g>
<g>
</g>
<g>
</g>
<g>
</g>
<g>
</g>
<g>
</g>
<g>
</g>
<g>
</g>
<g>
</g>
<g>
</g>
<g>
</g>
<g>
</g>
<g>
</g>
</svg>
