<?xml version="1.0" encoding="iso-8859-1"?>
<!-- Generator: Adobe Illustrator 19.0.0, SVG Export Plug-In . SVG Version: 6.00 Build 0)  -->
<svg xmlns="http://www.w3.org/2000/svg" xmlns:xlink="http://www.w3.org/1999/xlink" version="1.1" id="Layer_1" x="0px" y="0px" viewBox="0 0 512 512" style="enable-background:new 0 0 512 512;" xml:space="preserve">
<g>
	<g>
		<g>
			<path d="M90.123,293.461h294.872c4.749,0,8.6-3.851,8.6-8.6s-3.851-8.6-8.6-8.6H90.123c-40.21,0-72.923-32.714-72.923-72.926     c0-40.211,32.714-72.924,72.923-72.924c6.198,0,12.371,0.784,18.348,2.33c3.488,0.898,7.169-0.465,9.222-3.428     c10.561-15.244,27.913-24.345,46.416-24.345c6.088,0,12.101,0.977,17.873,2.906c2.305,0.769,4.829,0.528,6.946-0.664     c2.118-1.192,3.631-3.226,4.167-5.596c10.339-45.749,50.351-77.701,97.302-77.701c21.214,0,41.471,6.567,58.575,18.993     c3.843,2.792,9.221,1.938,12.013-1.904c2.792-3.842,1.939-9.22-1.905-12.012c-20.063-14.574-43.813-22.277-68.685-22.277     c-26.697,0-52.807,9.234-73.518,26.001c-18.075,14.632-31.444,34.452-38.261,56.498c-4.767-0.959-9.62-1.443-14.512-1.443     c-22.175,0-43.078,10.012-57.011,27.046c-5.585-1.064-11.273-1.603-16.975-1.603C40.429,113.211,0,153.64,0,203.335     C0,253.031,40.429,293.461,90.123,293.461z"/>
			<path d="M422.817,115.096c-5.272,0-10.506,0.461-15.656,1.374c-1.511-24.244-10.588-47.627-25.938-66.512     c-2.996-3.686-8.412-4.243-12.098-1.249c-3.686,2.996-4.245,8.412-1.249,12.098c14.387,17.7,22.31,40.033,22.31,62.889     c0,0.886-0.032,1.765-0.063,2.64l-0.026,0.755c-0.09,2.785,1.173,5.442,3.391,7.128c2.218,1.686,5.117,2.193,7.774,1.361     c6.957-2.179,14.209-3.284,21.555-3.284c39.693,0,71.984,32.291,71.984,71.984c0,39.69-32.291,71.982-71.984,71.982h-6.186     c-4.749,0-8.6,3.851-8.6,8.6s3.851,8.6,8.6,8.6h6.186c49.176,0,89.184-40.006,89.184-89.182     C512,155.103,471.994,115.096,422.817,115.096z"/>
			<path d="M471.089,331.841c-3.796-2.854-9.187-2.088-12.041,1.711l-15.069,20.059c-2.852,3.797-2.087,9.188,1.711,12.041     c1.548,1.163,3.36,1.724,5.159,1.724c2.612,0,5.192-1.186,6.882-3.435l15.069-20.06     C475.653,340.085,474.888,334.694,471.089,331.841z"/>
			<path d="M436.554,377.812c-3.798-2.853-9.189-2.087-12.042,1.71l-15.068,20.057c-2.852,3.798-2.088,9.189,1.71,12.042     c1.548,1.163,3.362,1.724,5.16,1.724c2.612,0,5.192-1.186,6.882-3.434l15.069-20.057     C441.116,386.056,440.351,380.665,436.554,377.812z"/>
			<path d="M402.016,423.782c-3.796-2.853-9.187-2.088-12.041,1.711l-15.07,20.06c-2.852,3.797-2.087,9.188,1.711,12.041     c1.547,1.163,3.361,1.724,5.159,1.724c2.612,0,5.192-1.186,6.882-3.435l15.07-20.06     C406.579,432.026,405.814,426.635,402.016,423.782z"/>
			<path d="M367.48,469.754c-3.798-2.854-9.189-2.089-12.041,1.709l-15.072,20.06c-2.853,3.798-2.088,9.189,1.709,12.041     c1.548,1.163,3.362,1.724,5.16,1.724c2.612,0,5.192-1.186,6.881-3.434l15.072-20.06     C372.042,477.997,371.277,472.606,367.48,469.754z"/>
			<path d="M120.575,333.552l-15.069,20.06c-2.852,3.797-2.087,9.188,1.711,12.041c1.548,1.163,3.361,1.724,5.158,1.724     c2.612,0,5.193-1.186,6.883-3.435l15.069-20.06c2.852-3.797,2.087-9.188-1.711-12.041     C128.82,328.988,123.429,329.755,120.575,333.552z"/>
			<path d="M98.081,377.812c-3.797-2.852-9.188-2.084-12.041,1.71L70.97,399.58c-2.853,3.798-2.088,9.189,1.71,12.042     c1.548,1.163,3.362,1.724,5.159,1.724c2.612,0,5.193-1.186,6.882-3.434l15.068-20.057     C102.644,386.056,101.878,380.665,98.081,377.812z"/>
			<path d="M63.543,423.782c-3.797-2.853-9.187-2.086-12.041,1.711l-15.069,20.06c-2.852,3.797-2.087,9.188,1.711,12.041     c1.548,1.163,3.36,1.724,5.158,1.724c2.612,0,5.192-1.186,6.883-3.435l15.07-20.06C68.106,432.026,67.341,426.635,63.543,423.782     z"/>
			<path d="M29.007,469.754c-3.796-2.853-9.188-2.086-12.041,1.709l-15.071,20.06c-2.853,3.798-2.088,9.189,1.71,12.041     c1.548,1.163,3.362,1.724,5.159,1.724c2.612,0,5.193-1.186,6.882-3.434l15.07-20.06     C33.569,477.997,32.805,472.606,29.007,469.754z"/>
			<path d="M188.27,333.552l-15.07,20.06c-2.852,3.797-2.087,9.188,1.711,12.041c1.548,1.163,3.36,1.724,5.158,1.724     c2.612,0,5.193-1.186,6.883-3.435l15.069-20.06c2.852-3.797,2.087-9.188-1.711-12.041     C196.515,328.988,191.124,329.755,188.27,333.552z"/>
			<path d="M165.775,377.812c-3.797-2.852-9.188-2.084-12.041,1.71l-15.069,20.057c-2.853,3.798-2.088,9.189,1.71,12.042     c1.548,1.163,3.362,1.724,5.159,1.724c2.612,0,5.193-1.186,6.882-3.434l15.07-20.057     C170.337,386.056,169.572,380.665,165.775,377.812z"/>
			<path d="M131.237,423.782c-3.797-2.853-9.188-2.086-12.041,1.711l-15.069,20.06c-2.852,3.797-2.087,9.188,1.711,12.041     c1.548,1.163,3.36,1.724,5.158,1.724c2.612,0,5.193-1.186,6.883-3.435l15.069-20.06     C135.801,432.026,135.035,426.635,131.237,423.782z"/>
			<path d="M96.701,469.754c-3.796-2.853-9.188-2.086-12.041,1.709l-15.071,20.06c-2.853,3.798-2.088,9.189,1.71,12.041     c1.548,1.163,3.362,1.724,5.159,1.724c2.612,0,5.193-1.186,6.882-3.434l15.071-20.06     C101.264,477.997,100.498,472.606,96.701,469.754z"/>
			<path d="M255.964,333.552l-15.069,20.06c-2.852,3.797-2.087,9.188,1.711,12.041c1.548,1.163,3.361,1.724,5.158,1.724     c2.612,0,5.193-1.186,6.883-3.435l15.07-20.06c2.852-3.797,2.087-9.188-1.711-12.041     C264.209,328.986,258.818,329.753,255.964,333.552z"/>
			<path d="M233.469,377.812c-3.797-2.852-9.188-2.084-12.041,1.71L206.36,399.58c-2.853,3.798-2.088,9.189,1.71,12.042     c1.548,1.163,3.36,1.724,5.159,1.724c2.612,0,5.193-1.186,6.882-3.434l15.07-20.057     C238.033,386.056,237.267,380.665,233.469,377.812z"/>
			<path d="M198.933,423.782c-3.797-2.853-9.188-2.086-12.041,1.711l-15.069,20.06c-2.852,3.797-2.087,9.188,1.711,12.041     c1.548,1.163,3.361,1.724,5.158,1.724c2.612,0,5.193-1.186,6.883-3.435l15.07-20.06     C203.496,432.026,202.73,426.635,198.933,423.782z"/>
			<path d="M164.396,469.754c-3.796-2.853-9.188-2.086-12.041,1.709l-15.072,20.06c-2.853,3.798-2.088,9.189,1.71,12.041     c1.548,1.163,3.361,1.724,5.159,1.724c2.612,0,5.193-1.186,6.882-3.434l15.072-20.06     C168.959,477.997,168.194,472.606,164.396,469.754z"/>
			<path d="M323.658,333.552l-15.069,20.06c-2.852,3.797-2.087,9.188,1.711,12.041c1.547,1.163,3.36,1.724,5.159,1.724     c2.612,0,5.192-1.186,6.882-3.435l15.069-20.06c2.852-3.797,2.087-9.188-1.711-12.041     C331.905,328.986,326.511,329.753,323.658,333.552z"/>
			<path d="M301.164,377.812c-3.799-2.853-9.189-2.087-12.042,1.71l-15.068,20.057c-2.852,3.798-2.087,9.189,1.71,12.042     c1.548,1.163,3.362,1.724,5.16,1.724c2.612,0,5.192-1.186,6.882-3.434l15.069-20.057     C305.726,386.056,304.962,380.665,301.164,377.812z"/>
			<path d="M266.626,423.782c-3.795-2.853-9.188-2.088-12.041,1.711l-15.07,20.06c-2.852,3.797-2.087,9.188,1.711,12.041     c1.548,1.163,3.36,1.724,5.158,1.724c2.612,0,5.193-1.186,6.883-3.435l15.069-20.06     C271.19,432.026,270.425,426.635,266.626,423.782z"/>
			<path d="M232.09,469.754c-3.796-2.853-9.188-2.086-12.041,1.709l-15.071,20.06c-2.853,3.798-2.088,9.189,1.71,12.041     c1.548,1.163,3.36,1.724,5.159,1.724c2.612,0,5.193-1.186,6.882-3.434l15.072-20.06     C236.654,477.997,235.888,472.606,232.09,469.754z"/>
			<path d="M403.395,331.841c-3.795-2.854-9.188-2.088-12.041,1.711l-15.069,20.06c-2.852,3.797-2.087,9.188,1.711,12.041     c1.548,1.163,3.36,1.724,5.159,1.724c2.612,0,5.192-1.186,6.882-3.435l15.069-20.06     C407.958,340.085,407.193,334.694,403.395,331.841z"/>
			<path d="M368.859,377.812c-3.798-2.853-9.189-2.087-12.042,1.71l-15.069,20.057c-2.852,3.798-2.087,9.189,1.71,12.042     c1.548,1.163,3.362,1.724,5.16,1.724c2.612,0,5.192-1.186,6.882-3.434l15.069-20.057     C373.422,386.056,372.656,380.665,368.859,377.812z"/>
			<path d="M334.323,423.783c-3.798-2.853-9.189-2.088-12.041,1.709l-15.072,20.06c-2.853,3.798-2.088,9.189,1.709,12.041     c1.548,1.163,3.362,1.724,5.16,1.724c2.612,0,5.192-1.186,6.881-3.434l15.072-20.06     C338.885,432.026,338.119,426.635,334.323,423.783z"/>
			<path d="M299.786,469.754c-3.798-2.854-9.189-2.089-12.041,1.709l-15.072,20.06c-2.853,3.798-2.088,9.189,1.709,12.041     c1.548,1.163,3.362,1.724,5.16,1.724c2.612,0,5.192-1.186,6.881-3.434l15.072-20.06     C304.348,477.997,303.583,472.606,299.786,469.754z"/>
		</g>
	</g>
</g>
<g>
</g>
<g>
</g>
<g>
</g>
<g>
</g>
<g>
</g>
<g>
</g>
<g>
</g>
<g>
</g>
<g>
</g>
<g>
</g>
<g>
</g>
<g>
</g>
<g>
</g>
<g>
</g>
<g>
</g>
</svg>
