<?xml version="1.0" encoding="iso-8859-1"?>
<!-- Generator: Adobe Illustrator 19.0.0, SVG Export Plug-In . SVG Version: 6.00 Build 0)  -->
<svg xmlns="http://www.w3.org/2000/svg" xmlns:xlink="http://www.w3.org/1999/xlink" version="1.1" id="Layer_1" x="0px" y="0px" viewBox="0 0 512 512" style="enable-background:new 0 0 512 512;" xml:space="preserve">
<g>
	<g>
		<path d="M472.475,11.182C467.307,0,451.78,0,446.679,0h-69.916c-4.752,0-8.605,3.853-8.605,8.605c0,4.752,3.853,8.605,8.605,8.605    h69.916c6.03,0,8.794,0.848,9.891,1.339c-0.389,1.302-1.629,3.549-3.138,5.321l-0.044,0.052c-0.028,0.032-0.058,0.066-0.086,0.099    c-5.278,6.111-11.013,13.15-16.821,20.96H63.308c-0.744,0-1.463,0.104-2.152,0.282c-2.39-7.354-4.273-13.973-5.733-19.608    c-0.206-1.652-0.28-4.249,0.971-5.702c1.503-1.743,5.361-2.743,10.585-2.743h276.439c4.752,0,8.605-3.853,8.605-8.605    c0-4.752-3.853-8.605-8.605-8.605H66.979c-10.691,0-18.64,2.935-23.624,8.722c-4.389,5.095-6.082,11.971-4.897,19.881    c0.044,0.293,0.103,0.583,0.177,0.87C50.943,77.301,92.541,193.817,212.64,242.696c25.886,10.535,41.1,21.944,46.509,34.882    c6.646,15.895-1.353,35.234-10.615,57.625c-9.321,22.537-19.887,48.081-18.628,77.26c1.456,33.698,18.514,65.491,52.15,97.197    c1.637,1.545,3.758,2.341,5.898,2.341c1.507,0,3.025-0.395,4.388-1.203c3.3-1.954,4.908-5.862,3.942-9.574    c-0.063-0.244-6.306-24.699-3.524-53.128c3.596-36.733,19.957-62.713,48.632-77.214c37.683-19.057,62.603-43.502,74.068-72.656    c7.665-19.492,9.253-40.785,4.777-63.56c0.051-0.379,0.086-0.762,0.086-1.154c0-1.689-0.494-3.258-1.334-4.588    c-1.659-6.957-3.871-14.048-6.638-21.263c-25.379-66.179,22.841-136.331,53.902-172.31c0.011-0.013,0.021-0.024,0.031-0.037    l0.22-0.254C469.093,32.023,477.161,21.327,472.475,11.182z M166.021,197.135h158.035c4.752,0,8.605-3.853,8.605-8.605    c0-4.752-3.853-8.605-8.605-8.605H148.105c-0.928,0-1.819,0.151-2.657,0.423c-9.907-8.988-18.819-18.473-26.824-28.195h270.368    c-1.075,9.139-1.302,18.421-0.492,27.771h-34.327c-4.752,0-8.605,3.853-8.605,8.605c0,4.752,3.853,8.605,8.605,8.605h37.028    c1.277,5.561,2.952,11.13,5.082,16.688c1.436,3.745,2.703,7.439,3.806,11.083H214.727    C196.612,217.133,180.446,207.688,166.021,197.135z M267.371,467.022h7.496c0.074,3.685,0.253,7.207,0.501,10.512    C272.437,473.983,269.783,470.479,267.371,467.022z M275.581,446.948c-0.091,0.963-0.161,1.912-0.234,2.864h-18.167    c-4.68-9.601-7.51-18.843-8.93-27.77h31.857C277.934,429.858,276.412,438.165,275.581,446.948z M286.313,404.831h-39.168    c0.268-9.597,1.944-18.833,4.403-27.771h53.157C297.19,385.104,291.038,394.393,286.313,404.831z M333.626,355.524    c-2.712,1.371-5.324,2.845-7.857,4.399c-0.351-0.044-0.707-0.073-1.069-0.073h-67.491c2.301-6.146,4.788-12.162,7.23-18.069    c1.348-3.258,2.684-6.491,3.97-9.703h101.284C359.736,340.579,347.715,348.4,333.626,355.524z M404.969,269.887h-62.627    c-4.752,0-8.605,3.853-8.605,8.605c0,4.752,3.853,8.605,8.605,8.605h58.911c-3.218,9.889-8.245,19.206-15.075,27.938    c-0.542-0.108-1.101-0.166-1.676-0.166H274.634c2.903-9.442,4.646-18.69,4.097-27.771h31.342c4.752,0,8.605-3.853,8.605-8.605    c0-4.752-3.853-8.605-8.605-8.605h-35.506c-4.613-10.357-12.895-19.472-25.386-27.772h154.933    C405.681,251.77,405.967,261.03,404.969,269.887z M408.546,89.961H239.08c-4.752,0-8.605,3.853-8.605,8.605    c0,4.752,3.853,8.605,8.605,8.605h161.735c-3.592,8.973-6.611,18.26-8.812,27.771H105.516    c-6.529-9.262-12.319-18.591-17.44-27.771h119.811c4.752,0,8.605-3.853,8.605-8.605c0-4.752-3.853-8.605-8.605-8.605H79.119    c-4.694-9.696-8.651-19.043-11.983-27.77h357.357C418.868,70.849,413.431,80.155,408.546,89.961z"/>
	</g>
</g>
<g>
</g>
<g>
</g>
<g>
</g>
<g>
</g>
<g>
</g>
<g>
</g>
<g>
</g>
<g>
</g>
<g>
</g>
<g>
</g>
<g>
</g>
<g>
</g>
<g>
</g>
<g>
</g>
<g>
</g>
</svg>
