<?xml version="1.0" encoding="iso-8859-1"?>
<!-- Generator: Adobe Illustrator 19.0.0, SVG Export Plug-In . SVG Version: 6.00 Build 0)  -->
<svg xmlns="http://www.w3.org/2000/svg" xmlns:xlink="http://www.w3.org/1999/xlink" version="1.1" id="Layer_1" x="0px" y="0px" viewBox="0 0 512 512" style="enable-background:new 0 0 512 512;" xml:space="preserve">
<g>
	<g>
		<g>
			<path d="M321.53,430.088l-15.904-13.993c-3.567-3.141-9.005-2.794-12.144,0.777c-3.14,3.568-2.792,9.005,0.777,12.144     l15.904,13.993c1.635,1.439,3.661,2.145,5.68,2.145c2.387,0,4.763-0.987,6.463-2.921     C325.446,438.662,325.097,433.226,321.53,430.088z"/>
			<path d="M331.991,110.201c0.292,4.555,4.077,8.055,8.579,8.055c0.185,0,0.371-0.005,0.558-0.018     c4.742-0.303,8.341-4.394,8.038-9.136l-1.423-22.25c-0.302-4.742-4.403-8.343-9.136-8.038c-4.742,0.303-8.341,4.394-8.038,9.136     L331.991,110.201z"/>
			<path d="M503.395,248.206H477.63l13.902-15.802c3.139-3.568,2.791-9.005-0.778-12.145c-3.567-3.139-9.006-2.791-12.145,0.778     l-23.903,27.17h-54.366l5.378-6.114c3.139-3.568,2.791-9.005-0.778-12.145c-3.569-3.139-9.006-2.791-12.145,0.778l-15.378,17.481     h-47.345v-3.059c0-4.752-3.853-8.605-8.605-8.605s-8.605,3.853-8.605,8.605v3.059H275.63l28.987-28.987l12.55,7.247     c4.114,2.377,9.378,0.966,11.754-3.149c2.377-4.115,0.966-9.378-3.149-11.755l-8.558-4.941l30.394-30.394l76.104,4.87     c0.187,0.013,0.373,0.018,0.558,0.018c4.502,0,8.288-3.5,8.579-8.055c0.303-4.742-3.295-8.833-8.038-9.136l-60.996-3.903     l38.444-38.444l36.11,2.31c0.187,0.013,0.373,0.018,0.558,0.018c4.502,0,8.288-3.5,8.579-8.055     c0.303-4.742-3.295-8.833-8.038-9.136l-21.001-1.344l18.217-18.218c3.36-3.361,3.36-8.808,0-12.17     c-3.36-3.357-8.807-3.359-12.17,0l-18.219,18.219l-1.345-21.005c-0.303-4.742-4.382-8.359-9.136-8.038     c-4.742,0.303-8.341,4.394-8.038,9.136l2.311,36.113l-38.443,38.443l-0.759-11.863c-0.302-4.742-4.405-8.344-9.136-8.038     c-4.742,0.303-8.342,4.394-8.038,9.136l1.726,26.971l-33.654,33.654l-37.512-21.659V134.58l57.257-50.373     c3.568-3.14,3.916-8.577,0.778-12.145c-3.141-3.568-8.577-3.915-12.145-0.778l-45.89,40.372V57.291l27.168-23.902     c3.568-3.14,3.916-8.577,0.778-12.145c-3.14-3.568-8.578-3.915-12.145-0.778l-15.803,13.901V8.605     c0-4.752-3.853-8.605-8.605-8.605s-8.605,3.853-8.605,8.605V34.37l-15.803-13.901c-3.569-3.139-9.006-2.79-12.145,0.778     c-3.139,3.568-2.791,9.006,0.778,12.145l27.172,23.902v54.365l-45.892-40.372c-3.569-3.139-9.006-2.791-12.145,0.778     c-3.139,3.569-2.791,9.005,0.778,12.145l57.259,50.372v41.859l-37.573,21.692l-34.886-34.886l4.869-76.104     c0.303-4.742-3.295-8.833-8.038-9.136c-4.736-0.321-8.834,3.295-9.136,8.038l-3.902,60.996l-38.443-38.443l2.31-36.112     c0.303-4.742-3.295-8.833-8.038-9.136c-4.739-0.315-8.834,3.295-9.136,8.038l-1.343,21.003L87.15,75.791     c-3.361-3.359-8.808-3.359-12.17,0c-3.36,3.361-3.36,8.808,0,12.17l16.596,16.596L70.572,105.9     c-4.742,0.302-8.341,4.394-8.038,9.136c0.292,4.555,4.077,8.055,8.579,8.055c0.185,0,0.371-0.005,0.558-0.018l36.113-2.309     l38.444,38.444l-60.998,3.903c-4.742,0.303-8.341,4.394-8.038,9.136c0.291,4.555,4.077,8.055,8.579,8.055     c0.185,0,0.371-0.005,0.558-0.018l76.106-4.87l31.624,31.624l-7.832,4.522c-2.663,1.537-4.303,4.377-4.303,7.452v29.193h-49.64     l-50.373-57.258c-3.14-3.568-8.577-3.915-12.145-0.778c-3.568,3.14-3.916,8.577-0.778,12.145l40.373,45.891H54.997l-23.903-27.17     c-3.14-3.568-8.577-3.915-12.145-0.778c-3.568,3.14-3.916,8.577-0.778,12.145l13.903,15.802H8.605     c-4.752,0-8.605,3.853-8.605,8.605c0,4.752,3.853,8.605,8.605,8.605h23.469l-13.901,15.8c-3.14,3.568-2.792,9.005,0.777,12.144     c1.635,1.439,3.661,2.145,5.68,2.145c2.387,0,4.763-0.987,6.464-2.921l23.903-27.168h54.366l-40.371,45.896     c-3.139,3.568-2.791,9.005,0.778,12.145c1.635,1.438,3.661,2.144,5.68,2.144c2.388,0,4.764-0.987,6.465-2.921l50.372-57.26     h49.642v3.395c0,4.752,3.853,8.605,8.605,8.605s8.605-3.853,8.605-8.605v-3.395h34.943l-28.149,28.149l-11.096-6.406     c-4.115-2.377-9.38-0.966-11.754,3.149c-2.377,4.115-0.966,9.378,3.149,11.755l7.103,4.101l-31.231,31.231l-76.106-4.868     c-4.726-0.308-8.833,3.295-9.136,8.038c-0.303,4.744,3.295,8.833,8.038,9.136l60.997,3.901l-38.444,38.444l-36.113-2.313     c-4.74-0.312-8.834,3.295-9.136,8.038c-0.303,4.742,3.295,8.833,8.038,9.136l21.005,1.345l-16.596,16.596     c-3.36,3.361-3.36,8.808,0,12.17c1.681,1.68,3.882,2.52,6.085,2.52c2.203,0,4.405-0.84,6.085-2.52l16.595-16.595l1.343,21.001     c0.292,4.555,4.077,8.055,8.579,8.055c0.185,0,0.371-0.005,0.558-0.018c4.742-0.303,8.341-4.394,8.038-9.136l-2.31-36.11     l38.444-38.444l3.903,60.997c0.292,4.555,4.077,8.055,8.579,8.055c0.185,0,0.371-0.005,0.558-0.018     c4.742-0.303,8.341-4.394,8.038-9.136l-4.87-76.105l34.493-34.493l38.299,22.114v42.528l-57.259,50.372     c-3.568,3.14-3.916,8.577-0.778,12.145c1.702,1.934,4.077,2.921,6.465,2.921c2.019,0,4.047-0.706,5.68-2.144l45.892-40.372     v54.366l-27.172,23.902c-3.568,3.139-3.916,8.577-0.778,12.145c1.702,1.934,4.077,2.921,6.465,2.921     c2.019,0,4.047-0.706,5.68-2.144l15.803-13.902v23.472c0,4.752,3.853,8.605,8.605,8.605s8.605-3.853,8.605-8.605v-23.469     l15.8,13.9c1.635,1.438,3.661,2.144,5.68,2.144c2.387,0,4.763-0.987,6.465-2.921c3.139-3.568,2.791-9.005-0.778-12.145     l-27.172-23.901v-54.365l9.982,8.781c1.636,1.438,3.661,2.144,5.68,2.144c2.387,0,4.764-0.989,6.465-2.921     c3.139-3.568,2.791-9.005-0.778-12.145l-21.35-18.782v-42.143l38.24-22.079l33.262,33.262l-4.87,76.105     c-0.303,4.742,3.295,8.833,8.038,9.136c0.187,0.013,0.373,0.018,0.558,0.018c4.502,0,8.288-3.5,8.579-8.055l3.904-60.996     l38.443,38.443l-2.31,36.111c-0.303,4.742,3.295,8.833,8.038,9.136c0.187,0.013,0.373,0.018,0.558,0.018     c4.502,0,8.288-3.5,8.579-8.055l1.343-21.002l18.218,18.218c1.681,1.68,3.882,2.52,6.085,2.52s4.405-0.84,6.085-2.52     c3.36-3.361,3.36-8.808,0-12.17l-18.219-18.219l21.005-1.345c4.742-0.303,8.341-4.394,8.038-9.136     c-0.302-4.742-4.399-8.365-9.136-8.038l-36.113,2.312l-38.444-38.444l10.482-0.67c4.742-0.302,8.341-4.394,8.038-9.136     c-0.302-4.742-4.391-8.341-9.136-8.038l-25.591,1.636l-29.999-29.999l7.831-4.521c2.663-1.537,4.303-4.377,4.303-7.452v-29.195     h47.346l50.371,57.257c1.702,1.934,4.077,2.921,6.465,2.921c2.019,0,4.047-0.706,5.68-2.144c3.568-3.14,3.916-8.577,0.778-12.145     l-40.37-45.89h54.366l23.901,27.168c1.702,1.934,4.077,2.921,6.465,2.921c2.019,0,4.047-0.706,5.68-2.144     c3.568-3.14,3.916-8.577,0.778-12.145l-13.9-15.8h25.76c4.752,0,8.605-3.853,8.605-8.605S508.147,248.206,503.395,248.206z      M199.136,248.205v-24.223l7.522-4.343l28.567,28.567H199.136z M247.062,317.314l-25.701-14.839l25.701-25.701V317.314z      M247.062,235.703l-24.973-24.973l24.973-14.42V235.703z M264.272,195.925l24.914,14.384l-24.914,24.914V195.925z M264.272,317.7     v-40.447l25.642,25.642L264.272,317.7z M305.345,293.985l-28.57-28.57h36.09l0.001,24.228L305.345,293.985z"/>
			<path d="M427.798,190.944l-17.345,19.688c-3.142,3.566-2.798,9.003,0.769,12.145c1.636,1.441,3.664,2.148,5.685,2.148     c2.386,0,4.76-0.986,6.46-2.917l17.345-19.688c3.142-3.566,2.798-9.003-0.769-12.145     C436.376,187.034,430.938,187.377,427.798,190.944z"/>
			<path d="M424.048,331.716l-22.927,1.466c-4.742,0.302-8.341,4.394-8.038,9.136c0.292,4.555,4.077,8.055,8.579,8.055     c0.185,0,0.371-0.005,0.558-0.018l22.927-1.466c4.742-0.302,8.341-4.394,8.038-9.136     C432.882,335.01,428.797,331.394,424.048,331.716z"/>
		</g>
	</g>
</g>
<g>
</g>
<g>
</g>
<g>
</g>
<g>
</g>
<g>
</g>
<g>
</g>
<g>
</g>
<g>
</g>
<g>
</g>
<g>
</g>
<g>
</g>
<g>
</g>
<g>
</g>
<g>
</g>
<g>
</g>
</svg>
