<?xml version="1.0" encoding="iso-8859-1"?>
<!-- Generator: Adobe Illustrator 19.0.0, SVG Export Plug-In . SVG Version: 6.00 Build 0)  -->
<svg xmlns="http://www.w3.org/2000/svg" xmlns:xlink="http://www.w3.org/1999/xlink" version="1.1" id="Layer_1" x="0px" y="0px" viewBox="0 0 512 512" style="enable-background:new 0 0 512 512;" xml:space="preserve">
<g>
	<g>
		<g>
			<path d="M318.971,66.224c4.768,0,8.635-3.866,8.635-8.635V20.586c0-4.768-3.866-8.635-8.635-8.635s-8.635,3.866-8.635,8.635     v37.003C310.337,62.358,314.203,66.224,318.971,66.224z"/>
			<path d="M237.801,81.653c1.598,2.77,4.501,4.318,7.486,4.318c1.464,0,2.949-0.373,4.309-1.158     c4.129-2.384,5.546-7.665,3.16-11.795l-18.503-32.046c-2.383-4.128-7.662-5.547-11.795-3.16c-4.13,2.384-5.546,7.665-3.16,11.795     L237.801,81.653z"/>
			<path d="M154.965,120.26l32.045,18.502c1.36,0.786,2.844,1.158,4.309,1.158c2.984,0,5.887-1.549,7.487-4.318     c2.384-4.129,0.968-9.411-3.161-11.795L163.6,105.305c-4.129-2.384-9.409-0.969-11.796,3.16     C149.42,112.595,150.836,117.876,154.965,120.26z"/>
			<path d="M450.932,271.196c-4.128-2.382-9.411-0.968-11.796,3.161c-2.384,4.129-0.968,9.411,3.161,11.796l32.046,18.502     c1.36,0.785,2.844,1.157,4.309,1.157c2.984,0,5.887-1.549,7.487-4.318c2.384-4.129,0.968-9.411-3.161-11.796L450.932,271.196z"/>
			<path d="M457.727,204.979c0,4.768,3.866,8.635,8.635,8.635h37.003c4.768,0,8.635-3.866,8.635-8.635s-3.866-8.635-8.635-8.635     h-37.003C461.594,196.344,457.727,200.211,457.727,204.979z"/>
			<path d="M446.623,139.92c1.464,0,2.949-0.373,4.309-1.157l32.046-18.502c4.129-2.385,5.546-7.666,3.161-11.796     c-2.384-4.128-7.664-5.544-11.796-3.161l-32.046,18.502c-4.129,2.385-5.546,7.666-3.161,11.796     C440.737,138.371,443.638,139.92,446.623,139.92z"/>
			<path d="M388.349,84.813c1.36,0.786,2.844,1.158,4.309,1.158c2.984,0,5.887-1.549,7.486-4.318l18.503-32.046     c2.385-4.13,0.969-9.411-3.16-11.795c-4.128-2.384-9.411-0.969-11.795,3.16l-18.503,32.046     C382.803,77.149,384.218,82.429,388.349,84.813z"/>
			<path d="M503.365,329.715H353.944c0.798-0.801,1.564-1.631,2.314-2.476c0.301-0.091,0.598-0.172,0.901-0.267l0.534-0.174     c1.03-0.327,2.055-0.667,3.063-1.017c0.37-0.127,0.737-0.257,1.068-0.377c0.919-0.327,1.829-0.663,2.733-1.008l0.893-0.34     c1.17-0.458,2.333-0.928,3.451-1.405l0.657-0.287c0.953-0.41,1.901-0.832,2.863-1.278l0.997-0.466     c0.89-0.42,1.775-0.849,2.585-1.256l0.153-0.075c0.239-0.117,0.475-0.234,0.681-0.339c1.112-0.565,2.218-1.147,3.291-1.733     l0.711-0.396c0.867-0.481,1.729-0.971,2.659-1.513c0.146-0.081,0.29-0.163,0.432-0.248c0.092-0.054,0.194-0.119,0.297-0.187     c6.368-3.788,12.43-8.146,18.025-12.958c0.092-0.074,0.182-0.152,0.27-0.23c0.003-0.002,0.007-0.005,0.01-0.009     c0.811-0.699,1.611-1.412,2.406-2.132c0.021-0.019,0.041-0.038,0.063-0.057c0.778-0.71,1.546-1.427,2.277-2.129     c0.167-0.159,0.332-0.321,0.497-0.482l0.21-0.205c0.537-0.522,1.075-1.048,1.602-1.577c0.189-0.19,0.376-0.381,0.561-0.572     l0.286-0.294c0.473-0.484,0.943-0.969,1.404-1.457c0.3-0.318,0.599-0.64,0.867-0.93c0.446-0.479,0.889-0.964,1.312-1.434     c0.303-0.337,0.603-0.676,0.888-1.001c0.419-0.474,0.833-0.953,1.247-1.434c0.294-0.344,0.586-0.692,0.885-1.048     c0.399-0.478,0.795-0.962,1.184-1.439c0.287-0.352,0.572-0.705,0.869-1.077c0.39-0.492,0.776-0.988,1.176-1.507l0.221-0.288     c0.196-0.254,0.391-0.509,0.574-0.751c0.38-0.503,0.751-1.011,1.183-1.6l0.731-1.004c0.418-0.582,0.826-1.171,1.208-1.727     l0.159-0.229c0.169-0.243,0.339-0.486,0.482-0.698c0.523-0.772,1.037-1.551,1.536-2.323l0.256-0.389     c0.582-0.909,1.152-1.823,1.717-2.755l0.489-0.829c0.389-0.65,0.775-1.301,1.14-1.94c0.153-0.267,0.302-0.534,0.451-0.803     l0.173-0.312c0.323-0.577,0.645-1.156,0.952-1.726c0.173-0.318,0.341-0.64,0.509-0.962l0.137-0.261     c0.291-0.554,0.581-1.108,0.876-1.689l0.62-1.25c0.274-0.556,0.546-1.114,0.812-1.676c0.203-0.427,0.404-0.857,0.603-1.289     c0.256-0.558,0.509-1.118,0.762-1.688c0.194-0.437,0.385-0.875,0.568-1.302c0.243-0.562,0.478-1.128,0.733-1.739l0.531-1.301     c0.239-0.596,0.467-1.194,0.692-1.783l0.112-0.292c0.124-0.324,0.248-0.648,0.377-0.992c0.206-0.558,0.404-1.117,0.602-1.678     l0.204-0.577c0.1-0.282,0.202-0.563,0.298-0.852c0.254-0.747,0.498-1.5,0.733-2.235l0.085-0.26     c0.071-0.217,0.144-0.435,0.203-0.628c0.329-1.051,0.642-2.106,0.951-3.193l0.194-0.714c0.226-0.818,0.448-1.636,0.662-2.472     c0.068-0.27,0.135-0.542,0.201-0.813l0.113-0.471c0.158-0.649,0.317-1.298,0.464-1.945c0.071-0.315,0.14-0.629,0.207-0.943     l0.087-0.405c0.139-0.648,0.278-1.294,0.408-1.947c0.09-0.448,0.174-0.898,0.266-1.385c0.12-0.636,0.237-1.274,0.348-1.916     c0.082-0.473,0.16-0.945,0.242-1.45c0.1-0.626,0.198-1.257,0.29-1.894c0.069-0.479,0.137-0.958,0.203-1.447     c0.086-0.639,0.165-1.28,0.249-1.992c0.054-0.461,0.108-0.922,0.158-1.389c0.069-0.657,0.133-1.319,0.189-1.942     c0.045-0.476,0.089-0.951,0.132-1.467c0.054-0.69,0.101-1.383,0.144-2.069l0.084-1.341c0.041-0.761,0.068-1.523,0.096-2.299     l0.015-0.365c0.011-0.258,0.023-0.517,0.028-0.779c0.03-1.148,0.049-2.301,0.049-3.458c0-11.882-1.632-23.651-4.85-34.981     c-7.595-26.744-24.102-50.69-46.48-67.425c-22.216-16.614-48.658-25.394-76.471-25.394c-27.811,0-54.253,8.781-76.47,25.394     c-21,15.704-36.829,37.759-44.975,62.52c-2.547-0.264-5.111-0.414-7.686-0.414c-38.559,0-70.413,29.251-74.541,66.726     c-2.164-0.244-4.344-0.366-6.535-0.366c-31.966,0-57.974,26.008-57.974,57.976c0,15.849,6.398,30.226,16.741,40.701H8.635     c-4.768,0-8.635,3.866-8.635,8.635s3.866,8.635,8.635,8.635h100.13h203.701h190.899c4.768,0,8.635-3.866,8.635-8.635     S508.134,329.715,503.365,329.715z M353.696,290.43c-0.008,0.154-0.021,0.307-0.029,0.461c-0.031,0.534-0.07,1.067-0.122,1.596     c-0.012,0.122-0.025,0.243-0.038,0.364c-0.066,0.612-0.14,1.221-0.233,1.825c-0.003,0.019-0.005,0.039-0.009,0.058     c-3.043,19.782-20.181,34.979-40.802,34.979h-203.7v0.002c-22.444,0-40.704-18.259-40.704-40.701     c0-22.446,18.26-40.707,40.704-40.707c4.154,0,8.256,0.625,12.193,1.859c2.67,0.835,5.582,0.325,7.809-1.37     c2.227-1.695,3.495-4.365,3.4-7.162l-0.013-0.387c-0.019-0.522-0.039-1.047-0.039-1.574c0-31.83,25.895-57.725,57.725-57.725     c4.031,0,7.972,0.417,11.783,1.197c0.09,0.023,0.177,0.052,0.269,0.071c8.711,1.85,16.698,5.676,23.476,10.981     c0.001,0.001,0.002,0.002,0.003,0.003c8.464,6.63,14.899,15.484,18.593,25.43c0.049,0.131,0.095,0.26,0.142,0.392     c0.213,0.585,0.413,1.174,0.608,1.767c0.063,0.192,0.126,0.383,0.187,0.575c0.175,0.555,0.338,1.114,0.495,1.675     c0.056,0.202,0.118,0.401,0.172,0.603c0.164,0.608,0.313,1.22,0.457,1.833c0.032,0.14,0.072,0.277,0.104,0.418     c0.045,0.201,0.108,0.395,0.166,0.59c0.641,2.124,2.07,3.931,4.015,5.027c1.329,0.75,2.817,1.125,4.311,1.113c0,0,0,0,0.001,0     c0.597-0.004,1.196-0.071,1.785-0.201c0.295-0.065,0.587-0.146,0.876-0.242c2.397-0.799,4.868-1.304,7.372-1.506     c0.834-0.068,1.673-0.101,2.514-0.101c10.223,0,19.81,5.03,25.648,13.455c0.319,0.462,0.691,0.87,1.083,1.252     c2.132,2.078,5.213,2.957,8.173,2.19c3.391-0.875,6.888-1.319,10.395-1.319c0.702,0,1.4,0.018,2.093,0.053     c0.081,0.004,0.162,0.013,0.243,0.017c18.152,1.018,33.21,13.814,37.628,30.854c0.009,0.033,0.017,0.068,0.026,0.101     c0.126,0.493,0.236,0.993,0.345,1.493c0.055,0.26,0.113,0.518,0.164,0.78c0.054,0.274,0.099,0.55,0.148,0.827     c0.078,0.45,0.155,0.901,0.218,1.357c0.013,0.093,0.023,0.186,0.036,0.278c0.079,0.596,0.149,1.194,0.203,1.797     c0,0.004,0.001,0.009,0.002,0.012c0.11,1.224,0.175,2.46,0.175,3.712C353.747,289.102,353.728,289.768,353.696,290.43z      M353.646,246.859c-0.518-0.513-1.024-1.036-1.563-1.532c-4.975-4.575-10.639-8.193-16.732-10.782     c-0.103-0.044-0.206-0.085-0.309-0.128c-0.731-0.305-1.467-0.597-2.209-0.873c-0.196-0.073-0.394-0.144-0.59-0.215     c-0.654-0.235-1.311-0.459-1.974-0.669c-0.274-0.087-0.549-0.174-0.826-0.258c-0.595-0.18-1.193-0.35-1.794-0.511     c-0.333-0.09-0.667-0.178-1.004-0.262c-0.556-0.138-1.114-0.266-1.674-0.387c-0.376-0.082-0.751-0.165-1.13-0.24     c-0.536-0.106-1.076-0.199-1.617-0.289c-0.398-0.068-0.797-0.138-1.198-0.196c-0.545-0.08-1.093-0.145-1.642-0.209     c-0.395-0.046-0.789-0.099-1.186-0.138c-0.61-0.059-1.224-0.099-1.837-0.14c-0.338-0.023-0.674-0.054-1.013-0.07     c-0.957-0.046-1.918-0.073-2.882-0.073c-3.04,0-6.077,0.236-9.076,0.703c-9.141-10.285-22.3-16.281-36.222-16.281     c-2.212,0-4.414,0.151-6.595,0.45c-0.036-0.101-0.079-0.199-0.115-0.299c-0.245-0.685-0.499-1.367-0.764-2.044     c-0.064-0.162-0.132-0.321-0.196-0.482c-0.074-0.186-0.15-0.371-0.227-0.557c-0.119-0.29-0.232-0.582-0.354-0.87     c-0.054-0.127-0.111-0.253-0.166-0.379c-0.097-0.226-0.2-0.449-0.299-0.673c-0.233-0.529-0.471-1.055-0.716-1.577     c-0.07-0.15-0.139-0.3-0.212-0.45c-0.153-0.321-0.308-0.64-0.465-0.958c-0.134-0.27-0.273-0.537-0.41-0.805     c-0.137-0.269-0.276-0.536-0.417-0.804c-0.188-0.356-0.376-0.711-0.569-1.064c-0.22-0.404-0.445-0.805-0.672-1.205     c-0.232-0.408-0.472-0.812-0.711-1.214c-0.175-0.292-0.348-0.587-0.527-0.877c-0.093-0.151-0.185-0.303-0.278-0.453     c-0.217-0.346-0.438-0.69-0.659-1.033c-0.134-0.206-0.266-0.414-0.401-0.62c-0.217-0.328-0.441-0.651-0.664-0.976     c-0.239-0.35-0.473-0.702-0.717-1.047c-0.199-0.28-0.405-0.553-0.607-0.829c-0.58-0.797-1.174-1.581-1.785-2.355     c-0.155-0.196-0.307-0.396-0.464-0.591c-0.427-0.531-0.867-1.053-1.309-1.573c-0.052-0.06-0.102-0.122-0.153-0.181     c-0.314-0.367-0.634-0.73-0.955-1.09c-0.106-0.119-0.213-0.236-0.318-0.353c-0.045-0.05-0.09-0.1-0.135-0.15     c-0.046-0.052-0.093-0.104-0.14-0.155c-0.493-0.541-0.995-1.073-1.505-1.6c-0.024-0.025-0.047-0.05-0.072-0.074     c-1.069-1.102-2.171-2.172-3.307-3.208c0.017-0.068,0.036-0.137,0.054-0.206l0.177-0.652c0.468-1.704,1.003-3.42,1.595-5.126     l0.206-0.586c0.6-1.682,1.254-3.342,1.958-4.965l0.245-0.561c0.709-1.604,1.481-3.206,2.301-4.774l0.29-0.548     c0.812-1.527,1.695-3.062,2.616-4.554l0.34-0.543c3.904-6.202,8.63-11.856,14.048-16.806c0.023-0.023,0.046-0.043,0.069-0.066     l0.771-0.686c0.213-0.191,0.425-0.381,0.643-0.571l0.857-0.73c0.189-0.161,0.377-0.322,0.594-0.501l1.464-1.187     c0.249-0.199,0.503-0.393,0.754-0.587l1.526-1.151c0.248-0.183,0.498-0.366,0.758-0.554c0.247-0.178,0.495-0.354,0.812-0.573     c0.239-0.168,0.476-0.335,0.744-0.517c0.263-0.181,0.529-0.358,0.807-0.544c0.254-0.169,0.509-0.338,0.767-0.506     c0.263-0.171,0.527-0.341,0.831-0.533c0.26-0.165,0.521-0.327,0.789-0.492c0.272-0.168,0.543-0.336,0.798-0.489l1.686-0.985     c0.255-0.147,0.513-0.289,0.808-0.452l0.821-0.453c0.285-0.152,0.569-0.3,0.878-0.462l0.097-0.051l0.716-0.373     c0.289-0.147,0.582-0.29,0.912-0.452l2.55-1.21c0.326-0.147,0.655-0.289,0.985-0.432l0.997-0.427     c0.511-0.213,1.021-0.425,1.498-0.613l1.063-0.407c0.255-0.098,0.508-0.196,0.788-0.298l4.537-1.511     c0.333-0.103,0.667-0.202,0.96-0.287l0.949-0.263c0.315-0.086,0.63-0.174,0.966-0.261l0.866-0.22     c0.34-0.084,0.68-0.168,0.994-0.244l0.931-0.213c0.342-0.077,0.685-0.151,1.026-0.223l2.839-0.544     c0.35-0.062,0.699-0.118,1.059-0.176l1.986-0.292c0.294-0.04,0.588-0.079,0.871-0.114c0.36-0.043,0.72-0.084,1.104-0.125     l2.917-0.271c0.385-0.029,0.773-0.051,1.211-0.076l0.764-0.047c0.449-0.022,0.9-0.036,1.328-0.05l0.73-0.026     c1.35-0.035,2.712-0.035,4.074,0l0.7,0.025c0.449,0.014,0.901,0.029,1.335,0.05l0.839,0.052c0.383,0.023,0.768,0.043,1.187,0.076     l2.906,0.271c0.359,0.038,0.719,0.078,1.072,0.121c0.294,0.037,0.587,0.076,0.891,0.118l1.983,0.293     c0.351,0.056,0.701,0.112,1.056,0.174l2.832,0.543c0.343,0.073,0.685,0.148,1.028,0.224l0.9,0.205     c0.342,0.081,0.685,0.165,1.063,0.26l0.841,0.214c0.337,0.089,0.672,0.18,0.982,0.266l0.886,0.247     c0.34,0.099,0.677,0.201,1.007,0.3l4.547,1.516c0.256,0.093,0.509,0.191,0.764,0.289l1.03,0.394     c0.516,0.203,1.025,0.416,1.538,0.628l0.877,0.378c0.371,0.16,0.74,0.32,1.106,0.484l2.763,1.316     c0.218,0.107,0.437,0.214,0.67,0.333c0.275,0.14,0.548,0.285,0.867,0.452c0.283,0.147,0.565,0.294,0.822,0.432l0.883,0.487     c0.261,0.144,0.521,0.288,0.791,0.443c0.276,0.158,0.552,0.317,0.821,0.476l0.824,0.485c0.274,0.165,0.545,0.332,0.822,0.504     c0.262,0.162,0.523,0.324,0.812,0.506c0.268,0.169,0.535,0.343,0.804,0.518c0.256,0.166,0.513,0.335,0.779,0.513     c0.261,0.175,0.522,0.349,0.82,0.554c0.242,0.164,0.48,0.33,0.773,0.536c0.254,0.176,0.507,0.354,0.768,0.543l1.532,1.128     c0.247,0.187,0.493,0.378,0.731,0.561l2.257,1.804c0.207,0.172,0.413,0.348,0.618,0.523c0.01,0.009,0.093,0.08,0.103,0.087     l0.705,0.601c0.216,0.188,0.427,0.378,0.641,0.568l0.77,0.685c0.023,0.023,0.047,0.044,0.07,0.067     c5.416,4.948,10.141,10.602,14.065,16.833l0.316,0.506c0.928,1.502,1.812,3.036,2.62,4.555l0.299,0.567     c0.819,1.569,1.592,3.172,2.292,4.758l0.258,0.593c0.697,1.608,1.352,3.27,1.956,4.959l0.207,0.59     c0.584,1.682,1.118,3.397,1.593,5.125l0.166,0.613c0.463,1.738,0.87,3.503,1.217,5.279l0.121,0.634     c0.333,1.782,0.61,3.595,0.824,5.386l0.077,0.681c0.1,0.913,0.192,1.826,0.262,2.751c0.07,0.921,0.118,1.845,0.158,2.755     l0.026,0.697c0.03,0.932,0.054,1.868,0.054,2.811c0,2.784-0.141,5.585-0.421,8.328c-0.138,1.362-0.312,2.732-0.517,4.074     c-0.507,3.321-1.23,6.644-2.148,9.879c-1.302,4.587,1.362,9.362,5.95,10.664c4.583,1.303,9.362-1.363,10.664-5.95     c1.113-3.923,1.99-7.956,2.605-11.985c0.248-1.628,0.46-3.288,0.627-4.935c0.338-3.32,0.509-6.711,0.509-10.075     c0-1.132-0.025-2.256-0.066-3.441l-0.03-0.797c-0.049-1.12-0.107-2.236-0.192-3.349c-0.085-1.113-0.194-2.216-0.314-3.31     l-0.095-0.83c-0.258-2.176-0.594-4.373-0.995-6.518c-0.053-0.283-0.107-0.562-0.156-0.815c-0.416-2.122-0.91-4.267-1.474-6.39     l-0.206-0.761c-0.569-2.07-1.217-4.153-1.917-6.167c-0.091-0.264-0.185-0.53-0.272-0.774c-0.722-2.023-1.518-4.039-2.353-5.968     l-0.321-0.734c-0.854-1.932-1.789-3.874-2.775-5.762l-0.364-0.69c-0.988-1.854-2.057-3.714-3.205-5.57l-0.382-0.61     c-4.725-7.506-10.441-14.346-16.988-20.334c-0.045-0.042-0.089-0.082-0.131-0.119c-0.235-0.213-0.473-0.425-0.711-0.636     l-0.148-0.131c-0.275-0.247-0.55-0.493-0.827-0.733c-0.228-0.2-0.459-0.394-0.689-0.589l-0.234-0.199     c-0.283-0.242-0.563-0.481-0.823-0.696c-0.264-0.22-0.53-0.435-0.797-0.652l-0.281-0.227c-0.237-0.193-0.474-0.384-0.713-0.574     l-0.922-0.717c-0.299-0.231-0.599-0.463-0.888-0.68c-0.278-0.21-0.558-0.418-0.836-0.624l-1.012-0.739     c-0.331-0.239-0.664-0.473-0.944-0.668c-0.323-0.228-0.646-0.452-0.934-0.648c-0.329-0.227-0.659-0.449-0.98-0.662     c-0.319-0.214-0.641-0.426-0.961-0.633c-0.33-0.215-0.661-0.428-0.967-0.622c-0.326-0.207-0.654-0.411-0.977-0.61     c-0.331-0.204-0.663-0.409-1.028-0.628l-0.957-0.564c-0.335-0.196-0.67-0.392-0.996-0.579c-0.353-0.202-0.706-0.398-1.032-0.576     l-1.019-0.561c-0.348-0.188-0.697-0.369-1.003-0.528c-0.342-0.18-0.685-0.361-1.012-0.528c-0.308-0.158-0.618-0.31-0.928-0.463     l-2.586-1.237c-0.236-0.111-0.473-0.221-0.711-0.328c-0.443-0.2-0.887-0.392-1.372-0.601l-0.268-0.115     c-0.256-0.111-0.513-0.221-0.768-0.328c-0.61-0.255-1.222-0.507-1.859-0.759l-1.147-0.439c-0.343-0.132-0.686-0.264-1.007-0.382     c-0.262-0.097-0.528-0.191-0.793-0.284l-0.469-0.166c-0.317-0.112-0.635-0.226-0.971-0.341l-3.287-1.051     c-0.396-0.119-0.793-0.24-1.22-0.363l-1.063-0.297c-0.402-0.11-0.805-0.22-1.196-0.323c-0.343-0.091-0.689-0.177-1.103-0.282     c-0.405-0.1-0.811-0.202-1.249-0.304l-1.057-0.243c-0.408-0.092-0.817-0.18-1.236-0.269l-3.455-0.663     c-0.426-0.073-0.852-0.144-1.273-0.211l-1.14-0.178c-0.419-0.06-0.84-0.118-1.25-0.174c-0.368-0.051-0.737-0.1-1.114-0.147     c-0.45-0.055-0.901-0.106-1.329-0.151l-1.097-0.12c-0.38-0.036-0.76-0.068-1.141-0.101l-1.239-0.103     c-0.492-0.038-0.987-0.067-1.44-0.093l-0.206-0.013c-0.273-0.018-0.546-0.036-0.833-0.05c-0.534-0.025-1.073-0.043-1.637-0.063     l-0.791-0.026c-1.582-0.041-3.277-0.043-4.944,0l-0.822,0.027c-0.54,0.018-1.077,0.036-1.63,0.063     c-0.272,0.013-0.544,0.03-0.815,0.049l-0.158,0.01c-0.499,0.028-0.997,0.058-1.457,0.093l-1.282,0.107     c-0.379,0.032-0.757,0.065-1.188,0.107l-1.018,0.111c-0.45,0.049-0.9,0.098-1.362,0.155c-0.369,0.045-0.736,0.095-1.089,0.144     l-2.4,0.353c-0.425,0.068-0.85,0.138-1.268,0.21l-2.378,0.441c-0.365,0.073-0.73,0.147-1.093,0.224     c-0.411,0.086-0.821,0.175-1.235,0.269l-1.078,0.247c-0.409,0.096-0.816,0.198-1.294,0.316c-0.342,0.086-0.688,0.173-1.012,0.258     c-0.384,0.102-0.766,0.205-1.238,0.336l-1.078,0.3c-0.403,0.117-0.802,0.237-1.188,0.354l-3.291,1.053     c-0.318,0.109-0.635,0.221-0.951,0.335l-0.478,0.169c-0.266,0.093-0.531,0.187-0.77,0.275c-0.344,0.125-0.688,0.258-1.031,0.39     l-1.176,0.45c-0.613,0.244-1.226,0.495-1.828,0.748l-1.198,0.514c-0.408,0.176-0.815,0.353-1.211,0.531     c-0.239,0.107-0.474,0.217-0.71,0.328l-0.608,0.283c-0.264,0.122-0.528,0.246-0.811,0.381c-0.273,0.131-0.543,0.266-0.813,0.399     l-0.167,0.083c-0.358,0.176-0.719,0.353-1.107,0.55c-0.307,0.158-0.611,0.317-0.987,0.515c-0.345,0.18-0.692,0.36-1.058,0.558     c-0.288,0.156-0.573,0.314-0.859,0.473l-0.109,0.06c-0.358,0.196-0.717,0.395-1.049,0.586c-0.335,0.191-0.666,0.384-1.012,0.586     l-0.982,0.582c-0.336,0.202-0.667,0.406-0.993,0.608c-0.328,0.203-0.656,0.406-0.944,0.589c-0.338,0.211-0.672,0.428-1.004,0.644     c-0.322,0.208-0.642,0.421-0.949,0.626c-0.329,0.219-0.655,0.438-0.956,0.644c-0.326,0.221-0.649,0.446-0.904,0.627     c-0.34,0.236-0.676,0.473-1.001,0.707c-0.304,0.218-0.608,0.44-0.997,0.727c-0.287,0.212-0.574,0.425-0.851,0.634     c-0.299,0.227-0.597,0.456-0.895,0.685c-0.31,0.24-0.62,0.478-0.941,0.734c-0.297,0.235-0.591,0.473-0.875,0.704l-0.105,0.084     c-0.267,0.216-0.532,0.431-0.771,0.63c-0.261,0.215-0.519,0.435-0.779,0.655l-0.275,0.234c-0.241,0.203-0.479,0.407-0.716,0.611     c-0.278,0.243-0.554,0.489-0.829,0.736l-0.148,0.131c-0.239,0.21-0.476,0.423-0.757,0.676c-0.054,0.049-0.109,0.099-0.162,0.15     c-6.518,5.973-12.208,12.79-16.895,20.238l-0.424,0.675c-1.122,1.818-2.192,3.677-3.184,5.541l-0.352,0.667     c-0.987,1.886-1.922,3.829-2.786,5.781l-0.304,0.698c-0.842,1.942-1.638,3.959-2.358,5.977c-0.095,0.262-0.189,0.528-0.271,0.768     c-0.127,0.365-0.241,0.736-0.364,1.104c-0.041-0.023-0.083-0.042-0.124-0.065c-0.751-0.403-1.507-0.798-2.271-1.174     c-0.547-0.271-1.099-0.531-1.654-0.789c-0.518-0.24-1.04-0.472-1.565-0.699c-0.654-0.286-1.307-0.573-1.971-0.841     c-0.138-0.056-0.278-0.104-0.417-0.159c-0.967-0.387-1.941-0.775-2.934-1.12c7.195-20.741,20.652-39.193,38.358-52.433     c19.208-14.364,42.074-21.956,66.129-21.956s46.921,7.592,66.128,21.954c19.363,14.481,33.643,35.19,40.211,58.313     c2.782,9.796,4.193,19.977,4.193,30.263c0,1.004-0.016,2.003-0.042,2.999l-0.039,1.006c-0.024,0.659-0.046,1.32-0.081,1.961     l-0.076,1.198c-0.038,0.599-0.077,1.195-0.121,1.752c-0.033,0.409-0.07,0.816-0.112,1.262c-0.053,0.571-0.106,1.142-0.165,1.705     c-0.044,0.407-0.092,0.812-0.142,1.249c-0.068,0.559-0.136,1.117-0.208,1.666c-0.058,0.425-0.117,0.848-0.177,1.264     c-0.081,0.556-0.167,1.113-0.25,1.637c-0.068,0.421-0.138,0.841-0.209,1.257c-0.094,0.547-0.194,1.094-0.307,1.69     c-0.074,0.393-0.149,0.788-0.227,1.181c-0.111,0.559-0.231,1.113-0.346,1.648l-0.255,1.169c-0.128,0.564-0.266,1.128-0.423,1.768     l-0.248,1.022c-0.186,0.721-0.381,1.438-0.582,2.168l-0.164,0.609c-0.259,0.915-0.53,1.824-0.821,2.755l-0.247,0.757     c-0.206,0.651-0.417,1.297-0.634,1.937l-0.439,1.244c-0.168,0.478-0.338,0.957-0.505,1.413l-0.43,1.126     c-0.198,0.517-0.393,1.031-0.591,1.527l-0.464,1.134c-0.207,0.499-0.414,0.997-0.634,1.506c-0.161,0.377-0.326,0.75-0.489,1.12     c-0.218,0.49-0.437,0.979-0.661,1.462c-0.173,0.376-0.348,0.749-0.523,1.121c-0.23,0.485-0.466,0.967-0.694,1.431l-0.541,1.091     c-0.249,0.492-0.506,0.98-0.758,1.462l-0.146,0.275c-0.132,0.253-0.263,0.505-0.406,0.767c-0.272,0.506-0.553,1.007-0.832,1.508     l-0.531,0.953c-0.318,0.557-0.645,1.106-0.983,1.673l-0.436,0.74c-0.485,0.8-0.979,1.593-1.457,2.339l-0.237,0.359     c-0.434,0.671-0.874,1.341-1.346,2.036l-0.54,0.778c-0.342,0.498-0.685,0.994-1.045,1.496l-0.686,0.94     c-0.32,0.436-0.64,0.875-0.976,1.321l-0.694,0.904c-0.338,0.437-0.677,0.876-1.008,1.292c-0.246,0.309-0.493,0.613-0.748,0.927     c-0.343,0.423-0.69,0.844-1.031,1.252c-0.252,0.301-0.506,0.603-0.76,0.9c-0.354,0.413-0.71,0.825-1.085,1.248     c-0.251,0.287-0.503,0.571-0.773,0.871c-0.367,0.409-0.738,0.813-1.142,1.245c-0.247,0.268-0.492,0.534-0.745,0.801     c-0.403,0.427-0.813,0.847-1.205,1.25l-0.731,0.749c-0.464,0.466-0.936,0.925-1.401,1.377l-0.6,0.585     c-0.669,0.641-1.345,1.273-2.031,1.897c-0.012,0.012-0.024,0.023-0.036,0.033c-0.669,0.607-1.345,1.206-2.028,1.796     c-0.043,0.036-0.086,0.072-0.128,0.11c-4.935,4.257-10.294,8.108-15.929,11.444c-0.072,0.042-0.152,0.092-0.233,0.145     l-0.262,0.15c-0.746,0.436-1.498,0.863-2.216,1.263l-0.635,0.353c-0.924,0.506-1.859,0.998-2.828,1.491     c0.158-0.59,0.3-1.187,0.439-1.785c0.011-0.045,0.022-0.091,0.031-0.136c0.271-1.171,0.51-2.353,0.709-3.549     c0.008-0.043,0.016-0.085,0.023-0.128c0.079-0.479,0.149-0.961,0.216-1.444c0.058-0.417,0.11-0.834,0.16-1.253     c0.044-0.375,0.093-0.747,0.128-1.124c0.077-0.773,0.132-1.547,0.177-2.323c0.014-0.254,0.027-0.507,0.038-0.762     c0.035-0.759,0.056-1.52,0.06-2.282c11.732-7.308,21.926-17.091,29.688-28.548c2.676-3.948,1.642-9.318-2.305-11.991     c-3.947-2.673-9.317-1.643-11.991,2.305c-5.019,7.408-11.267,13.972-18.394,19.367c-0.065-0.192-0.145-0.379-0.21-0.57     c-0.248-0.718-0.512-1.428-0.787-2.134c-0.152-0.391-0.301-0.783-0.462-1.169c-0.276-0.665-0.572-1.319-0.872-1.971     c-0.366-0.798-0.752-1.584-1.154-2.365c-0.221-0.43-0.437-0.863-0.669-1.287c-0.328-0.601-0.676-1.192-1.025-1.781     c-0.178-0.3-0.357-0.6-0.541-0.897c-0.39-0.63-0.788-1.255-1.201-1.872c-0.111-0.164-0.226-0.325-0.338-0.488     c-1.446-2.109-3.034-4.126-4.759-6.043c-0.112-0.125-0.223-0.25-0.337-0.375c-0.562-0.615-1.138-1.22-1.729-1.813     C353.834,247.042,353.739,246.952,353.646,246.859z"/>
			<path d="M473.043,380.737h-29.117c-4.768,0-8.635,3.866-8.635,8.635s3.866,8.635,8.635,8.635h29.117     c4.768,0,8.635-3.866,8.635-8.635S477.811,380.737,473.043,380.737z"/>
			<path d="M424.497,389.372c0-4.768-3.866-8.635-8.635-8.635H38.957c-4.768,0-8.635,3.866-8.635,8.635s3.866,8.635,8.635,8.635     h376.906C420.631,398.007,424.497,394.141,424.497,389.372z"/>
			<path d="M432.658,431.757H192.439c-4.768,0-8.635,3.866-8.635,8.635s3.866,8.635,8.635,8.635h240.219     c4.768,0,8.635-3.866,8.635-8.635S437.427,431.757,432.658,431.757z"/>
			<path d="M171.935,440.391c0-4.768-3.866-8.635-8.635-8.635H79.342c-4.768,0-8.635,3.866-8.635,8.635s3.866,8.635,8.635,8.635     H163.3C168.068,449.026,171.935,445.16,171.935,440.391z"/>
			<path d="M389.117,482.78H291.74c-4.768,0-8.635,3.866-8.635,8.635s3.866,8.635,8.635,8.635h97.377     c4.768,0,8.635-3.866,8.635-8.635S393.886,482.78,389.117,482.78z"/>
			<path d="M261.516,482.78H122.885c-4.768,0-8.635,3.866-8.635,8.635s3.866,8.635,8.635,8.635h138.631     c4.768,0,8.635-3.866,8.635-8.635S266.284,482.78,261.516,482.78z"/>
		</g>
	</g>
</g>
<g>
</g>
<g>
</g>
<g>
</g>
<g>
</g>
<g>
</g>
<g>
</g>
<g>
</g>
<g>
</g>
<g>
</g>
<g>
</g>
<g>
</g>
<g>
</g>
<g>
</g>
<g>
</g>
<g>
</g>
</svg>
