<?xml version="1.0" encoding="iso-8859-1"?>
<!-- Generator: Adobe Illustrator 19.0.0, SVG Export Plug-In . SVG Version: 6.00 Build 0)  -->
<svg xmlns="http://www.w3.org/2000/svg" xmlns:xlink="http://www.w3.org/1999/xlink" version="1.1" id="Layer_1" x="0px" y="0px" viewBox="0 0 512 512" style="enable-background:new 0 0 512 512;" xml:space="preserve">
<g>
	<g>
		<g>
			<path d="M200.121,53.968c4.752,0,8.605-3.853,8.605-8.605V8.605c0-4.752-3.853-8.605-8.605-8.605s-8.605,3.853-8.605,8.605     v36.758C191.515,50.115,195.368,53.968,200.121,53.968z"/>
			<path d="M119.464,69.279c1.594,2.76,4.486,4.304,7.462,4.304c1.459,0,2.939-0.372,4.294-1.153     c4.115-2.377,5.527-7.64,3.151-11.756l-18.378-31.833c-2.376-4.114-7.638-5.526-11.756-3.151     c-4.115,2.377-5.527,7.64-3.151,11.756L119.464,69.279z"/>
			<path d="M37.192,107.638l31.832,18.378c1.355,0.783,2.834,1.154,4.294,1.154c2.974,0,5.866-1.544,7.461-4.304     c2.377-4.115,0.966-9.378-3.149-11.754L45.797,92.735c-4.114-2.376-9.378-0.966-11.755,3.149     C31.666,100,33.076,105.262,37.192,107.638z"/>
			<path d="M53.713,200.374c4.752,0,8.605-3.853,8.605-8.605s-3.853-8.605-8.605-8.605H16.955c-4.752,0-8.605,3.853-8.605,8.605     s3.853,8.605,8.605,8.605H53.713z"/>
			<path d="M37.192,275.899c-4.115,2.376-5.527,7.639-3.149,11.755c1.593,2.76,4.485,4.304,7.461,4.304     c1.459,0,2.939-0.372,4.294-1.154l31.832-18.378c4.115-2.376,5.527-7.639,3.149-11.755c-2.375-4.114-7.637-5.527-11.755-3.149     L37.192,275.899z"/>
			<path d="M326.919,127.171c1.458,0,2.939-0.372,4.294-1.153l31.834-18.378c4.115-2.376,5.527-7.64,3.151-11.756     c-2.376-4.114-7.638-5.526-11.756-3.151l-31.834,18.379c-4.115,2.376-5.527,7.64-3.151,11.756     C321.053,125.628,323.944,127.171,326.919,127.171z"/>
			<path d="M269.02,72.43c1.355,0.782,2.834,1.153,4.294,1.153c2.974,0,5.867-1.544,7.462-4.304l18.378-31.833     c2.376-4.115,0.965-9.378-3.151-11.756c-4.115-2.373-9.378-0.965-11.756,3.151L265.87,60.674     C263.493,64.789,264.904,70.053,269.02,72.43z"/>
			<path d="M260.074,408.505c0-4.752-3.853-8.605-8.605-8.605H95.858c-23.509,0-42.637-19.128-42.637-42.639     c0-23.509,19.127-42.637,42.637-42.637c3.629,0,7.239,0.458,10.732,1.362c3.492,0.901,7.176-0.468,9.229-3.43     c4.974-7.179,12.582-11.967,21.02-13.438c0.586-0.101,1.172-0.191,1.758-0.26c0.146-0.017,0.295-0.026,0.441-0.041     c0.512-0.054,1.023-0.101,1.534-0.13c0.259-0.014,0.52-0.016,0.78-0.024c0.386-0.013,0.772-0.027,1.157-0.025     c0.794,0.003,1.584,0.034,2.373,0.096c0.132,0.011,0.264,0.029,0.396,0.041c0.656,0.059,1.31,0.139,1.961,0.238     c0.233,0.036,0.466,0.076,0.697,0.117c0.571,0.1,1.139,0.217,1.704,0.349c0.225,0.052,0.45,0.1,0.673,0.157     c0.763,0.195,1.522,0.409,2.273,0.659c0.394,0.131,0.795,0.222,1.198,0.295c0.099,0.018,0.197,0.034,0.297,0.049     c0.398,0.057,0.798,0.095,1.198,0.096c0.011,0,0.022,0.002,0.032,0.002c0.066,0,0.13-0.011,0.196-0.013     c0.258-0.005,0.516-0.02,0.773-0.049c0.12-0.014,0.239-0.034,0.358-0.053c0.217-0.034,0.432-0.074,0.646-0.125     c0.123-0.029,0.245-0.059,0.367-0.094c0.218-0.062,0.435-0.134,0.649-0.214c0.105-0.039,0.213-0.074,0.316-0.117     c0.313-0.13,0.621-0.274,0.919-0.442c0.529-0.299,1.022-0.65,1.469-1.046c1.345-1.186,2.297-2.775,2.7-4.554     c0.215-0.953,0.455-1.898,0.717-2.836c0.016-0.058,0.034-0.115,0.051-0.173c1.544-5.455,3.882-10.642,6.884-15.415     c0.146-0.233,0.287-0.469,0.437-0.7c0.4-0.619,0.819-1.224,1.242-1.828c0.204-0.29,0.41-0.581,0.618-0.868     c0.416-0.571,0.84-1.136,1.276-1.692c0.246-0.313,0.5-0.62,0.752-0.928c0.428-0.525,0.856-1.051,1.303-1.562     c0.363-0.414,0.741-0.813,1.114-1.217c0.624-0.675,1.263-1.336,1.918-1.983c0.467-0.459,0.933-0.921,1.413-1.365     c0.349-0.323,0.707-0.634,1.063-0.948c0.508-0.446,1.02-0.887,1.542-1.317c0.343-0.283,0.688-0.563,1.039-0.837     c0.589-0.464,1.19-0.912,1.796-1.353c0.3-0.218,0.597-0.442,0.901-0.655c0.921-0.642,1.854-1.266,2.812-1.857     c0.082-0.051,0.167-0.097,0.248-0.147c0.002-0.001,0.003-0.002,0.005-0.003c0.137-0.083,0.275-0.162,0.412-0.244     c0.698-0.417,1.403-0.82,2.116-1.207c0.002-0.001,0.004-0.002,0.006-0.003l0.116-0.065c0.268-0.146,0.537-0.293,0.808-0.435     c0.002-0.001,0.004-0.002,0.006-0.004c0.393-0.204,0.789-0.4,1.186-0.596c0.27-0.133,0.541-0.266,0.815-0.394     c0.006-0.003,0.012-0.006,0.017-0.01c0.418-0.198,0.839-0.391,1.261-0.58c0.256-0.113,0.513-0.224,0.77-0.333     c0.444-0.19,0.887-0.38,1.336-0.559c0.084-0.033,0.17-0.065,0.255-0.098c1.696-0.668,3.424-1.255,5.174-1.764     c0.198-0.058,0.396-0.117,0.595-0.172c0.497-0.139,0.997-0.27,1.497-0.396c0.231-0.057,0.464-0.114,0.695-0.169     c0.492-0.117,0.984-0.232,1.479-0.337c0.201-0.043,0.404-0.08,0.607-0.12c0.87-0.174,1.745-0.328,2.622-0.464     c0.328-0.052,0.655-0.106,0.985-0.152c0.347-0.048,0.697-0.085,1.046-0.127c0.46-0.055,0.921-0.108,1.383-0.152     c0.302-0.029,0.604-0.054,0.908-0.079c0.536-0.044,1.076-0.078,1.616-0.106c0.003,0,0.006-0.001,0.01-0.001     c0.258-0.014,0.516-0.03,0.774-0.04c0.8-0.032,1.602-0.054,2.408-0.054c32.821,0,59.521,26.7,59.521,59.521     c0,0.521-0.02,1.039-0.038,1.554l-0.017,0.473c-0.091,2.787,1.174,5.446,3.393,7.133c2.22,1.688,5.122,2.196,7.78,1.362     c4.06-1.273,8.297-1.917,12.591-1.917c0.848,0,1.693,0.032,2.536,0.084c0.217,0.013,0.432,0.033,0.65,0.049     c0.664,0.051,1.325,0.114,1.985,0.196c0.191,0.024,0.384,0.047,0.574,0.073c1.721,0.238,3.425,0.575,5.1,1.023     c0.048,0.013,0.096,0.028,0.144,0.041c0.77,0.209,1.534,0.443,2.291,0.695c0.149,0.051,0.3,0.1,0.448,0.152     c0.717,0.248,1.428,0.515,2.132,0.802c0.096,0.039,0.194,0.074,0.289,0.114c0.768,0.319,1.525,0.665,2.273,1.03     c0.198,0.097,0.39,0.201,0.585,0.3c0.532,0.271,1.06,0.553,1.581,0.846c12.794,7.217,21.458,20.932,21.458,36.639     c0,23.184-18.862,42.045-42.046,42.045h-24.835c-4.752,0-8.605,3.853-8.605,8.605s3.853,8.605,8.605,8.605h24.835     c32.674,0,59.256-26.582,59.256-59.255c0-13.197-4.34-25.397-11.663-35.256h43.035c4.752,0,8.605-3.853,8.605-8.605     s-3.853-8.605-8.605-8.605h-63.096c-0.248-0.13-0.506-0.242-0.756-0.369c-0.639-0.325-1.282-0.64-1.934-0.942     c-0.333-0.154-0.668-0.307-1.004-0.455c-0.787-0.347-1.584-0.677-2.389-0.99c-0.204-0.08-0.407-0.165-0.611-0.241     c-2.137-0.806-4.333-1.49-6.578-2.047c-0.09-0.023-0.181-0.041-0.271-0.062c-0.99-0.241-1.989-0.455-2.998-0.644     c-0.231-0.044-0.463-0.084-0.695-0.125c-0.869-0.153-1.746-0.286-2.628-0.401c-0.287-0.038-0.574-0.076-0.863-0.11     c-0.851-0.098-1.707-0.173-2.568-0.234c-0.286-0.02-0.571-0.049-0.858-0.066c-1.12-0.063-2.245-0.103-3.38-0.103     c-2.326,0-4.64,0.134-6.935,0.403c-4.107-38.468-36.758-68.529-76.297-68.529c-1.174,0-2.344,0.032-3.513,0.086     c-0.312,0.014-0.622,0.038-0.934,0.056c-0.595,0.033-1.191,0.07-1.782,0.116c-0.016,0.001-0.031,0.004-0.047,0.006     c-0.226,0.018-0.452,0.041-0.678,0.061c-0.382,0.034-0.763,0.072-1.143,0.112c-0.425,0.045-0.85,0.088-1.271,0.139     c-0.047,0.005-0.094,0.017-0.141,0.024c-0.213,0.027-0.426,0.056-0.639,0.084c-0.101,0.011-0.2,0.012-0.301,0.026     c-0.166,0.023-0.329,0.053-0.495,0.076c-0.266,0.038-0.529,0.082-0.794,0.123c-0.371,0.058-0.744,0.109-1.114,0.171     c-0.086,0.014-0.168,0.038-0.252,0.055c-0.115,0.015-0.229,0.023-0.345,0.042c-0.011,0.002-0.015,0.002-0.023,0.004     c-0.366,0.065-0.726,0.145-1.09,0.215c-0.123,0.024-0.246,0.04-0.368,0.063c0.012-0.011,0.023-0.022,0.034-0.031     c0.449-0.396,0.906-0.783,1.37-1.161c0.097-0.078,0.198-0.154,0.296-0.231c0.367-0.293,0.737-0.581,1.113-0.86     c0.171-0.127,0.346-0.25,0.52-0.374c0.31-0.224,0.62-0.445,0.936-0.66c0.198-0.134,0.399-0.266,0.599-0.397     c0.298-0.196,0.598-0.389,0.901-0.578c0.212-0.131,0.425-0.259,0.638-0.387c0.301-0.18,0.606-0.356,0.911-0.528     c0.217-0.123,0.436-0.245,0.656-0.364c0.311-0.168,0.626-0.331,0.941-0.492c0.219-0.112,0.437-0.224,0.658-0.331     c0.337-0.163,0.677-0.319,1.018-0.475c0.202-0.093,0.403-0.188,0.608-0.276c0.427-0.186,0.858-0.361,1.292-0.534     c0.124-0.049,0.244-0.102,0.368-0.151c0.554-0.214,1.112-0.415,1.676-0.606c0.182-0.061,0.367-0.115,0.55-0.174     c0.388-0.126,0.777-0.25,1.169-0.364c0.228-0.067,0.459-0.126,0.688-0.189c0.353-0.096,0.707-0.191,1.064-0.279     c0.244-0.06,0.49-0.115,0.736-0.17c0.347-0.078,0.695-0.153,1.044-0.223c0.252-0.049,0.504-0.097,0.757-0.143     c0.351-0.063,0.703-0.12,1.057-0.174c0.251-0.039,0.501-0.076,0.753-0.11c0.368-0.049,0.738-0.091,1.108-0.13     c0.24-0.026,0.479-0.054,0.719-0.075c0.409-0.037,0.821-0.062,1.233-0.087c0.202-0.012,0.403-0.029,0.607-0.038     c0.616-0.028,1.235-0.044,1.855-0.044c4.295,0,8.533,0.645,12.593,1.917c0.391,0.123,0.787,0.208,1.185,0.273     c0.13,0.022,0.254,0.032,0.383,0.047c0.276,0.032,0.552,0.053,0.828,0.058c0.07,0.001,0.146,0.016,0.215,0.015     c0.086,0,0.17-0.011,0.256-0.014c0.116-0.004,0.231-0.01,0.347-0.018c0.243-0.017,0.482-0.046,0.719-0.083     c0.063-0.01,0.127-0.017,0.189-0.029c4.022-0.723,7.076-4.232,7.076-8.461c0-0.257-0.018-0.509-0.041-0.759     c-0.019-0.515-0.04-1.03-0.04-1.551c0-1.133,0.044-2.258,0.107-3.38c0.014-0.246,0.034-0.492,0.052-0.737     c0.012-0.177,0.027-0.355,0.041-0.532c0.053-0.688,0.119-1.374,0.196-2.055c0.024-0.205,0.046-0.412,0.072-0.616     c0.041-0.332,0.081-0.665,0.127-0.996c0.076-0.546,0.169-1.089,0.26-1.631c0.022-0.128,0.04-0.257,0.062-0.384     c0.051-0.288,0.1-0.578,0.155-0.866c0.129-0.67,0.27-1.337,0.423-2c0.006-0.028,0.012-0.056,0.018-0.083     c0.04-0.174,0.079-0.347,0.12-0.521c0.18-0.746,0.37-1.49,0.578-2.225c0.026-0.091,0.052-0.182,0.077-0.273     c2.931-10.23,8.546-19.402,16.077-26.637c0.045-0.043,0.09-0.086,0.136-0.129c0.579-0.552,1.168-1.093,1.769-1.622     c0.088-0.077,0.177-0.153,0.266-0.23c0.573-0.499,1.154-0.989,1.747-1.465c0.12-0.097,0.243-0.19,0.364-0.286     c0.576-0.456,1.157-0.906,1.75-1.341c0.134-0.099,0.272-0.193,0.408-0.29c0.366-0.263,0.738-0.52,1.109-0.776     c0.372-0.255,0.744-0.512,1.124-0.759c2.669-1.748,5.489-3.286,8.438-4.593c0.189-0.084,0.374-0.173,0.564-0.255     c0.617-0.266,1.246-0.514,1.875-0.759c0.227-0.089,0.452-0.183,0.68-0.269c0.638-0.24,1.283-0.464,1.931-0.682     c0.22-0.074,0.439-0.152,0.659-0.224c0.674-0.218,1.355-0.422,2.04-0.616c0.193-0.055,0.384-0.112,0.578-0.165     c0.723-0.198,1.451-0.381,2.185-0.552c0.152-0.036,0.302-0.071,0.454-0.105c0.78-0.175,1.566-0.336,2.358-0.48     c0.096-0.017,0.193-0.034,0.289-0.052c0.847-0.15,1.698-0.284,2.558-0.397c2.579-0.343,5.205-0.537,7.877-0.537     c28.006,0,51.872,19.058,58.037,46.344c0.537,2.372,2.05,4.407,4.168,5.6c2.119,1.195,4.643,1.438,6.949,0.667     c3.308-1.102,6.749-1.663,10.227-1.663c10.581,0,20.504,5.205,26.541,13.923c2.053,2.964,5.731,4.334,9.23,3.431     c3.492-0.904,7.102-1.362,10.732-1.362c23.511,0,42.639,19.127,42.639,42.637c0,23.51-19.127,42.639-42.639,42.639h-20.96     c-4.752,0-8.605,3.853-8.605,8.605s3.853,8.605,8.605,8.605h20.96c33.001,0,59.849-26.848,59.849-59.849     c0-33-26.848-59.847-59.849-59.847c-3.159,0-6.309,0.247-9.417,0.74c-9.338-10.569-22.818-16.735-37.086-16.735     c-2.331,0-4.651,0.163-6.948,0.489c-4.689-13.386-13.091-25.381-24.211-34.381c-13.586-10.999-30.711-17.055-48.222-17.055     c-1.24,0-2.474,0.03-3.7,0.088c-21.234-43.486-65.342-71.257-114.103-71.257c-70.016,0-126.977,56.961-126.977,126.976     c0,37.413,16.317,72.404,44.316,96.388c-4.532,2.642-8.654,6.004-12.184,9.998c-3.109-0.493-6.259-0.74-9.418-0.74     c-33,0-59.847,26.847-59.847,59.847c0,33.001,26.847,59.849,59.847,59.849h155.611     C256.221,417.11,260.074,413.257,260.074,408.505z M90.353,191.769c0-60.526,49.241-109.766,109.767-109.766     c40.421,0,77.157,22.069,96.295,57.03c-1.609,0.47-3.188,1.008-4.751,1.579c-0.33,0.12-0.662,0.239-0.99,0.364     c-0.61,0.232-1.214,0.475-1.818,0.723c-0.375,0.155-0.75,0.312-1.123,0.472c-0.582,0.25-1.162,0.503-1.736,0.767     c-0.241,0.111-0.48,0.224-0.719,0.337c-4.561-8.005-10.221-15.31-16.896-21.799c-3.409-3.311-8.856-3.233-12.169,0.174     c-3.312,3.409-3.234,8.856,0.174,12.169c5.646,5.487,10.411,11.68,14.219,18.476c-14.835,11.591-24.732,28.021-28.112,46.335     c-0.019,0.102-0.038,0.205-0.056,0.308c-0.153,0.848-0.298,1.696-0.423,2.551c-0.054,0.363-0.095,0.729-0.144,1.093     c-0.084,0.637-0.183,1.269-0.251,1.909c-0.802-0.094-1.61-0.15-2.417-0.211c-1.501-0.114-3.004-0.191-4.517-0.191     c-0.801,0-1.601,0.017-2.396,0.051c-0.265,0.011-0.527,0.033-0.791,0.047c-0.494,0.027-0.99,0.049-1.48,0.089     c-0.034,0.003-0.069,0.008-0.104,0.011c-0.318,0.026-0.635,0.065-0.953,0.096c-0.469,0.046-0.939,0.089-1.406,0.146     c-0.335,0.041-0.667,0.094-1,0.14c-0.446,0.062-0.893,0.123-1.336,0.196c-0.343,0.056-0.683,0.123-1.025,0.185     c-0.428,0.079-0.857,0.155-1.283,0.242c-0.349,0.071-0.694,0.152-1.04,0.23c-0.415,0.094-0.83,0.185-1.242,0.287     c-0.35,0.086-0.695,0.181-1.042,0.273c-0.404,0.108-0.809,0.216-1.211,0.332c-0.349,0.101-0.694,0.209-1.039,0.316     c-0.396,0.123-0.791,0.245-1.183,0.376c-0.345,0.115-0.688,0.236-1.031,0.357c-0.386,0.137-0.772,0.274-1.155,0.419     c-0.342,0.129-0.682,0.263-1.022,0.398c-0.379,0.151-0.756,0.304-1.132,0.463c-0.336,0.142-0.67,0.288-1.003,0.436     c-0.372,0.166-0.743,0.333-1.112,0.507c-0.33,0.155-0.658,0.313-0.985,0.473c-0.366,0.18-0.728,0.362-1.09,0.55     c-0.323,0.167-0.643,0.336-0.963,0.508c-0.358,0.194-0.714,0.392-1.068,0.593c-0.316,0.18-0.631,0.359-0.943,0.544     c-0.35,0.207-0.696,0.418-1.041,0.632c-0.309,0.19-0.616,0.382-0.922,0.579c-0.343,0.222-0.682,0.449-1.021,0.677     c-0.298,0.201-0.597,0.401-0.892,0.608c-0.337,0.236-0.669,0.478-1,0.721c-0.288,0.211-0.577,0.419-0.861,0.636     c-0.331,0.252-0.657,0.51-0.983,0.768c-0.275,0.218-0.553,0.435-0.825,0.657c-0.326,0.268-0.646,0.544-0.967,0.819     c-0.262,0.225-0.527,0.446-0.785,0.677c-0.323,0.286-0.639,0.582-0.955,0.875c-0.246,0.229-0.497,0.454-0.74,0.687     c-0.32,0.307-0.632,0.623-0.945,0.937c-0.23,0.23-0.465,0.457-0.691,0.692c-0.327,0.339-0.644,0.686-0.964,1.033     c-0.202,0.219-0.41,0.435-0.609,0.657c-0.37,0.413-0.728,0.837-1.086,1.261c-0.14,0.166-0.284,0.325-0.422,0.492     c-0.49,0.594-0.97,1.197-1.438,1.81c-0.116,0.153-0.226,0.311-0.341,0.465c-0.347,0.465-0.694,0.93-1.028,1.406     c-0.17,0.242-0.331,0.493-0.499,0.738c-0.269,0.395-0.539,0.787-0.799,1.19c-0.18,0.279-0.35,0.564-0.525,0.845     c-0.236,0.378-0.472,0.754-0.699,1.138c-0.176,0.299-0.343,0.603-0.515,0.906c-0.213,0.375-0.428,0.751-0.634,1.132     c-0.169,0.314-0.33,0.635-0.494,0.952c-0.194,0.376-0.389,0.752-0.575,1.134c-0.161,0.33-0.314,0.665-0.469,0.999     c-0.175,0.378-0.352,0.754-0.518,1.136c-0.151,0.343-0.294,0.691-0.438,1.038c-0.158,0.381-0.316,0.762-0.468,1.147     c-0.139,0.356-0.271,0.714-0.403,1.073c-0.092,0.25-0.191,0.495-0.281,0.747c-1.819,1.227-3.588,2.534-5.301,3.921     c-1.685,1.364-3.3,2.805-4.858,4.301c-0.06,0.058-0.12,0.116-0.18,0.173c-0.712,0.688-1.411,1.39-2.095,2.105     c-0.07,0.073-0.14,0.144-0.21,0.216c-1.441,1.518-2.821,3.089-4.131,4.716c-0.214,0.266-0.419,0.538-0.63,0.806     c-0.386,0.493-0.77,0.987-1.143,1.489c-0.124,0.166-0.256,0.326-0.379,0.493c-24.863-14.312-40.568-41.069-40.568-70.06     c0-44.55,36.244-80.795,80.796-80.795c12.024,0,23.59,2.577,34.373,7.661c4.299,2.025,9.426,0.184,11.452-4.114     c2.026-4.299,0.184-9.427-4.114-11.452c-13.097-6.173-27.131-9.303-41.711-9.303c-54.041,0-98.006,43.965-98.006,98.005     c0,35.172,19.061,67.617,49.222,84.974c-0.294,0.678-0.573,1.361-0.849,2.046c-0.042,0.104-0.087,0.208-0.128,0.312     c-0.368,0.93-0.722,1.865-1.053,2.811c-2.295-0.326-4.614-0.489-6.945-0.489c-0.864,0-1.732,0.024-2.601,0.07     c-0.866,0.045-1.729,0.115-2.587,0.205C107.795,261.11,90.353,227.731,90.353,191.769z"/>
			<path d="M485.994,338.452c-3.797-2.855-9.193-2.089-12.048,1.712l-15.078,20.07c-2.854,3.799-2.088,9.193,1.712,12.048     c1.548,1.164,3.362,1.725,5.162,1.725c2.614,0,5.195-1.186,6.886-3.437l15.078-20.07     C490.56,346.701,489.794,341.308,485.994,338.452z"/>
			<path d="M451.437,384.45c-3.797-2.855-9.193-2.089-12.048,1.712l-15.078,20.07c-2.854,3.799-2.088,9.193,1.712,12.048     c1.548,1.164,3.362,1.725,5.162,1.725c2.614,0,5.195-1.186,6.886-3.437l15.078-20.07     C456.003,392.699,455.238,387.304,451.437,384.45z"/>
			<path d="M416.88,430.446c-3.798-2.855-9.193-2.089-12.048,1.712l-15.078,20.071c-2.854,3.799-2.088,9.193,1.712,12.048     c1.548,1.164,3.362,1.725,5.162,1.725c2.614,0,5.195-1.186,6.886-3.437l15.078-20.071     C421.448,438.695,420.682,433.3,416.88,430.446z"/>
			<path d="M382.325,476.444c-3.8-2.855-9.195-2.089-12.048,1.71l-15.08,20.071c-2.855,3.8-2.089,9.194,1.71,12.048     c1.549,1.164,3.364,1.725,5.163,1.725c2.614,0,5.195-1.186,6.885-3.436l15.08-20.071     C386.891,484.692,386.125,479.299,382.325,476.444z"/>
			<path d="M418.262,338.452c-3.798-2.855-9.193-2.089-12.048,1.712l-15.078,20.07c-2.854,3.799-2.088,9.193,1.712,12.048     c1.548,1.164,3.362,1.725,5.162,1.725c2.614,0,5.195-1.186,6.886-3.437l15.078-20.07     C422.828,346.701,422.062,341.308,418.262,338.452z"/>
			<path d="M383.705,384.45c-3.797-2.855-9.193-2.089-12.048,1.712l-15.078,20.07c-2.854,3.799-2.088,9.193,1.712,12.048     c1.548,1.164,3.362,1.725,5.162,1.725c2.614,0,5.195-1.186,6.886-3.437l15.078-20.07     C388.271,392.699,387.505,387.304,383.705,384.45z"/>
			<path d="M349.149,430.447c-3.801-2.855-9.196-2.089-12.048,1.71l-15.08,20.071c-2.855,3.8-2.089,9.194,1.71,12.048     c1.549,1.164,3.364,1.725,5.163,1.725c2.614,0,5.195-1.186,6.885-3.436l15.08-20.071     C353.714,438.695,352.948,433.3,349.149,430.447z"/>
			<path d="M314.592,476.444c-3.801-2.855-9.196-2.089-12.048,1.71l-15.08,20.071c-2.855,3.8-2.089,9.194,1.71,12.048     c1.549,1.164,3.364,1.725,5.163,1.725c2.614,0,5.195-1.186,6.885-3.436l15.08-20.071     C319.157,484.692,318.391,479.299,314.592,476.444z"/>
			<path d="M281.416,430.447c-3.8-2.855-9.196-2.089-12.048,1.71l-15.08,20.071c-2.855,3.8-2.089,9.194,1.71,12.048     c1.549,1.164,3.363,1.725,5.163,1.725c2.614,0,5.195-1.186,6.885-3.436l15.08-20.071     C285.98,438.695,285.215,433.3,281.416,430.447z"/>
			<path d="M246.856,476.443c-3.797-2.854-9.193-2.089-12.048,1.712l-15.078,20.071c-2.854,3.799-2.088,9.193,1.712,12.048     c1.548,1.164,3.362,1.725,5.162,1.725c2.614,0,5.195-1.186,6.886-3.437l15.078-20.071     C251.422,484.692,250.656,479.299,246.856,476.443z"/>
			<path d="M213.682,430.447c-3.8-2.855-9.196-2.089-12.048,1.71l-15.08,20.071c-2.855,3.8-2.089,9.194,1.71,12.048     c1.549,1.164,3.363,1.725,5.163,1.725c2.614,0,5.195-1.186,6.885-3.436l15.08-20.071     C218.247,438.695,217.481,433.3,213.682,430.447z"/>
			<path d="M179.122,476.443c-3.798-2.854-9.193-2.089-12.048,1.712l-15.078,20.071c-2.854,3.799-2.088,9.193,1.712,12.048     c1.548,1.164,3.362,1.725,5.162,1.725c2.614,0,5.195-1.186,6.886-3.437l15.078-20.071     C183.688,484.692,182.923,479.299,179.122,476.443z"/>
			<path d="M145.95,430.447c-3.8-2.855-9.196-2.089-12.048,1.71l-15.08,20.071c-2.855,3.8-2.089,9.194,1.71,12.048     c1.549,1.164,3.364,1.725,5.163,1.725c2.614,0,5.195-1.186,6.885-3.436l15.08-20.071     C150.515,438.695,149.749,433.3,145.95,430.447z"/>
			<path d="M111.39,476.443c-3.797-2.854-9.193-2.089-12.048,1.712l-15.078,20.071c-2.854,3.799-2.088,9.193,1.712,12.048     c1.548,1.164,3.362,1.725,5.162,1.725c2.614,0,5.195-1.186,6.886-3.437l15.078-20.071     C115.956,484.692,115.19,479.299,111.39,476.443z"/>
			<path d="M78.213,430.446c-3.798-2.855-9.193-2.089-12.048,1.712l-15.078,20.071c-2.854,3.799-2.088,9.193,1.712,12.048     c1.548,1.164,3.362,1.725,5.162,1.725c2.614,0,5.195-1.186,6.886-3.437l15.078-20.071     C82.779,438.695,82.013,433.3,78.213,430.446z"/>
			<path d="M43.657,476.444c-3.8-2.855-9.196-2.089-12.048,1.71l-15.08,20.071c-2.855,3.8-2.089,9.194,1.71,12.048     c1.549,1.164,3.364,1.725,5.163,1.725c2.614,0,5.195-1.186,6.885-3.436l15.08-20.071     C48.222,484.692,47.456,479.299,43.657,476.444z"/>
		</g>
	</g>
</g>
<g>
</g>
<g>
</g>
<g>
</g>
<g>
</g>
<g>
</g>
<g>
</g>
<g>
</g>
<g>
</g>
<g>
</g>
<g>
</g>
<g>
</g>
<g>
</g>
<g>
</g>
<g>
</g>
<g>
</g>
</svg>
