<?xml version="1.0" encoding="iso-8859-1"?>
<!-- Generator: Adobe Illustrator 19.0.0, SVG Export Plug-In . SVG Version: 6.00 Build 0)  -->
<svg xmlns="http://www.w3.org/2000/svg" xmlns:xlink="http://www.w3.org/1999/xlink" version="1.1" id="Layer_1" x="0px" y="0px" viewBox="0 0 511.999 511.999" style="enable-background:new 0 0 511.999 511.999;" xml:space="preserve">
<g>
	<g>
		<g>
			<path d="M465.893,78.74c-1.067,0-2.131,0.037-3.191,0.11c-4.13-28.549-28.763-50.552-58.439-50.552     c-24.922,0-46.542,15.217-55.148,37.893c-1.205-0.112-2.415-0.169-3.63-0.169c-0.919,0-1.831,0.044-2.74,0.109     c-6.555-13.592-16.462-25.244-28.966-33.971c-14.791-10.322-32.174-15.777-50.27-15.777c-20.081,0-39.72,6.945-55.299,19.558     c-13.06,10.571-22.853,24.746-28.149,40.544c-2.986-0.486-6.013-0.732-9.056-0.732c-16.477,0-32.033,7.237-42.663,19.609     c-3.802-0.646-7.66-0.972-11.526-0.972c-37.671,0-68.32,30.647-68.32,68.318c0,9.52,1.929,18.692,5.713,27.325     c-0.642,2.44-1.154,4.932-1.498,7.477c-1.309-0.107-2.622-0.158-3.942-0.158C21.878,197.349,0,219.229,0,246.123     c0,26.892,21.878,48.769,48.77,48.769h117.97c4.752,0,8.605-3.853,8.605-8.605s-3.853-8.605-8.605-8.605H48.77     c-17.403,0-31.56-14.157-31.56-31.559c0-17.405,14.157-31.563,31.56-31.563c3.22,0,6.401,0.485,9.455,1.441     c2.663,0.833,5.565,0.324,7.785-1.367c2.219-1.691,3.482-4.353,3.385-7.142l-0.01-0.268c-0.015-0.422-0.031-0.843-0.031-1.27     c0-5.456,0.968-10.69,2.74-15.54c0.009-0.023,0.015-0.045,0.024-0.068c5.606-15.273,19.195-26.724,35.684-29.274     c0.085-0.013,0.17-0.024,0.255-0.035c0.597-0.089,1.198-0.165,1.803-0.23c0.198-0.021,0.397-0.041,0.595-0.059     c0.521-0.049,1.044-0.088,1.57-0.119c0.204-0.012,0.408-0.027,0.612-0.037c0.709-0.033,1.42-0.054,2.136-0.054     c4.675,0,9.199,0.696,13.463,2.001c1.219,0.373,2.416,0.796,3.589,1.266c1.76,0.706,3.467,1.519,5.112,2.432     c10.967,6.09,19.184,16.65,22.124,29.663c0.47,2.075,1.688,3.891,3.402,5.112c0.245,0.174,0.5,0.337,0.765,0.486     c1.324,0.747,2.806,1.121,4.295,1.109c0.893-0.006,1.789-0.153,2.653-0.441c2.443-0.814,4.982-1.227,7.549-1.227     c7.806,0,15.127,3.841,19.584,10.274c2.052,2.963,5.736,4.336,9.222,3.431c2.632-0.679,5.348-1.023,8.07-1.023     c0.614,0,1.225,0.021,1.835,0.056c0.155,0.009,0.308,0.024,0.461,0.036c0.469,0.033,0.936,0.074,1.4,0.129     c0.148,0.017,0.296,0.038,0.443,0.056c0.495,0.065,0.987,0.139,1.478,0.227c0.099,0.017,0.198,0.034,0.296,0.053     c2.468,0.466,4.861,1.216,7.134,2.232c0.032,0.015,0.065,0.029,0.098,0.044c0.534,0.241,1.059,0.497,1.579,0.766     c0.045,0.023,0.089,0.045,0.134,0.069c1.091,0.572,2.149,1.208,3.17,1.903c0.092,0.063,0.183,0.131,0.275,0.196     c0.375,0.261,0.747,0.532,1.111,0.81c0.18,0.138,0.357,0.279,0.535,0.421c0.271,0.216,0.538,0.437,0.801,0.661     c0.199,0.17,0.398,0.34,0.594,0.514c0.239,0.213,0.471,0.435,0.703,0.655c0.196,0.185,0.395,0.367,0.585,0.558     c0.371,0.371,0.734,0.752,1.089,1.142c0.198,0.218,0.386,0.444,0.579,0.667c0.189,0.221,0.378,0.44,0.561,0.666     c0.186,0.23,0.369,0.464,0.549,0.698c0.184,0.24,0.365,0.484,0.543,0.73c3.82,5.274,6.081,11.748,6.081,18.743     c0,17.661-14.369,32.029-32.032,32.029h-19.896c-4.752,0-8.605,3.853-8.605,8.605s3.853,8.605,8.605,8.605h19.896     c27.152,0,49.242-22.089,49.242-49.239c0-5.091-0.777-10.003-2.217-14.626h51.398c4.752,0,8.605-3.853,8.605-8.605     s-3.853-8.605-8.605-8.605h-60.869c-0.302-0.357-0.623-0.695-0.935-1.042c-0.098-0.109-0.195-0.219-0.294-0.327     c-0.438-0.479-0.885-0.947-1.34-1.406c-0.125-0.126-0.25-0.251-0.375-0.375c-0.446-0.441-0.898-0.874-1.36-1.297     c-0.151-0.138-0.303-0.272-0.455-0.408c-0.45-0.401-0.902-0.799-1.365-1.183c-0.19-0.158-0.385-0.309-0.578-0.465     c-0.438-0.353-0.877-0.706-1.325-1.042c-0.293-0.22-0.595-0.428-0.892-0.641c-0.362-0.259-0.721-0.526-1.09-0.776     c-0.693-0.47-1.399-0.921-2.117-1.355c-0.057-0.034-0.115-0.066-0.172-0.099c-0.69-0.413-1.389-0.81-2.099-1.19     c-0.085-0.045-0.171-0.087-0.256-0.131c-0.688-0.364-1.385-0.711-2.092-1.041c-0.086-0.04-0.172-0.077-0.258-0.117     c-0.71-0.327-1.428-0.639-2.157-0.933c-0.083-0.033-0.166-0.066-0.248-0.098c-0.731-0.291-1.47-0.565-2.218-0.821     c-0.084-0.029-0.168-0.057-0.253-0.086c-0.743-0.251-1.494-0.483-2.253-0.698c-0.091-0.026-0.183-0.053-0.275-0.079     c-0.744-0.206-1.496-0.395-2.255-0.567c-0.109-0.025-0.217-0.052-0.326-0.075c-0.734-0.161-1.473-0.303-2.218-0.431     c-0.134-0.024-0.268-0.051-0.402-0.072c-0.711-0.116-1.428-0.213-2.15-0.298c-0.166-0.019-0.33-0.045-0.497-0.063     c-0.699-0.075-1.405-0.13-2.113-0.175c-0.181-0.012-0.36-0.031-0.542-0.041c-0.877-0.046-1.759-0.073-2.647-0.073     c-2.271,0-4.54,0.157-6.787,0.468c-7.71-8.32-18.592-13.151-30.091-13.151c-1.438,0-2.871,0.075-4.295,0.225     c-9.015-24.293-32.062-40.627-58.655-40.627c-1.115,0-2.222,0.037-3.325,0.095c-0.375,0.019-0.747,0.052-1.121,0.078     c-0.72,0.051-1.436,0.11-2.149,0.184c-0.455,0.047-0.908,0.101-1.36,0.158c-0.61,0.077-1.215,0.166-1.82,0.261     c-0.508,0.08-1.015,0.158-1.52,0.25c-0.473,0.087-0.942,0.187-1.412,0.285c-14.391,2.956-27.165,10.831-36.205,22.141     c-0.105-1.347-0.157-2.704-0.157-4.071c0-28.18,22.927-51.108,51.11-51.108c4.344,0,8.673,0.55,12.865,1.633     c3.492,0.898,7.173-0.469,9.226-3.431c7.304-10.543,19.302-16.837,32.099-16.837c4.209,0,8.37,0.677,12.368,2.009     c2.305,0.771,4.83,0.528,6.949-0.667c2.118-1.193,3.631-3.228,4.168-5.599c7.333-32.45,35.715-55.113,69.02-55.113     c26.641,0,50.385,14.527,62.552,37.637c-0.092,0.054-0.18,0.116-0.272,0.17c-0.631,0.372-1.253,0.762-1.864,1.169     c-0.14,0.093-0.28,0.183-0.418,0.278c-0.713,0.489-1.412,0.999-2.093,1.536c-0.066,0.052-0.127,0.107-0.193,0.158     c-0.609,0.486-1.2,0.994-1.781,1.518c-0.143,0.129-0.286,0.258-0.427,0.389c-0.63,0.586-1.249,1.186-1.841,1.816     c-2.025-0.267-4.071-0.401-6.121-0.401c-25.667,0-46.548,20.88-46.548,46.546c0,25.667,20.881,46.548,46.548,46.548h99.303     c-3.658,24.225-24.621,42.857-49.851,42.857h-16.284c-4.752,0-8.605,3.853-8.605,8.605s3.853,8.605,8.605,8.605h16.284     c34.733,0,63.421-26.325,67.193-60.067h38.198c25.424,0,46.107-20.683,46.107-46.107C512,99.426,491.317,78.74,465.893,78.74z      M465.893,153.748h-46.396H311.053c-16.177,0-29.338-13.16-29.338-29.338c0-16.176,13.16-29.336,29.338-29.336     c2.499,0,4.984,0.315,7.388,0.936c0.873,0.226,1.759,0.31,2.627,0.262c2.605-0.143,5.061-1.469,6.6-3.693     c0.325-0.47,0.674-0.92,1.034-1.36c0.091-0.113,0.186-0.224,0.28-0.335c0.325-0.382,0.661-0.754,1.01-1.112     c0.048-0.049,0.095-0.102,0.143-0.151c0.402-0.403,0.821-0.787,1.252-1.157c0.091-0.078,0.185-0.153,0.278-0.23     c0.375-0.311,0.759-0.61,1.154-0.895c0.08-0.057,0.157-0.118,0.238-0.174c0.464-0.325,0.939-0.631,1.426-0.92     c0.089-0.053,0.181-0.101,0.27-0.152c0.421-0.24,0.85-0.467,1.285-0.679c0.105-0.052,0.21-0.104,0.315-0.154     c0.517-0.241,1.044-0.465,1.582-0.665c0.055-0.02,0.112-0.038,0.168-0.058c0.507-0.184,1.022-0.349,1.544-0.494     c1.88-0.528,3.841-0.814,5.839-0.814c2.336,0,4.647,0.375,6.868,1.115c2.306,0.768,4.83,0.526,6.948-0.668     c2.118-1.194,3.631-3.228,4.167-5.599c4.265-18.875,21.421-32.573,40.795-32.573c23.069,0,41.838,18.769,41.838,41.838     c0,0.404-0.016,0.806-0.03,1.205l-0.008,0.204c-0.098,2.791,1.164,5.454,3.384,7.148c2.219,1.692,5.124,2.203,7.79,1.367     c2.79-0.874,5.702-1.319,8.656-1.319c15.933,0,28.897,12.966,28.897,28.901C494.79,140.785,481.826,153.748,465.893,153.748z"/>
			<path d="M412.823,301.915l-25.092,2.591l11.227-46.251c0.695-2.86-0.12-5.876-2.162-7.997c-2.039-2.12-5.023-3.053-7.907-2.467     l-42.728,8.643c-3.395,0.686-6.047,3.341-6.73,6.738l-17.285,85.938c-0.545,2.708,0.244,5.514,2.121,7.542     c1.877,2.028,4.614,3.026,7.357,2.697l28.188-3.437l-10.078,69.138c-0.613,4.209,1.939,8.234,6.007,9.474     c0.831,0.253,1.676,0.374,2.507,0.374c3.24,0,6.3-1.838,7.762-4.89l55.457-115.815c1.345-2.808,1.067-6.125-0.726-8.672     C418.948,302.974,415.917,301.593,412.823,301.915z M374.925,371.539l3.541-24.292c0.387-2.655-0.485-5.336-2.359-7.254     c-1.63-1.668-3.853-2.592-6.155-2.592c-0.346,0-0.695,0.021-1.042,0.063l-27.543,3.358l13.809-68.652l23.866-4.826     l-10.911,44.946c-0.659,2.716,0.042,5.583,1.88,7.689c1.839,2.107,4.598,3.187,7.366,2.9l21.934-2.264L374.925,371.539z"/>
			<path d="M282.7,362.634l-25.092,2.591l11.227-46.252c0.695-2.859-0.122-5.875-2.162-7.996c-2.039-2.12-5.023-3.055-7.907-2.467     l-42.727,8.643c-3.395,0.686-6.047,3.341-6.73,6.738l-17.285,85.938c-0.545,2.708,0.244,5.514,2.121,7.542     c1.877,2.029,4.613,3.026,7.357,2.697l28.188-3.437l-10.079,69.138c-0.613,4.209,1.939,8.234,6.007,9.473     c0.831,0.254,1.676,0.375,2.507,0.375c3.24,0,6.3-1.838,7.762-4.89l55.457-115.816c1.345-2.808,1.067-6.125-0.726-8.672     C288.827,363.694,285.793,362.314,282.7,362.634z M244.804,432.256l3.541-24.291c0.387-2.655-0.485-5.336-2.359-7.254     c-1.63-1.668-3.853-2.592-6.155-2.592c-0.346,0-0.695,0.022-1.042,0.063l-27.543,3.358l13.809-68.652l23.865-4.826l-10.91,44.946     c-0.659,2.716,0.042,5.584,1.88,7.689c1.839,2.106,4.592,3.19,7.366,2.9l21.934-2.264L244.804,432.256z"/>
			<path d="M152.579,362.634l-25.093,2.591l11.227-46.251c0.695-2.86-0.12-5.876-2.162-7.997c-2.039-2.12-5.023-3.055-7.907-2.467     l-42.727,8.643c-3.395,0.686-6.047,3.341-6.73,6.738l-17.285,85.938c-0.545,2.708,0.244,5.514,2.121,7.542     s4.612,3.026,7.357,2.697l28.188-3.437l-10.079,69.138c-0.613,4.209,1.939,8.234,6.007,9.473     c0.831,0.254,1.676,0.375,2.507,0.375c3.24,0,6.3-1.838,7.762-4.89l55.458-115.815c1.345-2.808,1.067-6.125-0.726-8.672     C158.705,363.694,155.671,362.314,152.579,362.634z M114.682,432.256l3.541-24.291c0.387-2.655-0.485-5.336-2.359-7.254     c-1.63-1.668-3.853-2.592-6.155-2.592c-0.346,0-0.695,0.022-1.042,0.063l-27.543,3.358l13.809-68.652l23.865-4.826     l-10.911,44.946c-0.659,2.716,0.042,5.583,1.88,7.689c1.838,2.105,4.595,3.19,7.366,2.9l21.935-2.264L114.682,432.256z"/>
		</g>
	</g>
</g>
<g>
</g>
<g>
</g>
<g>
</g>
<g>
</g>
<g>
</g>
<g>
</g>
<g>
</g>
<g>
</g>
<g>
</g>
<g>
</g>
<g>
</g>
<g>
</g>
<g>
</g>
<g>
</g>
<g>
</g>
</svg>
