<?xml version="1.0" encoding="iso-8859-1"?>
<!-- Generator: Adobe Illustrator 19.0.0, SVG Export Plug-In . SVG Version: 6.00 Build 0)  -->
<svg xmlns="http://www.w3.org/2000/svg" xmlns:xlink="http://www.w3.org/1999/xlink" version="1.1" id="Layer_1" x="0px" y="0px" viewBox="0 0 511.999 511.999" style="enable-background:new 0 0 511.999 511.999;" xml:space="preserve">
<g>
	<g>
		<g>
			<path d="M48.77,279.065h117.669c4.752,0,8.605-3.853,8.605-8.605s-3.853-8.605-8.605-8.605H48.77     c-17.403,0-31.56-14.159-31.56-31.56c0-17.405,14.157-31.563,31.56-31.563c3.22,0,6.401,0.484,9.455,1.441     c2.663,0.833,5.565,0.324,7.785-1.367c2.219-1.691,3.482-4.353,3.386-7.142l-0.01-0.268c-0.015-0.423-0.031-0.843-0.031-1.27     c0-5.409,0.954-10.599,2.698-15.414c0.025-0.07,0.047-0.141,0.073-0.211c5.609-15.264,19.195-26.708,35.679-29.258     c0.085-0.013,0.17-0.024,0.255-0.035c0.597-0.089,1.197-0.165,1.801-0.23c0.199-0.021,0.399-0.041,0.599-0.06     c0.52-0.049,1.042-0.088,1.567-0.119c0.204-0.012,0.408-0.027,0.612-0.037c0.709-0.033,1.42-0.054,2.136-0.054     c21.032,0,39.657,14.872,44.289,35.361c0.536,2.371,2.049,4.405,4.166,5.599c2.118,1.193,4.641,1.437,6.948,0.668     c2.443-0.814,4.982-1.227,7.549-1.227c7.806,0,15.128,3.841,19.584,10.277c2.052,2.963,5.736,4.334,9.228,3.43     c2.622-0.679,5.336-1.022,8.065-1.022c0.614,0,1.225,0.022,1.835,0.056c0.155,0.009,0.308,0.024,0.461,0.035     c0.469,0.033,0.936,0.074,1.4,0.129c0.148,0.017,0.296,0.038,0.443,0.056c0.495,0.065,0.989,0.139,1.478,0.227     c0.099,0.017,0.198,0.034,0.296,0.053c2.469,0.466,4.864,1.217,7.138,2.234c0.029,0.013,0.059,0.027,0.088,0.04     c0.538,0.243,1.069,0.501,1.593,0.772c0.04,0.02,0.081,0.041,0.12,0.061c1.095,0.574,2.157,1.211,3.18,1.909     c0.084,0.057,0.166,0.119,0.248,0.177c0.386,0.269,0.767,0.546,1.141,0.831c0.172,0.132,0.342,0.268,0.512,0.403     c0.28,0.223,0.556,0.451,0.828,0.683c0.191,0.164,0.384,0.327,0.572,0.496c0.251,0.224,0.495,0.455,0.739,0.687     c0.184,0.175,0.372,0.346,0.552,0.526c0.376,0.375,0.743,0.762,1.101,1.157c0.187,0.205,0.365,0.419,0.546,0.63     c0.201,0.233,0.402,0.468,0.597,0.708c0.18,0.221,0.354,0.444,0.527,0.67c0.194,0.252,0.383,0.507,0.569,0.765     c3.811,5.271,6.067,11.736,6.067,18.721c0,17.662-14.369,32.031-32.032,32.031h-18.046c-4.752,0-8.605,3.853-8.605,8.605     s3.853,8.605,8.605,8.605h18.046c27.152,0,49.242-22.089,49.242-49.241c0-5.09-0.777-10.002-2.217-14.624h60.776     c4.752,0,8.605-3.853,8.605-8.605s-3.853-8.605-8.605-8.605h-70.248c-0.296-0.349-0.609-0.68-0.914-1.02     c-0.109-0.122-0.216-0.243-0.326-0.364c-0.429-0.469-0.868-0.927-1.313-1.378c-0.134-0.135-0.27-0.271-0.406-0.406     c-0.438-0.432-0.881-0.856-1.333-1.27c-0.161-0.147-0.325-0.291-0.487-0.437c-0.44-0.393-0.883-0.782-1.336-1.157     c-0.202-0.168-0.411-0.33-0.616-0.495c-0.426-0.342-0.852-0.685-1.289-1.013c-0.317-0.239-0.644-0.465-0.968-0.696     c-0.339-0.241-0.671-0.49-1.015-0.723c-0.697-0.472-1.407-0.926-2.129-1.363c-0.04-0.025-0.082-0.046-0.123-0.071     c-0.705-0.424-1.422-0.829-2.149-1.218c-0.076-0.041-0.154-0.077-0.229-0.117c-0.697-0.368-1.403-0.72-2.118-1.055     c-0.08-0.038-0.16-0.072-0.241-0.109c-0.715-0.33-1.44-0.643-2.173-0.94c-0.079-0.032-0.157-0.062-0.237-0.094     c-0.735-0.293-1.478-0.568-2.23-0.825c-0.081-0.028-0.162-0.055-0.243-0.083c-0.747-0.252-1.5-0.485-2.262-0.701     c-0.089-0.026-0.179-0.052-0.268-0.076c-0.747-0.208-1.501-0.397-2.261-0.569c-0.107-0.025-0.213-0.051-0.319-0.074     c-0.736-0.161-1.477-0.304-2.224-0.432c-0.132-0.023-0.263-0.049-0.396-0.071c-0.714-0.116-1.434-0.213-2.158-0.299     c-0.164-0.019-0.325-0.044-0.488-0.062c-0.701-0.075-1.408-0.13-2.117-0.175c-0.18-0.012-0.358-0.031-0.539-0.041     c-0.877-0.046-1.759-0.073-2.647-0.073c-2.274,0-4.542,0.157-6.787,0.467c-7.709-8.32-18.592-13.152-30.091-13.152     c-1.438,0-2.872,0.075-4.295,0.225c-9.015-24.293-32.062-40.627-58.655-40.627c-1.115,0-2.222,0.037-3.325,0.095     c-0.375,0.019-0.746,0.052-1.121,0.079c-0.72,0.051-1.436,0.11-2.149,0.184c-0.455,0.047-0.908,0.102-1.36,0.159     c-0.61,0.077-1.215,0.166-1.819,0.26c-0.508,0.08-1.015,0.158-1.52,0.25c-0.473,0.087-0.942,0.187-1.412,0.285     c-14.391,2.956-27.165,10.831-36.204,22.142c-0.105-1.347-0.157-2.704-0.157-4.07c0-28.18,22.927-51.107,51.11-51.107     c4.351,0,8.678,0.549,12.861,1.632c3.488,0.899,7.175-0.467,9.229-3.431c7.304-10.543,19.302-16.838,32.099-16.838     c4.21,0,8.37,0.677,12.364,2.01c2.304,0.769,4.83,0.529,6.95-0.665c2.119-1.193,3.633-3.228,4.17-5.6     c7.331-32.45,35.714-55.113,69.02-55.113c26.641,0,50.385,14.526,62.552,37.636c-0.103,0.059-0.2,0.129-0.302,0.189     c-0.611,0.36-1.212,0.738-1.804,1.132c-0.155,0.103-0.311,0.203-0.465,0.309c-0.702,0.482-1.391,0.984-2.062,1.512     c-0.085,0.067-0.167,0.139-0.252,0.207c-0.586,0.47-1.158,0.959-1.718,1.464c-0.154,0.139-0.308,0.278-0.46,0.419     c-0.625,0.582-1.239,1.178-1.828,1.803c-2.025-0.267-4.072-0.401-6.122-0.401c-25.667,0-46.548,20.88-46.548,46.546     c0,25.667,20.881,46.548,46.548,46.548h99.299c-3.657,24.226-24.62,42.857-49.85,42.857h-7.98c-4.752,0-8.605,3.853-8.605,8.605     s3.853,8.605,8.605,8.605h7.98c34.732,0,63.42-26.325,67.192-60.068h38.198c25.424,0,46.107-20.684,46.107-46.109     S491.316,62.91,465.892,62.91c-1.067,0-2.132,0.037-3.191,0.11c-4.13-28.549-28.763-50.552-58.439-50.552     c-24.922,0-46.543,15.217-55.148,37.893c-1.205-0.112-2.415-0.169-3.63-0.169c-0.917,0-1.83,0.044-2.737,0.109     c-6.555-13.592-16.463-25.245-28.967-33.969C298.99,6.013,281.606,0.558,263.51,0.558c-20.081,0-39.72,6.945-55.299,19.557     c-13.06,10.571-22.852,24.744-28.148,40.544c-2.986-0.487-6.013-0.734-9.057-0.734c-16.477,0-32.034,7.238-42.663,19.61     c-3.798-0.646-7.656-0.971-11.526-0.971c-37.671,0-68.32,30.647-68.32,68.318c0,9.519,1.929,18.692,5.713,27.324     c-0.642,2.438-1.153,4.931-1.498,7.476c-1.309-0.107-2.622-0.158-3.942-0.158C21.878,181.522,0,203.401,0,230.295     C0,257.187,21.878,279.065,48.77,279.065z M327.668,76.755c0.01-0.014,0.02-0.027,0.03-0.041c0.313-0.45,0.648-0.882,0.992-1.305     c0.101-0.125,0.204-0.246,0.309-0.368c0.308-0.361,0.626-0.713,0.956-1.052c0.066-0.068,0.128-0.139,0.194-0.205     c0.392-0.393,0.8-0.767,1.22-1.127c0.109-0.094,0.221-0.184,0.331-0.275c0.349-0.288,0.706-0.565,1.07-0.829     c0.103-0.075,0.205-0.154,0.31-0.227c0.447-0.313,0.907-0.609,1.377-0.887c0.117-0.069,0.238-0.133,0.356-0.2     c0.385-0.218,0.777-0.425,1.175-0.62c0.133-0.065,0.265-0.132,0.399-0.195c0.499-0.231,1.006-0.446,1.522-0.64     c0.09-0.034,0.184-0.062,0.274-0.096c0.465-0.167,0.936-0.317,1.412-0.452c1.896-0.538,3.874-0.828,5.891-0.828     c2.335-0.002,4.647,0.373,6.867,1.113c2.306,0.769,4.83,0.525,6.948-0.668c2.118-1.194,3.631-3.228,4.167-5.599     c4.265-18.875,21.421-32.573,40.795-32.573c23.069,0,41.838,18.769,41.838,41.838c0,0.404-0.016,0.808-0.03,1.208l-0.008,0.202     c-0.098,2.791,1.164,5.455,3.385,7.148c2.219,1.691,5.124,2.204,7.79,1.367c2.79-0.875,5.702-1.319,8.656-1.319     c15.933,0,28.897,12.965,28.897,28.899s-12.964,28.899-28.897,28.899h-46.396H311.053c-16.177,0-29.338-13.16-29.338-29.338     c0-16.176,13.16-29.336,29.338-29.336c2.499,0,4.984,0.315,7.388,0.936C321.934,81.088,325.616,79.719,327.668,76.755z"/>
			<path d="M501.23,268.39h-9.303l6.579-6.579c3.36-3.361,3.36-8.809,0-12.17c-3.361-3.359-8.808-3.359-12.17,0l-6.576,6.577v-9.301     c0-4.752-3.853-8.605-8.605-8.605s-8.605,3.853-8.605,8.605v9.302l-6.577-6.578c-3.359-3.358-8.806-3.359-12.17,0     c-3.36,3.36-3.36,8.808,0,12.17l6.579,6.579h-9.302c-4.752,0-8.605,3.853-8.605,8.605s3.853,8.605,8.605,8.605h9.3l-6.576,6.576     c-3.36,3.361-3.36,8.809,0,12.17c1.68,1.68,3.882,2.52,6.085,2.52c2.203,0,4.405-0.84,6.085-2.52l6.577-6.577v9.302     c0,4.752,3.853,8.605,8.605,8.605s8.605-3.853,8.605-8.605v-9.301l6.576,6.577c1.681,1.68,3.882,2.52,6.085,2.52     c2.202,0,4.405-0.84,6.085-2.52c3.36-3.36,3.36-8.808,0-12.17l-6.576-6.576h9.301c4.752,0,8.605-3.853,8.605-8.605     S505.982,268.39,501.23,268.39z"/>
			<path d="M427.549,366.272h-9.303l6.579-6.579c3.36-3.361,3.36-8.809,0-12.17c-3.361-3.359-8.808-3.359-12.17,0l-6.576,6.577     V344.8c0-4.752-3.853-8.605-8.605-8.605s-8.605,3.853-8.605,8.605v9.302l-6.578-6.577c-3.36-3.358-8.807-3.36-12.17,0     c-3.36,3.36-3.36,8.808,0,12.17l6.579,6.579h-9.302c-4.752,0-8.605,3.853-8.605,8.605s3.853,8.605,8.605,8.605h9.3l-6.576,6.576     c-3.36,3.361-3.36,8.809,0,12.17c1.681,1.68,3.882,2.52,6.085,2.52s4.405-0.84,6.085-2.52l6.578-6.577v9.302     c0,4.752,3.853,8.605,8.605,8.605s8.605-3.853,8.605-8.605v-9.301l6.576,6.578c1.68,1.68,3.882,2.52,6.085,2.52     c2.202,0,4.405-0.84,6.085-2.52c3.36-3.36,3.36-8.808,0-12.17l-6.576-6.576h9.301c4.752,0,8.605-3.853,8.605-8.605     C436.154,370.127,432.301,366.272,427.549,366.272z"/>
			<path d="M353.868,464.154h-9.303l6.579-6.579c3.36-3.361,3.36-8.809,0-12.17c-3.361-3.359-8.808-3.359-12.17,0l-6.576,6.577     v-9.301c0-4.752-3.853-8.605-8.605-8.605s-8.605,3.853-8.605,8.605v9.302l-6.577-6.578c-3.36-3.358-8.807-3.359-12.17,0     c-3.36,3.36-3.36,8.808,0,12.17l6.579,6.579h-9.302c-4.752,0-8.605,3.853-8.605,8.605s3.853,8.605,8.605,8.605h9.3l-6.576,6.576     c-3.36,3.361-3.36,8.809,0,12.17c1.681,1.68,3.882,2.52,6.085,2.52s4.405-0.84,6.085-2.52l6.577-6.577v9.302     c0,4.752,3.853,8.605,8.605,8.605s8.605-3.853,8.605-8.605v-9.301l6.576,6.577c1.68,1.68,3.882,2.52,6.085,2.52     c2.202,0,4.405-0.84,6.085-2.52c3.36-3.36,3.36-8.808,0-12.17l-6.576-6.576h9.301c4.752,0,8.605-3.853,8.605-8.605     S358.621,464.154,353.868,464.154z"/>
			<path d="M367.601,276.995c0-4.752-3.853-8.605-8.605-8.605h-9.302l6.579-6.579c3.36-3.361,3.36-8.808,0-12.17     c-3.361-3.359-8.809-3.359-12.171,0l-6.576,6.576v-9.3c0-4.752-3.853-8.605-8.605-8.605s-8.605,3.853-8.605,8.605v9.302     l-6.579-6.579c-3.361-3.359-8.808-3.359-12.17,0c-3.36,3.361-3.36,8.808,0,12.17l6.579,6.579h-9.302     c-4.752,0-8.605,3.853-8.605,8.605s3.853,8.605,8.605,8.605h9.301l-6.576,6.576c-3.36,3.361-3.36,8.808,0,12.17     c1.681,1.68,3.882,2.52,6.085,2.52s4.405-0.84,6.085-2.52l6.579-6.579v9.302c0,4.752,3.853,8.605,8.605,8.605     s8.605-3.853,8.605-8.605v-9.3l6.576,6.576c1.681,1.68,3.882,2.52,6.085,2.52c2.203,0,4.405-0.84,6.085-2.52     c3.36-3.361,3.36-8.808,0-12.17l-6.576-6.576h9.3C363.748,285.6,367.601,281.747,367.601,276.995z"/>
			<path d="M282.592,390.059l-6.576-6.576h9.3c4.752,0,8.605-3.853,8.605-8.605s-3.853-8.605-8.605-8.605h-9.302l6.579-6.579     c3.36-3.361,3.36-8.808,0-12.17c-3.361-3.359-8.809-3.359-12.171,0l-6.576,6.576v-9.3c0-4.752-3.853-8.605-8.605-8.605     s-8.605,3.853-8.605,8.605v9.302l-6.579-6.579c-3.361-3.359-8.808-3.359-12.17,0c-3.36,3.361-3.36,8.808,0,12.17l6.579,6.579     h-9.302c-4.752,0-8.605,3.853-8.605,8.605s3.853,8.605,8.605,8.605h9.301l-6.576,6.576c-3.36,3.361-3.36,8.808,0,12.17     c1.681,1.68,3.882,2.52,6.085,2.52c2.203,0,4.405-0.84,6.085-2.52l6.579-6.579v9.302c0,4.752,3.853,8.605,8.605,8.605     s8.605-3.853,8.605-8.605v-9.3l6.576,6.576c1.681,1.68,3.882,2.52,6.085,2.52c2.203,0,4.405-0.84,6.085-2.52     C285.952,398.867,285.952,393.42,282.592,390.059z"/>
			<path d="M211.635,464.154h-9.302l6.579-6.579c3.36-3.361,3.36-8.808,0-12.17c-3.361-3.359-8.809-3.359-12.171,0l-6.576,6.576     v-9.3c0-4.752-3.853-8.605-8.605-8.605s-8.605,3.853-8.605,8.605v9.302l-6.579-6.579c-3.361-3.359-8.808-3.359-12.17,0     c-3.36,3.361-3.36,8.808,0,12.17l6.579,6.579h-9.302c-4.752,0-8.605,3.853-8.605,8.605s3.853,8.605,8.605,8.605h9.301     l-6.576,6.576c-3.36,3.361-3.36,8.808,0,12.17c1.681,1.68,3.882,2.52,6.085,2.52s4.405-0.84,6.085-2.52l6.579-6.579v9.302     c0,4.752,3.853,8.605,8.605,8.605s8.605-3.853,8.605-8.605v-9.3l6.576,6.576c1.681,1.68,3.882,2.52,6.085,2.52     s4.405-0.84,6.085-2.52c3.36-3.361,3.36-8.808,0-12.17l-6.576-6.576h9.301c4.752,0,8.605-3.853,8.605-8.605     S216.387,464.154,211.635,464.154z"/>
			<path d="M151.044,374.877c0-4.752-3.853-8.605-8.605-8.605h-9.303l6.579-6.579c3.36-3.361,3.36-8.809,0-12.17     c-3.361-3.359-8.808-3.359-12.17,0l-6.577,6.577v-9.302c0-4.752-3.853-8.605-8.605-8.605s-8.605,3.853-8.605,8.605v9.301     l-6.576-6.576c-3.36-3.358-8.807-3.36-12.171,0c-3.36,3.36-3.36,8.808,0,12.17l6.579,6.579h-9.303     c-4.752,0-8.605,3.853-8.605,8.605c0,4.752,3.853,8.605,8.605,8.605h9.3l-6.576,6.576c-3.36,3.361-3.36,8.809,0,12.17     c1.681,1.68,3.882,2.52,6.085,2.52s4.405-0.84,6.085-2.52l6.576-6.578v9.301c0,4.752,3.853,8.605,8.605,8.605     s8.605-3.853,8.605-8.605v-9.302l6.577,6.577c1.681,1.68,3.882,2.52,6.085,2.52c2.202,0,4.405-0.84,6.085-2.52     c3.36-3.36,3.36-8.808,0-12.17l-6.576-6.576h9.301C147.191,383.482,151.044,379.629,151.044,374.877z"/>
			<path d="M68.759,464.154h-9.303l6.579-6.579c3.36-3.361,3.36-8.809,0-12.17c-3.361-3.359-8.808-3.359-12.17,0l-6.577,6.577     v-9.302c0-4.752-3.853-8.605-8.605-8.605s-8.605,3.853-8.605,8.605v9.301l-6.576-6.576c-3.36-3.358-8.807-3.359-12.171,0     c-3.36,3.36-3.36,8.808,0,12.17l6.579,6.579H8.605c-4.752,0-8.605,3.853-8.605,8.605s3.853,8.605,8.605,8.605h9.3l-6.576,6.576     c-3.36,3.361-3.36,8.809,0,12.17c1.681,1.68,3.882,2.52,6.085,2.52s4.405-0.84,6.085-2.52l6.576-6.577v9.301     c0,4.752,3.853,8.605,8.605,8.605s8.605-3.853,8.605-8.605v-9.302l6.577,6.577c1.681,1.68,3.882,2.52,6.085,2.52     c2.202,0,4.405-0.84,6.085-2.52c3.36-3.36,3.36-8.808,0-12.17l-6.576-6.576h9.301c4.752,0,8.605-3.853,8.605-8.605     S73.511,464.154,68.759,464.154z"/>
		</g>
	</g>
</g>
<g>
</g>
<g>
</g>
<g>
</g>
<g>
</g>
<g>
</g>
<g>
</g>
<g>
</g>
<g>
</g>
<g>
</g>
<g>
</g>
<g>
</g>
<g>
</g>
<g>
</g>
<g>
</g>
<g>
</g>
</svg>
