<?xml version="1.0" encoding="iso-8859-1"?>
<!-- Generator: Adobe Illustrator 19.0.0, SVG Export Plug-In . SVG Version: 6.00 Build 0)  -->
<svg xmlns="http://www.w3.org/2000/svg" xmlns:xlink="http://www.w3.org/1999/xlink" version="1.1" id="Layer_1" x="0px" y="0px" viewBox="0 0 512 512" style="enable-background:new 0 0 512 512;" xml:space="preserve">
<g>
	<g>
		<g>
			<path d="M440.282,110.663c-0.12-0.326-0.262-0.644-0.424-0.953l-33.14-63.873c-1.48-2.852-4.425-4.641-7.639-4.641     c-3.214,0-6.159,1.79-7.639,4.641l-33.139,63.873c-0.159,0.309-0.301,0.627-0.423,0.953c-8.715,23.335,3.18,49.41,26.516,58.126     c4.631,1.726,9.481,2.678,14.418,2.831c0.088,0.003,0.176,0.004,0.265,0.004c0.088,0,0.176-0.001,0.265-0.004     c4.937-0.153,9.789-1.104,14.423-2.833C437.103,160.073,448.997,133.999,440.282,110.663z M407.752,152.663     c-2.788,1.04-5.704,1.626-8.672,1.746c-2.968-0.119-5.883-0.706-8.666-1.744c-14.291-5.338-21.649-21.196-16.578-35.523     l25.245-48.657l25.246,48.656C429.399,131.47,422.04,147.328,407.752,152.663z"/>
			<path d="M153.699,313.515l-33.14-63.873c-1.48-2.852-4.425-4.641-7.639-4.641c-3.214,0-6.159,1.79-7.639,4.641l-33.14,63.873     c-0.159,0.309-0.301,0.627-0.423,0.953c-8.715,23.336,3.18,49.411,26.514,58.126c4.628,1.726,9.479,2.679,14.421,2.832     c0.088,0.003,0.176,0.004,0.265,0.004s0.176-0.001,0.265-0.004c4.941-0.153,9.793-1.105,14.422-2.833     c23.334-8.714,35.228-34.788,26.513-58.125C154,314.142,153.858,313.824,153.699,313.515z M121.587,356.469     c-2.783,1.039-5.697,1.625-8.667,1.745c-2.97-0.119-5.885-0.706-8.666-1.744c-14.291-5.337-21.649-21.196-16.578-35.524     l25.245-48.656l25.245,48.656C143.237,335.275,135.878,351.133,121.587,356.469z"/>
			<path d="M256.316,60.432c-4.752,0-8.605,3.853-8.605,8.605V380.57c-19.266,3.988-33.791,21.089-33.791,41.518     c0,23.377,19.019,42.396,42.396,42.396c23.378,0,42.397-19.019,42.397-42.396c0-20.431-14.526-37.531-33.792-41.518V69.037     C264.921,64.285,261.068,60.432,256.316,60.432z M281.503,422.088c0,13.888-11.298,25.186-25.187,25.186     c-13.887,0-25.186-11.298-25.186-25.186c0-13.888,11.298-25.188,25.186-25.188C270.205,396.9,281.503,408.2,281.503,422.088z"/>
			<path d="M331.216,64.811h0.002c0-13.022-10.594-23.615-23.615-23.615h-4.899V40.99c0-22.602-18.388-40.99-40.989-40.99H250.92     c-22.602,0-40.99,18.388-40.99,40.989v0.206h-4.898c-13.022,0-23.615,10.594-23.615,23.615v307.505     c-9.625,14.47-15.01,31.684-15.01,49.773c0,49.578,40.334,89.912,89.912,89.912c26.56,0,51.621-11.653,68.758-31.974     c3.064-3.632,2.603-9.061-1.03-12.125c-3.632-3.066-9.062-2.604-12.125,1.03c-13.861,16.432-34.128,25.858-55.604,25.858     c-40.089,0-72.702-32.613-72.702-72.702c0-15.275,4.747-29.782,13.193-41.794c0.073-0.094,0.154-0.18,0.224-0.276     c5.757-8.089,13.186-14.976,21.657-20.121c0.126-0.076,0.254-0.151,0.381-0.226c1.112-0.666,2.239-1.307,3.385-1.911     c0.029-0.015,0.057-0.032,0.086-0.047c2.829-1.489,4.599-4.42,4.599-7.617v-0.001V49.801v-8.81     c0-13.112,10.668-23.779,23.78-23.779h10.794c13.112,0,23.779,10.667,23.779,23.779v309.106c0,3.197,1.77,6.128,4.599,7.617     c0.041,0.021,0.081,0.045,0.122,0.067c1.125,0.595,2.232,1.223,3.324,1.877c0.14,0.084,0.282,0.166,0.422,0.251     c8.465,5.145,15.889,12.029,21.641,20.111c0.07,0.098,0.151,0.183,0.224,0.277c8.447,12.012,13.194,26.519,13.194,41.795     c0,8.722-1.526,17.249-4.537,25.343c-1.656,4.454,0.61,9.409,5.065,11.065c4.456,1.655,9.409-0.61,11.065-5.065     c3.727-10.018,5.617-20.564,5.617-31.343c0-18.089-5.387-35.302-15.01-49.772V64.811z M209.929,345.07     c-4.007,2.414-7.777,5.115-11.304,8.059v-35.374h11.304V345.07z M209.929,300.544h-11.304v-23.985h11.304V300.544z      M209.929,259.348h-11.304v-23.987h11.304V259.348z M209.929,218.152h-11.304v-23.987h11.304V218.152z M209.929,176.956h-11.304     v-23.984h11.304V176.956z M209.929,135.762h-11.304v-23.985h11.304V135.762z M209.929,94.566h-11.304V64.811     c0-3.531,2.874-6.405,6.405-6.405h4.898V94.566z M314.008,353.129c-3.527-2.944-7.297-5.646-11.304-8.059v-27.317h11.304V353.129     z M314.008,300.544h-11.304v-23.985h11.304V300.544z M314.008,259.348h-11.304v-23.987h11.304V259.348z M314.008,218.152h-11.304     v-23.987h11.304V218.152z M314.008,176.956h-11.304v-23.984h11.304V176.956z M314.008,135.762h-11.304v-23.985h11.304V135.762z      M314.008,94.566h-11.304V58.406h4.898c3.531,0,6.405,2.874,6.405,6.405V94.566z"/>
		</g>
	</g>
</g>
<g>
</g>
<g>
</g>
<g>
</g>
<g>
</g>
<g>
</g>
<g>
</g>
<g>
</g>
<g>
</g>
<g>
</g>
<g>
</g>
<g>
</g>
<g>
</g>
<g>
</g>
<g>
</g>
<g>
</g>
</svg>
