<?xml version="1.0" encoding="iso-8859-1"?>
<!-- Generator: Adobe Illustrator 19.0.0, SVG Export Plug-In . SVG Version: 6.00 Build 0)  -->
<svg xmlns="http://www.w3.org/2000/svg" xmlns:xlink="http://www.w3.org/1999/xlink" version="1.1" id="Layer_1" x="0px" y="0px" viewBox="0 0 511.999 511.999" style="enable-background:new 0 0 511.999 511.999;" xml:space="preserve">
<g>
	<g>
		<g>
			<path d="M256.624,312.557c-4.753,0-8.605,3.853-8.605,8.605v59.409c-19.266,3.987-33.791,21.088-33.791,41.518     c0,23.377,19.019,42.396,42.396,42.396c23.378,0,42.397-19.019,42.397-42.396c0-20.431-14.526-37.53-33.792-41.518v-59.409     C265.229,316.41,261.376,312.557,256.624,312.557z M281.811,422.088c0,13.888-11.298,25.186-25.187,25.186     c-13.887,0-25.186-11.298-25.186-25.186c0-13.888,11.298-25.187,25.186-25.187C270.513,396.901,281.811,408.2,281.811,422.088z"/>
			<path d="M331.525,64.811h0.001c0-13.022-10.594-23.615-23.615-23.615h-4.899V40.99c0-22.602-18.388-40.99-40.989-40.99h-10.794     c-22.602,0-40.99,18.388-40.99,40.989v0.206h-4.897c-13.022,0-23.615,10.594-23.615,23.615v307.503     c-9.625,14.47-15.01,31.684-15.01,49.774c0,49.578,40.334,89.912,89.911,89.912c26.559,0,51.621-11.653,68.758-31.974     c3.064-3.632,2.603-9.061-1.03-12.125c-3.631-3.066-9.061-2.604-12.126,1.03c-13.859,16.434-34.126,25.859-55.603,25.859     c-40.088,0-72.701-32.613-72.701-72.702c0-15.272,4.744-29.774,13.185-41.784c0.076-0.098,0.16-0.186,0.232-0.287     c5.756-8.091,13.188-14.98,21.663-20.125c0.117-0.071,0.237-0.14,0.354-0.21c1.138-0.682,2.291-1.338,3.466-1.957     c0.008-0.004,0.016-0.009,0.024-0.013c2.829-1.489,4.599-4.42,4.599-7.617V49.801v-8.81c0-13.112,10.668-23.779,23.78-23.779     h10.794c13.113,0,23.78,10.667,23.78,23.779v8.81v300.296c0,3.197,1.771,6.128,4.599,7.617c1.185,0.623,2.349,1.285,3.498,1.975     c0.114,0.068,0.228,0.134,0.341,0.202c8.476,5.145,15.91,12.035,21.671,20.129c0.069,0.097,0.15,0.182,0.222,0.275     c8.447,12.012,13.194,26.519,13.194,41.796c0,8.722-1.526,17.249-4.537,25.343c-1.656,4.454,0.61,9.409,5.065,11.065     c4.451,1.658,9.409-0.61,11.065-5.065c3.727-10.018,5.617-20.564,5.617-31.343c0-18.089-5.387-35.302-15.01-49.772V64.811z      M210.237,345.07c-4.006,2.413-7.776,5.115-11.303,8.059v-35.374h11.303V345.07z M210.237,300.544h-11.303v-23.985h11.303     V300.544z M210.237,259.348h-11.303v-23.987h11.303V259.348z M210.237,218.152h-11.303v-23.985h11.303V218.152z M210.237,176.957     h-11.303v-23.987h11.303V176.957z M210.237,135.761h-11.303v-23.985h11.303V135.761z M210.237,94.565h-11.303V64.811     c0-3.531,2.874-6.405,6.405-6.405h4.897V94.565z M303.011,58.406h4.9c3.531,0,6.405,2.874,6.405,6.405v29.754h-11.305V58.406z      M314.316,353.129c-3.527-2.945-7.298-5.646-11.305-8.059v-27.316h11.305V353.129z M314.316,300.544h-11.305v-23.985h11.305     V300.544z M314.316,259.348h-11.305v-23.987h11.305V259.348z M314.316,218.153h-11.305v-23.985h11.305V218.153z M314.316,176.957     h-11.305v-23.987h11.305V176.957z M314.316,135.761h-11.305v-23.985h11.305V135.761z"/>
			<path d="M495.542,73.801H482.48l6.416-6.416c3.36-3.361,3.36-8.808,0-12.17c-3.361-3.359-8.809-3.359-12.171,0l-18.586,18.586     h-15.625l25.898-25.897c3.36-3.36,3.36-8.808,0-12.17c-3.36-3.357-8.808-3.359-12.17,0l-25.898,25.898V46.007l18.585-18.584     c3.361-3.36,3.361-8.808,0.001-12.169c-3.359-3.36-8.808-3.36-12.17-0.001l-6.417,6.416V8.605c0-4.752-3.853-8.605-8.605-8.605     s-8.605,3.853-8.605,8.605V21.67l-6.417-6.416c-3.359-3.359-8.807-3.36-12.169,0.001c-3.36,3.36-3.36,8.809,0.001,12.169     l18.585,18.584v15.626l-25.897-25.898c-3.361-3.359-8.808-3.359-12.17,0c-3.36,3.361-3.36,8.809,0,12.17l25.898,25.897h-15.624     l-18.584-18.585c-3.36-3.36-8.808-3.361-12.17-0.001c-3.361,3.36-3.361,8.808-0.001,12.169l6.416,6.417h-13.066     c-4.752,0-8.605,3.853-8.605,8.605s3.853,8.605,8.605,8.605h13.066l-6.416,6.417c-3.36,3.36-3.36,8.809,0.001,12.17     c1.68,1.679,3.881,2.52,6.084,2.52s4.405-0.84,6.085-2.521l18.584-18.585h15.625l-25.899,25.898c-3.36,3.36-3.36,8.808,0,12.17     c1.681,1.679,3.882,2.52,6.085,2.52c2.202,0,4.405-0.84,6.085-2.52l25.898-25.898v15.625l-18.586,18.586     c-3.36,3.361-3.36,8.809,0,12.171c3.361,3.359,8.808,3.359,12.17,0l6.416-6.416v13.062c0,4.752,3.853,8.605,8.605,8.605     s8.605-3.853,8.605-8.605v-13.062l6.416,6.416c1.681,1.68,3.882,2.52,6.085,2.52c2.203,0,4.405-0.84,6.085-2.52     c3.36-3.361,3.36-8.809,0-12.171l-18.586-18.586v-15.625l25.898,25.898c1.681,1.679,3.882,2.52,6.085,2.52s4.405-0.84,6.085-2.52     c3.36-3.361,3.36-8.809,0-12.17l-25.899-25.898h15.626l18.586,18.586c1.681,1.679,3.882,2.52,6.085,2.52s4.405-0.84,6.085-2.52     c3.36-3.361,3.36-8.809,0-12.171l-6.416-6.416h13.064c4.752,0,8.605-3.853,8.605-8.605S500.294,73.801,495.542,73.801z"/>
			<path d="M172.665,314.249c0-4.752-3.853-8.605-8.605-8.605h-13.062l6.416-6.416c3.361-3.361,3.361-8.809,0-12.171     c-3.36-3.359-8.809-3.359-12.169,0l-18.586,18.586h-15.626l25.897-25.897c3.36-3.36,3.36-8.808,0-12.17     c-3.359-3.358-8.808-3.358-12.17,0l-25.898,25.899v-15.626l18.586-18.584c3.36-3.36,3.36-8.808,0-12.169     c-3.36-3.36-8.808-3.36-12.17-0.001l-6.416,6.416v-13.064c0-4.752-3.852-8.605-8.605-8.605c-4.752,0-8.605,3.853-8.605,8.605     v13.064l-6.415-6.415c-3.36-3.359-8.808-3.36-12.17,0.001c-3.36,3.36-3.359,8.808,0,12.169l18.585,18.584v15.626l-25.899-25.898     c-3.36-3.359-8.808-3.359-12.169,0c-3.361,3.361-3.361,8.809,0,12.17l25.897,25.897H53.857L35.275,287.06     c-3.36-3.359-8.808-3.36-12.17-0.001c-3.36,3.36-3.361,8.809,0,12.17l6.416,6.417H16.457c-4.753,0-8.605,3.853-8.605,8.605     s3.852,8.605,8.605,8.605h13.065l-6.416,6.417c-3.36,3.36-3.36,8.809,0,12.169c1.681,1.68,3.882,2.52,6.085,2.52     c2.203,0,4.405-0.84,6.085-2.521l18.584-18.585h15.626l-25.899,25.896c-3.361,3.36-3.361,8.808,0,12.17     c1.68,1.68,3.882,2.52,6.085,2.52c2.202,0,4.405-0.84,6.085-2.52l25.899-25.898v15.627l-18.585,18.586     c-3.36,3.36-3.359,8.808,0,12.169c3.36,3.359,8.808,3.36,12.17-0.001l6.415-6.415v13.063c0,4.752,3.853,8.605,8.605,8.605     c4.753,0,8.605-3.853,8.605-8.605v-13.063l6.416,6.417c1.68,1.68,3.882,2.52,6.085,2.52c2.202,0,4.405-0.84,6.085-2.52     c3.36-3.361,3.36-8.809,0-12.171l-18.586-18.586v-15.626l25.899,25.898c1.68,1.68,3.882,2.52,6.085,2.52     c2.202,0,4.405-0.84,6.085-2.52c3.36-3.361,3.36-8.809,0-12.17l-25.899-25.898h15.627l18.586,18.586     c1.68,1.68,3.882,2.52,6.085,2.52c2.202,0,4.405-0.84,6.085-2.52c3.361-3.361,3.361-8.808,0-12.17L151,322.854h13.063     C168.813,322.854,172.665,319.001,172.665,314.249z"/>
		</g>
	</g>
</g>
<g>
</g>
<g>
</g>
<g>
</g>
<g>
</g>
<g>
</g>
<g>
</g>
<g>
</g>
<g>
</g>
<g>
</g>
<g>
</g>
<g>
</g>
<g>
</g>
<g>
</g>
<g>
</g>
<g>
</g>
</svg>
